<svg id="Layer_1" data-name="Layer 1" xmlns="http://www.w3.org/2000/svg" xmlns:xlink="http://www.w3.org/1999/xlink" viewBox="0 0 256 256"><defs><style>.cls-1{fill:#8a5d3b;}.cls-2{fill:#231f20;}.cls-3{fill:#009345;}.cls-4{fill:#fff;}</style></defs><title>frugal-wookie-2</title><rect x="0.05" width="256.5" height="256.5"/><path class="cls-1" d="M201.82,105.34c-8.07,1.24-14.24,9.81-12.86,17.86a34.63,34.63,0,0,0,2.33,7c1.73,4.32,3.26,8.85,3.11,13.51-.24,7.44-4.68,14-6.7,21.21a46.2,46.2,0,0,1-2,6.77,27.05,27.05,0,0,1-3.56,5.39l-6,7.67a96.67,96.67,0,0,0-1-32.72c-.93-4.58-2.28-9.25-5.33-12.8-3.57-4.16-9.11-6.33-12.48-10.65-2.37-3-3.46-6.85-4.49-10.56a52.82,52.82,0,0,1-2.22-10.81c-.12-1.77-.06-3.54-.19-5.3-.75-10.22-7.67-18.88-10.43-28.74-1-3.47-1.72-7.51-4.83-9.31L44.87,155.69a135,135,0,0,0-12.7,22.19,4.4,4.4,0,0,0-.53,3.29c.59,1.56,2.61,2,3.83,3.09,2.3,2.14,1.24,6.37,3.45,8.61,3.56,3.61,11.88-1.1,13.92,3.54.65,1.48.13,3.18-.08,4.79-.76,6.05,3.22,11.56,7,16.36,1.71,2.18,3.52,4.45,6.06,5.56,2.2,1,4.69.94,7.09.91l26.45-.39c5.63-.08,11.4-.2,16.62-2.29,7.72-3.11,13.18-10.11,20.4-14.25a3.14,3.14,0,0,1,1.91-.58,3.18,3.18,0,0,1,1.93,1.56c3.31,4.76,5.49,10.25,8.88,15s8.53,8.76,14.33,8.6c4.41-.12,9.75-2.33,12.62,1a25.17,25.17,0,0,0,1.64,2.17c2.57,2.38,6.65-.4,8.55-3.33,4.68-7.2,6.24-15.94,9.74-23.78,4-8.86,10.38-16.49,13.95-25.51A88.66,88.66,0,0,0,214,166.52l2.52-12.7c.6-3,1-6.61-1.23-8.7-.88-.82-2.09-1.29-2.76-2.29s-.62-2.52-.65-3.83a17.09,17.09,0,0,0-12.67-15.8,20.33,20.33,0,0,0,4.15-17.76"/><path d="M201.76,105.1a16.08,16.08,0,0,0-11.15,8.08,16.26,16.26,0,0,0-2,6.44A18.11,18.11,0,0,0,190,127.7c2.47,6.49,5.16,12.8,3.65,19.89-1.28,6-4.54,11.38-6.2,17.29-.48,1.7-.81,3.44-1.37,5.12a18.18,18.18,0,0,1-2.59,4.91c-2.38,3.31-5,6.47-7.5,9.68l.42.24a97.82,97.82,0,0,0-.3-29,45.72,45.72,0,0,0-3.41-12.54,22.39,22.39,0,0,0-7.64-8.47c-3.43-2.48-6.92-4.81-9-8.62-2.22-4.09-3.34-9-4.35-13.55a39.27,39.27,0,0,1-.91-7.79,35,35,0,0,0-.59-6.38,51.5,51.5,0,0,0-4.09-11.33c-2.08-4.46-4.36-8.86-5.74-13.6-1-3.53-1.66-7.75-5.07-9.84a.26.26,0,0,0-.3,0L124.56,74.35,100.21,99.09l-28,28.51-21.65,22-5.18,5.26a11.27,11.27,0,0,0-1.2,1.45,136,136,0,0,0-9.61,16.08q-1,2-2,4.12a10.69,10.69,0,0,0-1.27,3.43c-.21,2.39,2,3,3.59,4.14,2.11,1.53,1.92,4.38,2.61,6.63a5,5,0,0,0,3.24,3.51,15,15,0,0,0,5.47.3c1.7-.09,3.88-.36,5.37.67A3.85,3.85,0,0,1,52.85,199a26,26,0,0,0-.4,4.66,17.86,17.86,0,0,0,2.28,7.08,50,50,0,0,0,4.7,6.85c1.58,2,3.24,4.17,5.54,5.42s4.94,1.32,7.5,1.29c3.47,0,6.93-.1,10.4-.15,6.64-.1,13.28-.11,19.9-.31,5.82-.18,11.56-.95,16.67-3.9,4.65-2.69,8.5-6.51,12.77-9.74,1-.79,2.13-1.56,3.26-2.26a7.34,7.34,0,0,1,2.07-1.09c1.5-.31,2.26,1.09,2.94,2.12,1.65,2.48,3,5.12,4.45,7.74,2.6,4.76,5.5,9.52,10.12,12.58a15.29,15.29,0,0,0,6.45,2.53c2.6.33,5.15-.31,7.72-.6s5.37-.19,7.06,2.2c1.14,1.61,2.3,2.87,4.44,2.5,4.87-.84,7.38-6.74,9.06-10.72,2.28-5.42,3.74-11.15,6.05-16.55s5.65-10.45,8.71-15.53a65.73,65.73,0,0,0,7.38-16.1c1.77-6.29,2.82-12.8,4.09-19.2.79-4,2.94-10.2-1-13.24-1.23-.95-2.46-1.56-2.76-3.24-.25-1.36-.07-2.78-.26-4.16a16.73,16.73,0,0,0-2.3-6.37A17.28,17.28,0,0,0,199.3,123l.11.42a20.77,20.77,0,0,0,4.21-18c-.07-.31-.55-.18-.48.14A20.21,20.21,0,0,1,199.05,123a.26.26,0,0,0,.11.42,17,17,0,0,1,12.1,12.46,22.13,22.13,0,0,1,.4,4.3,4.68,4.68,0,0,0,1.18,3.35c1.09,1.09,2.54,1.6,3.27,3.06a8.54,8.54,0,0,1,.58,4.69c-.38,3.77-1.4,7.54-2.13,11.25s-1.38,7.17-2.21,10.72a58.45,58.45,0,0,1-3.5,10.8,84.17,84.17,0,0,1-5,9.15c-3.47,5.72-7.08,11.33-9.48,17.6S190.35,224,186.9,229.9c-1.42,2.46-4.19,6.14-7.53,5.52-1.64-.31-2.18-1.81-3.16-2.94a5.48,5.48,0,0,0-3.15-1.76c-2.6-.5-5.29.24-7.87.53a14.11,14.11,0,0,1-9.23-2c-6-3.63-9.05-10.06-12.31-16-.86-1.56-1.75-3.11-2.74-4.6-.62-.94-1.35-2.22-2.58-2.41s-2.22.65-3.12,1.21c-1.36.85-2.67,1.8-3.94,2.78-5.05,3.93-9.71,8.69-15.81,11-6.94,2.64-14.81,2.1-22.11,2.21l-12,.17c-3.81.06-7.67.33-11.47.1s-6.4-2-8.75-4.81a52.84,52.84,0,0,1-6-8.48,15.74,15.74,0,0,1-2-10.3c.33-2.1.39-4.52-1.77-5.62-3.72-1.91-9.3,1.47-12.42-2-1.83-2-1.21-5.15-2.53-7.44a5.73,5.73,0,0,0-2.32-2.07A9,9,0,0,1,32.49,182c-1.19-1.16-.68-2.67-.1-4a125,125,0,0,1,10.38-18.79,25.42,25.42,0,0,1,2.95-4l2.51-2.54,23.15-23.53,32.41-32.94,25.92-26.35,3.53-3.58a16.33,16.33,0,0,1,1.89-1.92c.44-.32,0-.13.25,0,1.18.43,2.13,2.22,2.62,3.28a27.24,27.24,0,0,1,1.48,4.5c1.66,6.18,4.69,11.73,7.25,17.55a44.22,44.22,0,0,1,3.06,9.16c.71,3.61.35,7.29.88,10.91a75.72,75.72,0,0,0,2.68,10.9,24.42,24.42,0,0,0,3.84,8.19c3.92,5,10.44,7.14,13.91,12.59a28.9,28.9,0,0,1,3.49,9.14,89,89,0,0,1,1.84,11.59,97.17,97.17,0,0,1-.49,22.61c0,.21.24.47.42.24,2.16-2.78,4.34-5.55,6.49-8.34a21.89,21.89,0,0,0,4-7.31c.86-2.92,1.51-5.84,2.62-8.69s2.39-5.6,3.41-8.47a24.15,24.15,0,0,0,.28-17.59c-1.88-5.85-5.38-11.36-3.53-17.7a15.88,15.88,0,0,1,12.28-11.26c.32,0,.18-.53-.13-.48Z"/><path class="cls-2" d="M59.39,95.76a4.7,4.7,0,0,0-2.82,3.38c-.33,1.2-.38,2.46-.63,3.67a17,17,0,0,1-1.07,3.28,19.56,19.56,0,0,0-1.81,6,12.14,12.14,0,0,0,1.15,6c.14.29.57,0,.43-.26a11.54,11.54,0,0,1-1.08-5.7,17.81,17.81,0,0,1,1.64-5.56,20.57,20.57,0,0,0,1.48-5.27c.27-2,.72-4.32,2.84-5.06.31-.11.18-.59-.13-.49Z"/><path class="cls-2" d="M91.85,88.07c1.76.46,3.51.93,5.26,1.43a18.9,18.9,0,0,1,5.24,1.85,17.07,17.07,0,0,1,3.5,3.79l3.54,4.39c.2.25.55-.11.35-.35l-3.64-4.52a16.65,16.65,0,0,0-3.5-3.75,17.72,17.72,0,0,0-4.87-1.75c-1.91-.55-3.83-1.07-5.75-1.58a.25.25,0,0,0-.13.49Z"/><path class="cls-1" d="M59.46,23.92c5.72-2,11.63-4.08,17.69-3.82a48.12,48.12,0,0,1,9.35,1.66l12.83,3.18c3.71.91,7.49,1.86,10.76,3.83a8.24,8.24,0,0,1,2.84,2.56,12.55,12.55,0,0,1,1.29,4.05,27.65,27.65,0,0,0,8.48,14.4c1.7,1.51,3.57,2.8,5.25,4.34,6.36,5.82,9.24,14.5,10.93,23a116.73,116.73,0,0,1,2.18,27.22,14.21,14.21,0,0,1-.57,4,18.21,18.21,0,0,1-1.86,3.48A46.52,46.52,0,0,0,133,125.66l-1.12-1.76-2,11.13a27.8,27.8,0,0,0-1.16-11.88,16.57,16.57,0,0,0-2.5,6.35,27.84,27.84,0,0,1,.48-10,130.36,130.36,0,0,0-9.63,20.25c-1.25,3.33-2.37,7-1.34,10.39a12.67,12.67,0,0,1,.8,2.92,7.39,7.39,0,0,1-.66,2.9l-5.67,15c-1.17,1.07-2.81-1.41-4.35-1a2.54,2.54,0,0,0-1.24,1,48.49,48.49,0,0,0-4.58,6.92c-2-1.19-3.95,1.51-6.12,2.27a4,4,0,0,1-5-4.11l-4.5,3.88c.38-.75-.41-1.66-1.24-1.73a3.89,3.89,0,0,0-2.32.83l-7.76,4.87c-1-1.53-.17-3.54-.18-5.37s-2.22-3.86-3.39-2.46l0-4.36c0-.71-.08-1.54-.69-1.9s-1.47.05-2.1.49a56.75,56.75,0,0,0-6.25,5l-.77-2a17.3,17.3,0,0,0-4,3.46l-1.11-3.59-2.76,1.8A40.76,40.76,0,0,1,47,149.12"/><path d="M59.53,24.16c5.23-1.85,10.61-3.75,16.23-3.83s11,1.77,16.38,3.08S103.08,25.64,108,28c2.49,1.16,4.69,2.61,5.47,5.39a56,56,0,0,0,2,6.71,28.39,28.39,0,0,0,8.09,10.78,57.66,57.66,0,0,1,5.62,4.85,28.93,28.93,0,0,1,4.1,5.67,50.19,50.19,0,0,1,4.86,13.44,112.18,112.18,0,0,1,2.42,16.31c.24,3.17.35,6.35.33,9.52s.12,6.64-1.56,9.57a73.5,73.5,0,0,0-3.94,7.38,47.85,47.85,0,0,0-2.61,8l.46-.06-1.12-1.77c-.11-.17-.42-.16-.46.06l-2,11.13.49.07a29,29,0,0,0-1.17-12,.25.25,0,0,0-.45-.06,17.91,17.91,0,0,0-2.54,6.41l.5.07a28.68,28.68,0,0,1,.47-10,.25.25,0,0,0-.45-.19,131.62,131.62,0,0,0-6.72,13.11c-1.8,4.07-3.91,8.43-4.55,12.88a14.52,14.52,0,0,0,.82,6.5c.72,2.48-.84,5.15-1.7,7.43l-2.75,7.27c-.42,1.12-.77,2.32-1.28,3.4-.39.83-.62,1.15-1.53.77-.35-.15-.67-.39-1-.57-1.59-.89-2.53-.49-3.63.91a49,49,0,0,0-4.33,6.6l.34-.09c-1.86-.95-3.5.63-5,1.58a3.69,3.69,0,0,1-4,.36,3.65,3.65,0,0,1-2-3.56c0-.24-.28-.31-.43-.18l-4.49,3.88.41.24a1.46,1.46,0,0,0-.63-1.72,2.46,2.46,0,0,0-2.57.12c-1.38.69-2.68,1.65-4,2.48l-4.49,2.82.34.09c-1.23-2.25.71-4.88-.75-7-.72-1.09-2.14-1.92-3.22-.84l.43.18a40.48,40.48,0,0,0-.07-5.05c-.13-.91-.62-1.66-1.63-1.6-1.37.09-2.82,1.59-3.83,2.37q-2.05,1.59-4,3.35l.42.11-.76-2a.26.26,0,0,0-.37-.15,18.55,18.55,0,0,0-4,3.51l.42.11L54.92,173a.25.25,0,0,0-.37-.15l-2.75,1.8.34.09a40.83,40.83,0,0,1-4.87-25.57c0-.31-.43-.45-.48-.13A41.32,41.32,0,0,0,51.71,175a.26.26,0,0,0,.34.09l2.76-1.8-.37-.15,1.11,3.6a.25.25,0,0,0,.42.11,18.39,18.39,0,0,1,3.93-3.43l-.37-.15.76,2a.26.26,0,0,0,.42.11,56.14,56.14,0,0,1,5.84-4.73c.62-.43,1.81-1.43,2.52-.43a3.33,3.33,0,0,1,.26,1.85l0,3.88a.25.25,0,0,0,.42.18c.9-.9,2,0,2.52.86a3.83,3.83,0,0,1,.37,2.62c-.17,1.5-.46,2.91.3,4.3a.25.25,0,0,0,.34.09l4.9-3.08,2.45-1.54c.31-.19.62-.4,1-.58.7-.37,3.25-1,2.65.94-.08.25.24.4.42.24l4.49-3.87-.42-.18a4.26,4.26,0,0,0,3.62,4.49,4.5,4.5,0,0,0,3.08-.86c1.28-.81,2.88-2.4,4.5-1.58a.26.26,0,0,0,.34-.09,49.08,49.08,0,0,1,3.87-6c.87-1.14,1.64-2.25,3.16-1.47a9.13,9.13,0,0,0,1.78.93c1.63.43,1.82-1.52,2.24-2.65l2.66-7c.86-2.28,1.92-4.56,2.57-6.9.62-2.19-.51-3.86-.84-6-.73-4.78,1.87-9.9,3.69-14.19a131.57,131.57,0,0,1,7.54-15l-.46-.19A29.17,29.17,0,0,0,126,129.5c0,.25.43.37.49.06a17.48,17.48,0,0,1,2.48-6.29l-.46-.06A28.67,28.67,0,0,1,129.67,135c0,.28.45.34.5.07l2-11.14-.45.06,1.11,1.77a.26.26,0,0,0,.46-.06,52.17,52.17,0,0,1,6.28-14.9,13.64,13.64,0,0,0,1.78-7q.15-4.4,0-8.79a118.18,118.18,0,0,0-2-17.29,61.6,61.6,0,0,0-4.05-13.61,30.66,30.66,0,0,0-8.29-11.22A58,58,0,0,1,121,47.76a27.76,27.76,0,0,1-4.32-6.25,31.24,31.24,0,0,1-2.46-7.24,7.86,7.86,0,0,0-3.36-5.3c-4.32-2.94-9.82-3.87-14.8-5.1l-9.5-2.35a50.41,50.41,0,0,0-8.94-1.64c-6.31-.39-12.38,1.73-18.24,3.8-.3.11-.17.59.14.48Z"/><path class="cls-1" d="M60.18,24.11c-9,9.28-14.18,21.57-19.12,33.54-1.11,2.69-2.25,5.57-1.73,8.43.27,1.5,1,3,.8,4.46A8.61,8.61,0,0,1,39,73.36,32.09,32.09,0,0,0,35.86,92a64,64,0,0,0,3.08,11.66c1.08,3.27,2.23,6.64,4.51,9.23a28.77,28.77,0,0,1,2.91,3.25A12.08,12.08,0,0,1,47.83,120a49.14,49.14,0,0,1,.36,20.7c-1,5-2.72,10.5-.29,15a24.68,24.68,0,0,1,4.92-10.87,17.65,17.65,0,0,0,.83,8.31A65.84,65.84,0,0,0,61,141.39a51.68,51.68,0,0,0,3.8,10.22l3.57-7.78L72,147.59a1.67,1.67,0,0,0,2.83.08l4.6-4A63.89,63.89,0,0,0,89.91,160.3a80.34,80.34,0,0,0,4.47-31.2,67.37,67.37,0,0,0,7.87,11.1l2.74-1.8a7.63,7.63,0,0,0,3.22,4.33,26.83,26.83,0,0,0,2.37-8.87,8,8,0,0,0,6.9,3.17,56.71,56.71,0,0,0-5.42-16l8.34.67a23.89,23.89,0,0,1-4.63-8.33l3.37-2.4a30.08,30.08,0,0,0-7.44-10.44"/><path class="cls-2" d="M60,23.93C53.76,30.4,49.32,38.28,45.61,46.4q-2.78,6.06-5.23,12.25a14.67,14.67,0,0,0-1.37,7,22,22,0,0,0,.65,2.75A5.91,5.91,0,0,1,39,72.85a33.72,33.72,0,0,0-3.59,12.61,37.77,37.77,0,0,0,1.84,13.83c1.25,4.16,2.44,8.8,4.95,12.42,1.26,1.81,3.21,3.12,4.24,5.08A22.63,22.63,0,0,1,48.34,124a49.7,49.7,0,0,1-.61,17.66c-1,4.64-2.34,9.67,0,14.14a.26.26,0,0,0,.46-.06A25.08,25.08,0,0,1,53,145l-.43-.18a18.76,18.76,0,0,0,.83,8.38c.06.15.3.27.42.11a68.12,68.12,0,0,0,7.37-11.82l-.46-.06a53.58,53.58,0,0,0,3.82,10.28.25.25,0,0,0,.43,0L68.56,144l-.39.05c1.11,1.14,2.22,2.29,3.34,3.43.6.61,1.24,1.37,2.19,1.2s1.74-1.15,2.39-1.72l3.54-3.1-.4-.05a65.51,65.51,0,0,0,10.5,16.72.26.26,0,0,0,.42-.11,81.49,81.49,0,0,0,4.48-31.27l-.47.13a69.65,69.65,0,0,0,7.92,11.14.24.24,0,0,0,.3,0l2.73-1.79-.36-.15a8.19,8.19,0,0,0,3.33,4.48.26.26,0,0,0,.35-.09,28.45,28.45,0,0,0,2.4-9l-.42.17a8.31,8.31,0,0,0,7.07,3.25.26.26,0,0,0,.24-.32,58.67,58.67,0,0,0-5.44-16l-.22.38,8.34.67c.23,0,.3-.28.17-.43a25,25,0,0,1-3.45-5.36c-.36-.78-1.33-2.25-.67-3a18.84,18.84,0,0,1,2.81-2,.25.25,0,0,0,.09-.34,30.79,30.79,0,0,0-7.48-10.48c-.23-.22-.59.13-.35.35a30.5,30.5,0,0,1,7.4,10.39l.09-.35-3.37,2.41a.26.26,0,0,0-.12.28,25.41,25.41,0,0,0,4.7,8.44l.18-.43-8.34-.67c-.2,0-.3.22-.22.38a57.62,57.62,0,0,1,5.4,15.89l.24-.31a7.89,7.89,0,0,1-6.72-3.1c-.15-.19-.41,0-.43.18a27.42,27.42,0,0,1-2.34,8.75l.35-.09a7.67,7.67,0,0,1-3.11-4.18.26.26,0,0,0-.37-.15l-1.76,1.15c-.69.45-.87.45-1.41-.18q-1.45-1.71-2.77-3.52A66.75,66.75,0,0,1,94.59,129a.25.25,0,0,0-.46.13,81,81,0,0,1-4.47,31.14l.42-.11a64.81,64.81,0,0,1-10.41-16.62c-.07-.16-.29-.14-.4,0l-2.47,2.17a18.5,18.5,0,0,1-2.38,2.06c-1.56.92-2.62-.68-3.56-1.64l-2.34-2.4a.25.25,0,0,0-.39,0l-3.58,7.78H65a52.77,52.77,0,0,1-3.76-10.16.25.25,0,0,0-.46-.06A67,67,0,0,1,53.47,153l.42.11a18.14,18.14,0,0,1-.82-8.24.26.26,0,0,0-.43-.18,25.63,25.63,0,0,0-5,11l.45-.06c-2.28-4.48-.77-9.56.19-14.18a50.11,50.11,0,0,0,.91-14.14,48.14,48.14,0,0,0-1-6.86,11.83,11.83,0,0,0-2.35-5.4,30.39,30.39,0,0,1-4-5,36.74,36.74,0,0,1-2.61-6.48c-1.54-4.62-3.07-9.3-3.3-14.2A31.92,31.92,0,0,1,38.2,75.8c.78-1.93,2.32-3.9,2.2-6.07a13.84,13.84,0,0,0-.59-2.7,9.62,9.62,0,0,1-.18-4.27A33.26,33.26,0,0,1,42,56.15q1.32-3.21,2.7-6.39c4-9.18,8.69-18.21,15.71-25.47.22-.24-.13-.59-.36-.36Z"/><path class="cls-1" d="M205.14,101.93c.15-1.36,2-1.91,3.25-1.26a6.41,6.41,0,0,1,2.42,3.22,30.45,30.45,0,0,1,3.5-4.94c.27-.32.63-.66,1-.59s.66.54.82,1l1.74,4.64c.62-1.27,2.63-.78,3.58.27s1.59,2.51,2.91,3a3.55,3.55,0,0,1,3.69.14,5.94,5.94,0,0,1,2.35,5.73,17.5,17.5,0,0,1-2.29,6.08l-1.65,3.13c-.47.9-1.26,2-2.24,1.67a2.13,2.13,0,0,1-1-.8,10.1,10.1,0,0,1-1.91-4.34,24.78,24.78,0,0,0-3.84,6,5.14,5.14,0,0,1-2.84-3.85,15.53,15.53,0,0,1,.11-5l-2.68,5c-.52,1-1.32,2.12-2.43,2-1.48-.19-1.63-2.27-1.37-3.74l.91-5.18-1.2.9a7.29,7.29,0,0,1-1.14-5.82,9.19,9.19,0,0,0,.57-2.8c-.09-1.47-1.25-2.62-2.33-3.62"/><path class="cls-2" d="M205.38,102c.31-1.47,2.13-1.63,3.2-.91a6.73,6.73,0,0,1,2,2.94.25.25,0,0,0,.43,0,29.94,29.94,0,0,1,3.31-4.73c1.21-1.38,1.89.9,2.2,1.72l1.13,3a.25.25,0,0,0,.45.06c1.11-1.79,3.2.29,3.93,1.27.49.66,1.3,2,2.22,2.12.34,0,.56-.19.89-.29a3.51,3.51,0,0,1,3.05.6,5.42,5.42,0,0,1,2,4c.26,3.14-1.59,6-3,8.71-.6,1.13-1.93,4.55-3.56,2.84a9.17,9.17,0,0,1-2.06-4.49.24.24,0,0,0-.41-.11,26,26,0,0,0-3.88,6l.34-.09c-3.32-1.52-3-5.55-2.61-8.58,0-.25-.35-.34-.46-.13l-2.12,4c-.3.55-.57,1.13-.91,1.65-.55.84-1.81,1.91-2.68.73-.67-.9-.41-2.35-.24-3.36.26-1.57.55-3.14.83-4.71,0-.19-.18-.43-.37-.28l-1.19.9.34.09A7.43,7.43,0,0,1,207,111c0-1.35.51-2.48.7-3.78.3-2-1-3.38-2.35-4.63-.24-.22-.59.13-.36.35a6.79,6.79,0,0,1,2.14,2.79c.41,1.35-.35,2.67-.55,4a7.71,7.71,0,0,0,1.28,5.42.26.26,0,0,0,.34.09l1.19-.9-.36-.28a47.07,47.07,0,0,0-1,6.12c0,1,.1,2.38,1.1,2.92s2.1-.18,2.72-1a46.39,46.39,0,0,0,3.23-5.92l-.47-.12c-.42,3.2-.63,7.41,2.86,9a.26.26,0,0,0,.34-.09,25.69,25.69,0,0,1,3.8-5.91l-.42-.11c.43,2.14,2.75,7.72,5.24,4.13a38.29,38.29,0,0,0,3.18-6.09,10.45,10.45,0,0,0,1.13-5.59,5.8,5.8,0,0,0-2.12-4,4.19,4.19,0,0,0-1.92-.8,3.57,3.57,0,0,0-1.22,0c-.35.06-.84.37-1.2.28-.89-.22-1.57-1.62-2.09-2.28a4,4,0,0,0-1.72-1.41,2.06,2.06,0,0,0-2.71.63l.46.06c-.58-1.54-1.09-3.13-1.74-4.64-.27-.61-.6-1.26-1.39-1.12s-1.54,1.41-2,2a31.37,31.37,0,0,0-2.42,3.63H211c-.68-1.47-1.61-3.37-3.42-3.6a2.35,2.35,0,0,0-2.71,1.69c-.06.32.42.45.48.13Z"/><path class="cls-3" d="M201.33,101.4c-2.06-8.74-4.41-18-10.94-24.18a1.7,1.7,0,0,0-1.07-.59,1.79,1.79,0,0,0-1,.46L180,83.17c1.62,3.53,4.76,6.07,7.8,8.47l12.75,10.09"/><path class="cls-2" d="M201.57,101.33c-1.52-6.46-3.13-13.12-6.64-18.84a27.55,27.55,0,0,0-2.75-3.77c-.66-.75-1.72-2.32-2.86-2.34a2.74,2.74,0,0,0-1.57.78c-.93.67-1.84,1.35-2.76,2L179.86,83a.24.24,0,0,0-.09.34c1.82,3.81,5.18,6.42,8.42,9l12.16,9.63c.25.19.6-.16.35-.36l-11.77-9.32C185.6,89.6,182.07,87,180.2,83l-.09.35,4.54-3.33,2.17-1.6c.71-.52,2-1.88,3-1.43a6.9,6.9,0,0,1,1.67,1.61A23.08,23.08,0,0,1,193,80.52a29,29,0,0,1,2.37,3.73c2.9,5.35,4.34,11.34,5.73,17.22a.25.25,0,0,0,.48-.14Z"/><path class="cls-3" d="M181.09,86.33a16.57,16.57,0,0,0-14,14.13,11.39,11.39,0,0,1,7.64.1,30.39,30.39,0,0,1,6.86,3.66,2.68,2.68,0,0,0,3.15.29l10.11-3.83a3.2,3.2,0,0,1,1.91-.3"/><path class="cls-2" d="M181,86.09a16.89,16.89,0,0,0-14.13,14.37.25.25,0,0,0,.32.24,11.57,11.57,0,0,1,7.91.25c2.52.91,4.56,2.5,6.86,3.78a2.84,2.84,0,0,0,2.43.19c1.32-.4,2.61-1,3.89-1.47l3.91-1.48c1.33-.51,3.08-1.56,4.54-1.35.31,0,.45-.43.13-.48a5.76,5.76,0,0,0-3,.65l-4.13,1.56-4.14,1.57c-1,.4-2.1,1-3.25.47a11.68,11.68,0,0,1-1.53-1c-4.07-2.62-8.91-4.94-13.78-3.19l.31.24a16.39,16.39,0,0,1,13.76-13.89c.32,0,.19-.53-.13-.48Z"/><path class="cls-3" d="M223.28,145.2c-2,2.47-1.77,6.13-.59,9.08s3.17,5.54,4.47,8.44a39.93,39.93,0,0,1,2.18,6.94l1.94,7.78c5.42-2.61,8.67-8.17,11.6-13.43,1.18-2.11,2.39-4.37,2.28-6.79-.16-3.37-2.8-6-5.27-8.32"/><path class="cls-2" d="M223.07,145.07c-3.36,4.38-.57,9.88,1.82,14a35,35,0,0,1,3.71,8.72c.86,3.24,1.63,6.51,2.44,9.76a.26.26,0,0,0,.37.15c5.49-2.72,8.71-8.17,11.59-13.34,1.45-2.59,2.95-5.43,2.2-8.48s-3-5.13-5.13-7.1c-.24-.22-.59.13-.36.35,2.1,2,4.43,4.15,5.06,7.07.7,3.22-1.25,6.24-2.77,8.92-2.69,4.76-5.78,9.64-10.84,12.15l.37.15c-1.4-5.59-2.33-11.62-5.13-16.71-2.44-4.45-6.7-10.38-2.9-15.34.2-.25-.24-.5-.43-.25Z"/><path class="cls-3" d="M240.33,147.88a13.88,13.88,0,0,0,6.15.18,26.68,26.68,0,0,0,3.34-21.31c-.39-1.43-1-3-2.35-3.6a5.75,5.75,0,0,0-2.14-.42l-13.47-.92a3,3,0,0,0-1.49.16,1,1,0,0,0-.58,1.23"/><path class="cls-2" d="M240.27,148.13a14.86,14.86,0,0,0,5.4.32c.82-.12.93-.11,1.35-.78a26.37,26.37,0,0,0,1.46-2.72A27,27,0,0,0,251,134.69c.13-3.22-.07-7.31-1.74-10.16a3.94,3.94,0,0,0-3.22-2c-2.21-.25-4.45-.32-6.67-.47-2.48-.17-5-.39-7.46-.51-1.12,0-2.63.25-2.32,1.71.07.31.56.18.49-.13-.35-1.61,3-1,3.76-1l3.12.22,6.5.44c2.26.15,4.5.06,5.61,2.39a17.58,17.58,0,0,1,1.31,5.54,26.69,26.69,0,0,1-1.12,10.91,25.41,25.41,0,0,1-2.3,5.2,1.79,1.79,0,0,1-1.75,1.11,11.67,11.67,0,0,1-1.32.07,14.73,14.73,0,0,1-3.44-.43c-.31-.07-.45.41-.13.49Z"/><path class="cls-3" d="M215.11,133.62a69.82,69.82,0,0,1,18.29,30.21l7.4-17.23a33.66,33.66,0,0,0,2-5.49c.86-3.58.53-7.32.2-11a56.26,56.26,0,0,0-14.4-4.71,3.52,3.52,0,0,0-1.29-.06,3.08,3.08,0,0,0-1.43.87c-1.91,1.77-3.63,4.22-6.22,4.42a8,8,0,0,0-1.84.15c-.59.18-1.13.79-.93,1.38"/><path class="cls-2" d="M214.93,133.8a70.09,70.09,0,0,1,18.23,30.1c.05.18.36.27.45.06l6.24-14.51c1.84-4.29,3.67-8.35,3.73-13.11,0-1.16,0-2.31-.11-3.46l-.15-1.84c0-.31.05-.81-.14-1.07s-.66-.35-.9-.46l-1.68-.75q-1.51-.64-3.06-1.2a56.56,56.56,0,0,0-7.08-2c-1.84-.39-3.27-.83-4.77.51-1.68,1.51-3.11,3.68-5.42,4.25-1.25.31-3.92-.18-3.63,2,0,.31.52.18.48-.14-.08-.56.66-1,1.06-1.08a5.89,5.89,0,0,1,1-.11,9.15,9.15,0,0,0,1-.1,5.44,5.44,0,0,0,1.93-.83,21.65,21.65,0,0,0,3.24-3c.92-.92,1.72-1.58,3.12-1.36,1.06.16,2.11.41,3.15.67a55.79,55.79,0,0,1,6,1.79q1.59.58,3.15,1.26c1,.45,2,.64,2.07,1.89a44.41,44.41,0,0,1,.21,6.21c-.24,4.45-2.2,8.37-3.93,12.4l-5.94,13.83.46.06a70.56,70.56,0,0,0-18.36-30.33.25.25,0,0,0-.35.36Z"/><path class="cls-2" d="M100.27,111.29c-1.36-6.65-8-10.4-14.33-10.79a33.15,33.15,0,0,0-12,1.84c-3.26,1-6.57,2.58-8.56,5.49a8.41,8.41,0,0,0-1.55,5c.1,2.2,1.47,4.13,1.22,6.36,0,.22.29.32.43.18A20,20,0,0,1,81,113.53c2.89.2,5.51,1.4,8.4.44a29,29,0,0,1,9.74-2,.25.25,0,0,0,0-.5,26.7,26.7,0,0,0-9.47,1.87,10,10,0,0,1-5.87.1,20.19,20.19,0,0,0-4-.46,20.53,20.53,0,0,0-14.7,6l.43.18c.23-2.12-1-3.92-1.19-6a8.12,8.12,0,0,1,2.26-6.14c3-3.34,8-4.65,12.29-5.5,4.54-.91,9.5-1,13.73,1.16a12.88,12.88,0,0,1,7.11,8.7c.06.32.54.18.48-.13Z"/><path class="cls-4" d="M65.51,109a10.26,10.26,0,0,0,2.27,3.79A6.36,6.36,0,0,0,69,108.86a2.4,2.4,0,0,0,2.39-.7,8,8,0,0,1,2-1.64c1-.42,2.26-.1,3.28-.56.57-.26,1.09-.78,1.72-.71s.94.5,1.43.7c1.81.71,4-2.06,5.5-.85a3.4,3.4,0,0,1,.81,2.19c.14.78.6,1.69,1.4,1.69,1,0,1.33-1.23,1.47-2.18s.74-2.16,1.68-1.92c.57.14,1.19.81,1.6.38a1.22,1.22,0,0,0-.36-1.7,3.56,3.56,0,0,0-1.88-.45C88.39,103,86.68,103,85,103a10.07,10.07,0,0,0-2.85.26c-.92.26-1.75.75-2.66,1a10.7,10.7,0,0,1-4.77-.15l6.7-1.46c2.5-.55,5.39-1,7.36.62-3.1-.89-6.29,1.17-9.51,1.08-1,0-2-.26-2.93-.35a11.13,11.13,0,0,0-10.69,5.77"/><path d="M68.21,85.35a5,5,0,0,0-2.81,5.17c1.08,0,1.51-1.78,2.59-1.74.49,0,.87.43,1.22.78A9,9,0,0,0,73.56,92a1.72,1.72,0,0,0,.9,0c1-.32.76-1.75,1.08-2.74a2.17,2.17,0,0,1,3.12-1.06,8.22,8.22,0,0,0,1.07.82c1.08.5,2.24-.47,3-1.36a2.06,2.06,0,0,0,.73-1.61,1.82,1.82,0,0,0-.78-1A11.5,11.5,0,0,0,75.87,83a34.32,34.32,0,0,0-7.19.94"/><path d="M67.83,74c-.9-1.76-3.35-2.8-5-1.64A14.78,14.78,0,0,1,61.5,73.5c-.53.28-1.34.2-1.54-.36l-3.19,3.78a3.54,3.54,0,0,1-2.28,1.55l1,1.11L53.21,81.4c-.13.1-.28.25-.23.41s.24.21.39.28a1.17,1.17,0,0,1,.51,1.36A3.31,3.31,0,0,1,53,84.77a1.51,1.51,0,0,1,1.68.22,4.63,4.63,0,0,0,1.53.92c1.57.33,2.62-1.84,4.21-2.08a9.89,9.89,0,0,1,1.09,0,4.94,4.94,0,0,0,3.6-2,14.38,14.38,0,0,0,2-3.73l.79,1.66A8,8,0,0,0,67.83,74Zm-2,5.24-1.17,1.09a4.54,4.54,0,0,1-2.06,1.33,1.55,1.55,0,0,1-1.89-1.13,1.85,1.85,0,0,1,1.19-1.64,8.69,8.69,0,0,0,1.93-1c.37-.31.69-.77,1.18-.79C65.86,77.12,66,78.38,65.81,79.24Z"/><path d="M103.21,74c-.13-.68-1.46-.79-1.28-1.46.06-.22.28-.34.42-.53.33-.45.05-1.11-.34-1.51a4.54,4.54,0,0,1-1.12-1.24c-.18-.39-.19-.89-.51-1.18a1.47,1.47,0,0,0-1-.24,17.9,17.9,0,0,0-4.37.59,3,3,0,0,1-2.05.09,10.45,10.45,0,0,1-.87-.61c-1.08-.66-2.51,0-3.47.8a11.56,11.56,0,0,1-2.91,2.43,1.09,1.09,0,0,1-.77.08c-.54-.21-.58-1-1.09-1.31s-1.25.35-1.61.94l-1.61,2.65a7.37,7.37,0,0,0-1,2.28,2.52,2.52,0,0,0,.6,2.35,1.54,1.54,0,0,0,2.22-.1l.31-.25a9.53,9.53,0,0,0,4.64,2.31,9.2,9.2,0,0,0,2.5-.21,19.42,19.42,0,0,0,4.58-1.19,3.85,3.85,0,0,1,1.3-.44,6.87,6.87,0,0,1,1.54.21c2.34.33,4.23-1.8,5.63-3.71A1,1,0,0,0,103.21,74Zm-10.34.33a2.05,2.05,0,0,1-1,2.69,5.71,5.71,0,0,1-3.18.3A2.5,2.5,0,0,1,87.57,77a1.69,1.69,0,0,1-.38-2.23,3.9,3.9,0,0,1,2-1.49c1.8-.78,4.17-1,5.5.4Z"/><image width="1069" height="1069" transform="translate(0.02 -0.28) scale(0.24)" xlink:href="frugal-wookie.png"/></svg>