<svg xmlns="http://www.w3.org/2000/svg"><symbol id="home" viewBox="0 0 105.3 104"><path fill="#8b5e3c" d="M105.3 42.79L52.65 0 0 42.79h13.16V104h12.89V71.44h16V104h50.32V42.79h12.93z"/></symbol><symbol id="star-trek-icon" viewBox="0 0 84.1 120.01"><path fill="#009444" d="M1.11 120c.32-6.11.43-11.52.92-16.9C4 81.42 7.76 60.06 15 39.44c4.08-11.69 8.7-23.29 17.7-32.2 9.7-9.65 11.14-9.46 21.3-.59 8.69 7.63 13.63 17.89 17.75 28.47 8.81 22.68 12.51 46.36 13.51 70.55 0 .52 0 1-.07 1.52-5.26 1.18-5.41 1.06-6.6-3.62a79.59 79.59 0 0 0-11.27-25.9 9.88 9.88 0 0 0-.74-1c-5.07-5.93-4.69-5.77-11.2-3.22-14.75 5.78-26.46 15.86-36.54 27.76-4.28 5-7.6 11-10.88 16.79-1.82 3.08-4.18.93-6.85 2zM43.55 12.94H43c-1.71 8.53-3.51 17.05-5.08 25.6-.42 2.28-1.13 3.37-3.64 3.14s-5.21-.06-7.81-.06l-.17.66 10.85 5.52L32 58.27l.32.17 11-11.27L54 58.68l.56-.39c-1.7-3.46-3.41-6.92-5.17-10.49l10.84-5.63-.23-.69H49.31z"/></symbol><symbol id="shopping-cart" viewBox="0 0 104.56 85.95"><circle cx="11.44" cy="11.44" r="11.44" fill="#8b5e3c"/><path fill="#8b5e3c" d="M14.51 31.54l18.23 26.88H98.6l5.96-32-90.05 5.12z"/><ellipse cx="49.86" cy="80" fill="#8b5e3c" rx="7.07" ry="5.95"/><ellipse cx="81.49" cy="80" fill="#8b5e3c" rx="7.07" ry="5.95"/></symbol><symbol id="battle-star-galactica-selected" viewBox="0 0 83.6 112.8"><path fill="none" stroke="#009444" stroke-miterlimit="10" stroke-width="2" d="M31.45 15A39.94 39.94 0 0 0 8.82 39.26M54.37 15A39.94 39.94 0 0 1 77 39.26M32.5 75.62h21.14m-22.71 4.62h24.3m-25.91 5.91h27.22m-29.35 5.96l30.73.01m-31.55 5.77h32.9m-34.26 6.2h35.56"/><path fill="#009444" d="M84.71 60.54V47.3A4.71 4.71 0 0 0 80 42.59H49.52L53 4.62A4.24 4.24 0 0 0 48.74 0H37.08a4.24 4.24 0 0 0-4.22 4.62l3.44 38H5.82a4.71 4.71 0 0 0-4.71 4.68v13.24a4.71 4.71 0 0 0 4.71 4.71h9.56L1.11 112.8H20.2l11.25-41.92 11.46-1.63 11.46 1.63 11.25 41.92h19.09L70.44 65.25H80a4.71 4.71 0 0 0 4.71-4.71zm-15.46-3H18.4a3.85 3.85 0 0 1 0-7.69h50.85a3.85 3.85 0 0 1 0 7.69z"/><path fill="none" stroke="#009444" stroke-miterlimit="10" stroke-width="2" d="M79.6 66.98v25.14M6.28 66.98v25.14"/><circle cx="30.13" cy="53.97" r="1.97" fill="none" stroke="#009444" stroke-miterlimit="10" stroke-width="3"/></symbol><symbol id="forward-arrow" viewBox="0 0 87.58 51.86"><path fill="#009444" d="M1.11 23h79.21v13.63H1.11z"/><path fill="#009444" d="M56.77 0l31.92 29.82-31.92 22.04V0z"/></symbol><symbol id="star-trek" viewBox="0 0 84.1 120.01"><path fill="#009444" d="M1.11 120c.32-6.11.43-11.52.92-16.9C4 81.42 7.76 60.06 15 39.44c4.08-11.69 8.7-23.29 17.7-32.2 9.7-9.65 11.14-9.46 21.3-.59 8.69 7.63 13.63 17.89 17.75 28.47 8.81 22.68 12.51 46.36 13.51 70.55 0 .52 0 1-.07 1.52-5.26 1.18-5.41 1.06-6.6-3.62a79.59 79.59 0 0 0-11.27-25.9 9.88 9.88 0 0 0-.74-1c-5.07-5.93-4.69-5.77-11.2-3.22-14.75 5.78-26.46 15.86-36.54 27.76-4.28 5-7.6 11-10.88 16.79-1.82 3.08-4.18.93-6.85 2zM43.55 12.94H43c-1.71 8.53-3.51 17.05-5.08 25.6-.42 2.28-1.13 3.37-3.64 3.14s-5.21-.06-7.81-.06l-.17.66 10.85 5.52L32 58.27l.32.17 11-11.27L54 58.68l.56-.39c-1.7-3.46-3.41-6.92-5.17-10.49l10.84-5.63-.23-.69H49.31z"/></symbol><symbol id="forward-arrow-2" viewBox="0 0 87.58 51.86"><path fill="#8b5e3c" d="M0 23h79.21v13.63H0z"/><path fill="#8b5e3c" d="M55.66 0l31.92 29.82-31.92 22.04V0z"/></symbol><symbol id="selected-starwars" viewBox="0 0 107.25 108.11"><path fill="#98d1ab" d="M53.79 0c5.26.51 10.68.4 15.75 1.67 13 3.25 21.94 15 22.55 28.5a12.22 12.22 0 0 1 0 1.71c-.89 9 1 17.38 4.67 25.63s6.39 16.77 9.8 25.07c1.13 2.76.87 5-1.12 6.91a54.45 54.45 0 0 1-9.08 7.37c-15.85 9.29-33.11 12.52-51.36 10.82-12-1.11-23.43-4.35-33.82-10.58A59.59 59.59 0 0 1 2 89.84c-2.22-2-2.55-4.46-1.32-7.53C5.5 70.43 10 58.44 14.53 46.47a12.22 12.22 0 0 0 .54-3.58c.34-6.35-.09-12.85 1.1-19C18.75 10.51 31.54.59 45.16.48h8.58zM39.92 33c-6 0-10.83 1.52-13.92 5.19a38.47 38.47 0 0 0-6.19 9.87C15 59.75 10.54 71.59 5.94 83.37c-.53 1.36-1 2.83.81 3.48s2.39-.85 2.91-2.18c1.33-3.42 2.63-6.85 4-10.27 3.59-9.1 7-18.28 10.83-27.29C29.36 35.55 40.6 35 48 39.58c3.91 2.43 7.15 2.47 11.08 0 8-5 17.25-3 21.92 4.47A48.52 48.52 0 0 1 84.81 52c4.32 10.92 8.54 21.88 12.8 32.83.54 1.38 1.25 2.71 3 1.93s1.15-2.1.65-3.37c-1.76-4.54-3.51-9.1-5.26-13.65-3.21-8.12-6.25-16.31-9.71-24.31-5.91-13.68-19.95-15.18-29.81-8.81a4.52 4.52 0 0 1-5.62 0A21.13 21.13 0 0 0 39.92 33zm-1.63 25.18H43c7 0 7.08-.12 6.89-7.13a7.73 7.73 0 0 0-3.08-6.39c-5.88-4.24-18.71-1.57-19.94 8-.47 3.68.85 5.4 4.6 5.49 2.24.07 4.53.03 6.82.03zM68.65 58v.13c2.62 0 5.24.11 7.85 0 3-.15 4.34-2 4-4.94-.79-6-5.53-10.08-12-10.43s-11.68 2.47-11 10.48a8 8 0 0 1 0 1.47c-.23 2.21.92 3.24 3 3.3 2.59.08 5.37-.01 8.15-.01zm-9.37 15.48c0-2.4.16-4.53 0-6.62A5.61 5.61 0 0 0 53.72 62c-2.65-.06-5.35 1.85-5.67 4.45a57.43 57.43 0 0 0-.05 7.03zm-7.62 19.26V77.5H46.1v15.24zm4-15.25v15.17h5.5V77.49zM41.91 81.8c-5 2.46-3.64 6.8-3.62 10.83h3.62zm26.88 11c.87-6.9.36-8.48-3.45-10.84v10.79zm-41.25-.9c.19 2.61 1.16 3.77 3 3.77a2.61 2.61 0 0 0 2.81-2.77c0-1.86-1.06-3.13-2.82-2.89-1.2.16-2.22 1.37-2.99 1.89zm52.12 0c-.76-.53-1.78-1.74-3-1.9-1.76-.25-2.87 1-2.83 2.89a2.62 2.62 0 0 0 2.81 2.77c1.86.01 2.83-1.14 3.02-3.75z"/></symbol><symbol id="starwars" viewBox="0 0 107.25 108.11"><path fill="#009444" d="M54.9 0c5.26.51 10.68.4 15.75 1.67 13 3.25 21.94 15 22.55 28.5a12.22 12.22 0 0 1 0 1.71c-.89 9 1 17.38 4.67 25.63s6.39 16.77 9.8 25.07c1.13 2.76.87 5-1.12 6.91a54.38 54.38 0 0 1-9.07 7.37c-15.88 9.29-33.14 12.52-51.37 10.82-12-1.11-23.43-4.35-33.82-10.58a59.59 59.59 0 0 1-9.17-7.26c-2.22-2-2.55-4.46-1.32-7.53 4.79-11.88 9.29-23.87 13.83-35.84a12.56 12.56 0 0 0 .53-3.58c.34-6.35-.09-12.85 1.1-19C19.86 10.51 32.65.59 46.27.48h8.58zM41 33c-6 0-10.84 1.52-13.93 5.19a38.47 38.47 0 0 0-6.19 9.87c-4.8 11.69-9.23 23.53-13.83 35.31-.53 1.36-1 2.83.81 3.48s2.39-.85 2.91-2.18c1.33-3.42 2.63-6.85 4-10.27 3.59-9.1 7-18.28 10.83-27.29C30.47 35.55 41.71 35 49.15 39.58c3.91 2.43 7.15 2.47 11.08 0 8-5 17.25-3 21.92 4.47A48.52 48.52 0 0 1 85.92 52c4.32 10.92 8.54 21.88 12.8 32.83.54 1.38 1.25 2.71 3 1.93s1.15-2.1.65-3.37c-1.78-4.56-3.53-9.12-5.33-13.67-3.21-8.12-6.25-16.31-9.7-24.31-5.91-13.68-20-15.18-29.82-8.81a4.52 4.52 0 0 1-5.62 0A21.12 21.12 0 0 0 41 33zm-1.6 25.18h4.66c7 0 7.09-.12 6.89-7.13a7.73 7.73 0 0 0-3.08-6.39c-5.88-4.24-18.71-1.57-19.94 8-.47 3.68.85 5.4 4.6 5.49 2.29.07 4.58.03 6.87.03zM69.76 58v.13c2.62 0 5.24.11 7.85 0 3-.15 4.34-2 4-4.94-.79-6-5.53-10.08-12-10.43s-11.68 2.47-11 10.48a8 8 0 0 1 0 1.47c-.23 2.21.92 3.24 3 3.3 2.59.08 5.39-.01 8.15-.01zm-9.37 15.48c0-2.4.17-4.53 0-6.62A5.61 5.61 0 0 0 54.83 62c-2.65-.06-5.35 1.85-5.67 4.45a57.43 57.43 0 0 0-.06 7.08zm-7.62 19.26V77.5h-5.56v15.24zm4-15.25v15.17h5.5V77.49zM43 81.8c-5 2.46-3.64 6.8-3.62 10.83H43zm26.88 11c.88-6.9.36-8.48-3.45-10.84v10.79zm-41.23-.9c.19 2.61 1.16 3.77 3 3.77a2.61 2.61 0 0 0 2.81-2.77c0-1.86-1.06-3.13-2.82-2.89-1.2.16-2.22 1.37-2.99 1.89zm52.12 0c-.76-.53-1.78-1.74-3-1.9-1.71-.24-2.77 1-2.77 2.9a2.62 2.62 0 0 0 2.81 2.77c1.8 0 2.77-1.15 2.96-3.76z"/></symbol><symbol id="back-arrow" viewBox="0 0 87.58 51.86"><path fill="#009444" d="M87.58 28.86H8.37V15.23h79.21z"/><path fill="#009444" d="M31.92 51.86L0 22.04 31.92 0v51.86z"/></symbol><symbol id="back-arrow-2" viewBox="0 0 87.58 51.86"><path fill="#8b5e3c" d="M87.58 28.86H8.37V15.23h79.21z"/><path fill="#8b5e3c" d="M31.92 51.86L0 22.04 31.92 0v51.86z"/></symbol><symbol id="selected-b-star-galctic" viewBox="0 0 83.6 112.8"><path fill="none" stroke="#98d1ab" stroke-miterlimit="10" stroke-width="2" d="M30.34 15A40 40 0 0 0 7.7 39.26M53.26 15a39.94 39.94 0 0 1 22.63 24.26m-44.5 36.36h21.14m-22.71 4.62h24.3m-25.91 5.91h27.22m-29.36 5.96l30.74.01m-31.55 5.77h32.9m-34.26 6.2h35.55"/><path fill="#98d1ab" d="M83.6 60.54V47.3a4.71 4.71 0 0 0-4.71-4.71H48.41l3.44-38A4.24 4.24 0 0 0 47.63 0H36a4.24 4.24 0 0 0-4.22 4.62l3.44 38H4.71A4.71 4.71 0 0 0 0 47.3v13.24a4.71 4.71 0 0 0 4.71 4.71h9.56L0 112.8h19.09l11.25-41.92 11.46-1.63 11.46 1.63 11.25 41.92H83.6L69.33 65.25h9.56a4.71 4.71 0 0 0 4.71-4.71zm-15.46-3H17.29a3.85 3.85 0 0 1 0-7.69h50.85a3.85 3.85 0 0 1 0 7.69z"/><path fill="none" stroke="#98d1ab" stroke-miterlimit="10" stroke-width="2" d="M78.49 66.98v25.14M5.17 66.98v25.14"/><circle cx="29.02" cy="53.97" r="1.97" fill="none" stroke="#98d1ab" stroke-miterlimit="10" stroke-width="3"/></symbol><symbol id="selected-star-treck" viewBox="0 0 84.1 120.01"><path fill="#98d1ab" d="M0 120c.32-6.11.43-11.52.92-16.9 2-21.69 5.73-43 12.92-63.67 4.08-11.69 8.7-23.29 17.7-32.2 9.75-9.65 11.19-9.46 21.3-.59 8.69 7.63 13.63 17.89 17.74 28.47C79.4 57.8 83.1 81.48 84.1 105.67c0 .52 0 1-.07 1.52-5.26 1.18-5.42 1.06-6.6-3.62a79.59 79.59 0 0 0-11.27-25.9 9.88 9.88 0 0 0-.74-1c-5.07-5.93-4.69-5.77-11.2-3.22-14.76 5.78-26.46 15.86-36.54 27.76-4.28 5-7.6 11-10.88 16.79-1.8 3.08-4.13.93-6.8 2zM42.44 12.94h-.55c-1.71 8.53-3.51 17.05-5.08 25.6-.42 2.28-1.13 3.37-3.64 3.14s-5.21-.06-7.81-.06l-.17.66L36 47.77l-5.16 10.5.32.17 11-11.27 10.75 11.51.56-.39c-1.7-3.46-3.41-6.92-5.17-10.49l10.84-5.63-.29-.69H48.2z"/></symbol></svg>