<svg id="Layer_2" data-name="Layer 2" xmlns="http://www.w3.org/2000/svg" width="32" height="32" viewBox="0 0 32 32"><title>logo-64</title><rect x="-2.67" y="-2.67" width="37.34" height="37.34" fill="#231f20"/><path d="M26.7,12.66a2.35,2.35,0,0,0-1.87,2.6,5.4,5.4,0,0,0,.34,1,4.84,4.84,0,0,1,.45,2,13.34,13.34,0,0,1-1,3.09,6.63,6.63,0,0,1-.29,1,4.41,4.41,0,0,1-.52.78L23,24.23a14.35,14.35,0,0,0-.14-4.76,4.15,4.15,0,0,0-.78-1.87c-.52-.6-1.33-.92-1.82-1.55a4.39,4.39,0,0,1-.65-1.54,7.56,7.56,0,0,1-.33-1.57c0-.26,0-.52,0-.77-.11-1.49-1.12-2.75-1.52-4.19-.14-.5-.25-1.09-.7-1.35L3.85,20A20.71,20.71,0,0,0,2,23.23a.68.68,0,0,0-.07.48c.08.22.38.28.55.44.34.32.19.93.51,1.26.52.52,1.73-.16,2,.51a1.28,1.28,0,0,1,0,.7A3.42,3.42,0,0,0,6,29a2.43,2.43,0,0,0,.88.81,2.38,2.38,0,0,0,1,.13l3.85-.05a6.57,6.57,0,0,0,2.42-.34c1.13-.45,1.92-1.47,3-2.07a.42.42,0,0,1,.28-.08c.12,0,.21.12.28.22.48.7.8,1.49,1.3,2.18a2.61,2.61,0,0,0,2.08,1.25c.64,0,1.42-.34,1.84.15a3.81,3.81,0,0,0,.24.32c.37.34,1-.06,1.24-.49a24.39,24.39,0,0,0,1.42-3.46c.58-1.29,1.51-2.4,2-3.72a12.76,12.76,0,0,0,.6-2.28c.12-.61.24-1.23.37-1.85a1.38,1.38,0,0,0-.18-1.26c-.13-.12-.31-.19-.4-.34a1,1,0,0,1-.1-.55,2.5,2.5,0,0,0-1.84-2.31,3,3,0,0,0,.6-2.58" fill="#8b5e3c"/><path d="M26.64,12.42A2.62,2.62,0,0,0,24.8,16a7.2,7.2,0,0,1,.54,1.86,5,5,0,0,1-.5,2.25c-.25.6-.39,1.2-.61,1.81a7.74,7.74,0,0,1-1.44,2.11l.43.18a12.76,12.76,0,0,0-.36-5.63c-.53-1.54-2.15-2-2.78-3.39s-.42-3.19-1-4.72c-.35-.87-.8-1.68-1.09-2.57a2.66,2.66,0,0,0-.77-1.47.26.26,0,0,0-.35,0L10.6,12.78c-2.27,2.31-4.77,4.52-6.87,7A11.14,11.14,0,0,0,1.79,23.1a.92.92,0,0,0-.06.76c.08.16.22.19.32.31a3.9,3.9,0,0,1,.57,1.11,1,1,0,0,0,.73.57c.23,0,.52-.06.73,0,.64.21.55.65.67,1.13a4.41,4.41,0,0,0,2.09,3.06,5.92,5.92,0,0,0,2.3.13c1.08,0,2.17,0,3.26-.06a6,6,0,0,0,3.77-1.6c.58-.46,1-1,1.68-.23a6.23,6.23,0,0,1,.62,1.1,4.33,4.33,0,0,0,1.34,1.51,2.44,2.44,0,0,0,1.66.37,2.16,2.16,0,0,1,1.52.4,1.59,1.59,0,0,0,.41.21c1.3.27,1.9-2,2.18-2.87.73-2.11,2.24-3.84,2.84-6a26,26,0,0,0,.7-3.4,1.84,1.84,0,0,0-.28-1.34c-.72-1.34-.75-2.7-2.45-3.26l.15.37a3.41,3.41,0,0,0,.63-2.78c-.05-.31-.53-.18-.48.14a2.93,2.93,0,0,1-.58,2.39.26.26,0,0,0,.15.37,2.2,2.2,0,0,1,1.55,1.61,6,6,0,0,0,.17.94c.08.16.22.27.3.42a3,3,0,0,1,.14,2.1,18.81,18.81,0,0,1-.77,3.15,25.81,25.81,0,0,1-1.63,3,13.43,13.43,0,0,0-.92,2.18,11.21,11.21,0,0,1-.58,1.49c-.36.72-.67.91-1.42.64a2.33,2.33,0,0,0-1.32-.27c-1.59.13-2.35-.63-3.09-2-.53-1-.81-2-2-1.31-.72.44-1.29,1.12-2,1.55a6.58,6.58,0,0,1-3.42.63,27.08,27.08,0,0,1-3.37.05A2.63,2.63,0,0,1,6,28.57a3.79,3.79,0,0,1-.7-2.24c-.11-1.2-.75-.72-1.62-.95-.56-.16-.8-.95-1-1.42,0-.08-.2-.09-.23-.16a1.73,1.73,0,0,1,.17-1.2,8.61,8.61,0,0,1,.7-1.26,7.68,7.68,0,0,1,1.13-1.56l3.24-3.29,8.59-8.73c.13-.13.71-.92.92-.93a17.51,17.51,0,0,0,.6,2.05A11.75,11.75,0,0,1,19,12.36c.12,1.55.32,3.33,1.6,4.38a6.23,6.23,0,0,1,1.48,1.32,5.29,5.29,0,0,1,.6,1.94,14.63,14.63,0,0,1,0,4.23.26.26,0,0,0,.43.18,9.55,9.55,0,0,0,1.51-2.18c.37-1,.81-2.09,1.08-3.12a4.23,4.23,0,0,0-.18-2.51,4.15,4.15,0,0,1-.47-1.94,2.14,2.14,0,0,1,1.68-1.75.25.25,0,0,0-.13-.49Z" fill="#231f20"/><path d="M5.91,11.06a.92.92,0,0,0-.56.65c0,.17,0,.35-.09.53a2.08,2.08,0,0,1-.16.48,3.29,3.29,0,0,0-.27.94,2.06,2.06,0,0,0,.2,1,.26.26,0,0,0,.34.09.25.25,0,0,0,.09-.34,1.51,1.51,0,0,1-.13-.72,2.48,2.48,0,0,1,.23-.76,2.84,2.84,0,0,0,.22-.77c0-.18,0-.51.26-.58s.18-.59-.13-.49Z" fill="#231f20"/><path d="M10.64,10.36l.76.2a2.72,2.72,0,0,1,.71.25,2.57,2.57,0,0,1,.47.52l.52.64a.25.25,0,0,0,.35,0,.26.26,0,0,0,0-.35L12.92,11a2.76,2.76,0,0,0-.55-.58,3,3,0,0,0-.76-.28l-.84-.23a.25.25,0,0,0-.13.49Z" fill="#231f20"/><path d="M6,.81A7,7,0,0,1,8.55.26,6.92,6.92,0,0,1,9.91.5L11.78,1a5.45,5.45,0,0,1,1.57.56,1.12,1.12,0,0,1,.41.37,2,2,0,0,1,.19.59,4,4,0,0,0,1.24,2.1c.24.22.52.4.76.63a6,6,0,0,1,1.59,3.34,17,17,0,0,1,.32,4,2,2,0,0,1-.09.59,2.49,2.49,0,0,1-.27.51,6.9,6.9,0,0,0-.81,2l-.17-.25L16.24,17a4,4,0,0,0-.17-1.73,2.38,2.38,0,0,0-.37.92,4.21,4.21,0,0,1,.07-1.46,19,19,0,0,0-1.4,3,2.4,2.4,0,0,0-.19,1.51,1.63,1.63,0,0,1,.11.42,1.07,1.07,0,0,1-.09.43l-.83,2.18c-.17.15-.41-.21-.63-.15s-.13.08-.18.14a6.32,6.32,0,0,0-.67,1c-.29-.18-.58.22-.89.33a.58.58,0,0,1-.72-.6l-.66.56c.06-.11-.06-.24-.18-.25a.58.58,0,0,0-.33.12L8,24.08c-.15-.22,0-.51,0-.78s-.32-.56-.5-.36v-.63c0-.11,0-.23-.1-.28s-.21,0-.3.07a9.21,9.21,0,0,0-.92.73L6,22.55a2.48,2.48,0,0,0-.58.5l-.16-.52-.4.26A5.92,5.92,0,0,1,4.17,19" fill="#8b5e3c"/><path d="M6,1.05A6.3,6.3,0,0,1,9.85.74a24.28,24.28,0,0,1,2.67.68c1,.37,1.05,1,1.43,1.86A4.59,4.59,0,0,0,15.26,5c1.64,1.4,2.09,3.27,2.29,5.34a6,6,0,0,1-.26,3.18,10.41,10.41,0,0,0-.84,2.08l.45-.06-.16-.26a.26.26,0,0,0-.46.06L16,16.92l.49.07a5.46,5.46,0,0,0-.18-1.8.25.25,0,0,0-.46-.06,3.93,3.93,0,0,0-.39,1l.49.07a5.08,5.08,0,0,1,.06-1.4.25.25,0,0,0-.45-.19A15.69,15.69,0,0,0,14,18a3.08,3.08,0,0,0-.09,1.09,4.12,4.12,0,0,1-.37,2c-.1.26-.17.71-.45.84-.06,0-.22-.1-.29-.08a1.27,1.27,0,0,0-.42.21c-.29.23-.43.7-.7.9s-1.08.54-1.16-.05c0-.2-.29-.22-.42-.11l-.65.57.41.11c-.16-1.07-1.69.22-2,.43l.37.15c-.16-.53.08-1.57-.83-1.32l.31.24c0-1.63-.72-1.18-1.74-.28l.42.11-.12-.29c0-.13-.22-.25-.36-.15a3.27,3.27,0,0,0-.63.54l.41.11-.16-.52a.24.24,0,0,0-.36-.15l-.41.26.35.09A6.07,6.07,0,0,1,4.42,19c0-.32-.47-.32-.5,0a6.62,6.62,0,0,0,.74,3.88A.27.27,0,0,0,5,23l.4-.27L5,22.59l.16.53a.26.26,0,0,0,.42.11l.53-.47-.37-.15.11.29a.26.26,0,0,0,.42.11c.67-.59.89-1.09.89-.07a.26.26,0,0,0,.32.24c.1,0,.18.84.21,1a.26.26,0,0,0,.37.15c.08-.05,1.28-.78,1.28-.73s.29.22.42.11l.65-.56L10,23a.84.84,0,0,0,.62.78c.47.11.75-.41,1.16-.34a.28.28,0,0,0,.29-.12,1.36,1.36,0,0,1,1.26-.87.26.26,0,0,0,.24-.19,8.1,8.1,0,0,0,.84-3.05A8.65,8.65,0,0,1,16,14.84l-.46-.19a6,6,0,0,0-.08,1.53c0,.27.42.36.49.07a2.51,2.51,0,0,1,.34-.87l-.45-.06A5.51,5.51,0,0,1,16,17c0,.27.44.34.49.06l.29-1.62-.46.06.16.26a.26.26,0,0,0,.46-.06c.24-.95.89-1.74,1.12-2.67A9.32,9.32,0,0,0,18,9.86c-.23-1.94-.69-3.85-2.26-5.15A5,5,0,0,1,14.62,3.5C14.32,3,14.3,2.33,14,1.82A2.56,2.56,0,0,0,12.46.88,24.83,24.83,0,0,0,9.08.06,6.53,6.53,0,0,0,5.91.57c-.3.11-.17.59.13.48Z" fill="#231f20"/><path d="M6.08.84A15,15,0,0,0,3.3,5.72,2.22,2.22,0,0,0,3.05,7a2.11,2.11,0,0,1,.11.65A1.19,1.19,0,0,1,3,8a4.63,4.63,0,0,0-.47,2.71A9.27,9.27,0,0,0,3,12.42a3.58,3.58,0,0,0,.66,1.34,3.8,3.8,0,0,1,.42.48,1.58,1.58,0,0,1,.21.56,7.11,7.11,0,0,1,.06,3,3.3,3.3,0,0,0,0,2.19A3.62,3.62,0,0,1,5,18.42a2.63,2.63,0,0,0,.12,1.21A9.88,9.88,0,0,0,6.2,17.91a7,7,0,0,0,.55,1.49l.52-1.13.54.55a.35.35,0,0,0,.19.12.39.39,0,0,0,.22-.11l.67-.59a9.45,9.45,0,0,0,1.52,2.43,11.72,11.72,0,0,0,.65-4.55,9.7,9.7,0,0,0,1.15,1.62l.4-.26a1.07,1.07,0,0,0,.47.63,4.17,4.17,0,0,0,.34-1.29,1.16,1.16,0,0,0,1,.46A8.66,8.66,0,0,0,13.64,15l1.21.1a3.51,3.51,0,0,1-.67-1.21l.49-.35A4.34,4.34,0,0,0,13.58,12" fill="#8b5e3c"/><path d="M5.91.66A14.2,14.2,0,0,0,3.33,5a4.76,4.76,0,0,0-.52,2c0,1-.49,1.83-.55,2.83a7,7,0,0,0,1.43,4.32,5,5,0,0,1,.41,3.58,3.88,3.88,0,0,0,0,2.31c.09.21.43.27.49,0a4,4,0,0,1,.69-1.52l-.47-.12a3.42,3.42,0,0,0,.13,1.27.25.25,0,0,0,.46.06A10.37,10.37,0,0,0,6.41,18L6,18a10.66,10.66,0,0,0,.57,1.55.26.26,0,0,0,.44,0l.52-1.14-.4.05c.94,1,1,.82,2,0l-.4-.05a11,11,0,0,0,1.56,2.47.25.25,0,0,0,.42-.11,12.43,12.43,0,0,0,.66-4.61l-.46.13A12.91,12.91,0,0,0,12,17.92a.26.26,0,0,0,.3,0l.4-.27-.36-.15a1.67,1.67,0,0,0,.53.75.26.26,0,0,0,.42-.11,5.45,5.45,0,0,0,.35-1.36l-.43.17a1.59,1.59,0,0,0,1.19.54.26.26,0,0,0,.24-.32,9.58,9.58,0,0,0-.82-2.38l-.21.37,1.21.1c.24,0,.3-.27.18-.42-.3-.38-.72-.83-.24-1.17a.27.27,0,0,0,.09-.35,5.25,5.25,0,0,0-1.12-1.57c-.23-.22-.59.13-.35.36a4.91,4.91,0,0,1,1,1.47l.09-.35-.49.35a.26.26,0,0,0-.12.29,4.76,4.76,0,0,0,.74,1.32l.18-.43-1.21-.1a.26.26,0,0,0-.22.38,9.12,9.12,0,0,1,.76,2.26l.25-.31-.83-.39a.26.26,0,0,0-.43.18A4.26,4.26,0,0,1,12.83,18l.42-.11-.4-.52a.26.26,0,0,0-.37-.15c-.49.32-1-.88-1.2-1.26a.25.25,0,0,0-.47.12,12.39,12.39,0,0,1-.64,4.48l.42-.11A10.13,10.13,0,0,1,9.1,18.11a.26.26,0,0,0-.39-.05c-.47.42-.76.55-1.26,0a.24.24,0,0,0-.39.05l-.53,1.13H7a9,9,0,0,1-.53-1.42A.25.25,0,0,0,6,17.79,11.59,11.59,0,0,1,4.92,19.5l.45.06a3.16,3.16,0,0,1-.11-1.14c0-.28-.33-.31-.46-.13a4.16,4.16,0,0,0-.75,1.64h.49c-.37-.91.06-1.85.15-2.78a7.71,7.71,0,0,0-.1-2.09,3.54,3.54,0,0,0-.91-1.66,6.81,6.81,0,0,1-.88-2.71,4.53,4.53,0,0,1,.08-1.64c.1-.4.38-.77.46-1.17a12.32,12.32,0,0,1,.2-2.09A14.4,14.4,0,0,1,6.26,1C6.48.78,6.13.43,5.91.66Z" fill="#231f20"/><path d="M27.19,12.17c0-.2.29-.28.47-.19a.92.92,0,0,1,.35.47,5.88,5.88,0,0,1,.51-.72s.09-.09.15-.08.1.08.12.14l.26.67c.09-.18.38-.11.52,0s.23.37.42.44a.52.52,0,0,1,.54,0,.86.86,0,0,1,.34.84,2.42,2.42,0,0,1-.33.88l-.24.46c-.07.13-.19.28-.33.24a.38.38,0,0,1-.14-.11,1.53,1.53,0,0,1-.28-.64,3.49,3.49,0,0,0-.56.87.73.73,0,0,1-.41-.56,2.18,2.18,0,0,1,0-.72L28.2,15c-.07.15-.19.31-.35.29s-.24-.33-.2-.54l.13-.76-.17.13a1,1,0,0,1-.17-.84,1.49,1.49,0,0,0,.08-.41.84.84,0,0,0-.34-.53" fill="#8b5e3c"/><path d="M27.43,12.23s0,0,0,0a.11.11,0,0,1,.11,0,.8.8,0,0,1,.22.35.25.25,0,0,0,.43,0,4,4,0,0,1,.22-.34,4.08,4.08,0,0,0,.25-.33l0,0c-.16-.08-.22-.06-.15,0a.68.68,0,0,0,.07.2l.15.41a.26.26,0,0,0,.46.06s0,0,0,0l.07,0a.49.49,0,0,1,.15.17,1.09,1.09,0,0,0,.38.36c.19.08.34-.09.52,0a.55.55,0,0,1,.24.4,2.15,2.15,0,0,1-.4,1.19c0,.1-.1.21-.16.31l-.06.07s.05.06,0,0-.1-.16-.14-.23a1.39,1.39,0,0,1-.1-.33.25.25,0,0,0-.42-.11,4.22,4.22,0,0,0-.6.91l.35-.09c-.41-.18-.32-.7-.28-1.06s-.35-.33-.46-.13l-.3.57-.14.25-.06.07,0,0h0a.84.84,0,0,0,0-.1,1.49,1.49,0,0,1,0-.21L28,14c0-.19-.17-.43-.37-.28l-.17.13.34.09a.92.92,0,0,1-.15-.43,1.9,1.9,0,0,1,.09-.53,1,1,0,0,0-.4-.88c-.23-.21-.59.14-.35.36s.24.2.26.35-.08.34-.1.49a1.4,1.4,0,0,0,.22.89.26.26,0,0,0,.34.09l.18-.13-.37-.28a6.08,6.08,0,0,0-.16.95.66.66,0,0,0,.28.61.52.52,0,0,0,.66-.21,6.83,6.83,0,0,0,.49-.88l-.47-.13c-.07.54-.06,1.23.52,1.5a.27.27,0,0,0,.35-.09,3.08,3.08,0,0,1,.52-.82l-.42-.11c.07.36.34,1.05.82.92a.76.76,0,0,0,.43-.45c.13-.24.27-.48.38-.73a1.54,1.54,0,0,0,0-1.34.85.85,0,0,0-1.13-.37h.26c-.25-.12-.33-.42-.57-.55a.53.53,0,0,0-.72.16l.46.06c-.09-.23-.17-.46-.26-.68s-.19-.34-.4-.32-.32.19-.44.34a6,6,0,0,0-.39.59h.43c-.13-.27-.31-.57-.63-.62a.55.55,0,0,0-.65.39c-.07.32.41.45.48.13Z" fill="#231f20"/><path d="M26.63,12.09A6.82,6.82,0,0,0,25,8.57a.32.32,0,0,0-.16-.09.34.34,0,0,0-.15.07l-1.21.89a3.72,3.72,0,0,0,1.14,1.23l1.86,1.47" fill="#009444"/><path d="M26.87,12a9.26,9.26,0,0,0-1-2.8,4.83,4.83,0,0,0-.43-.58c-.14-.16-.33-.41-.57-.41a.53.53,0,0,0-.33.15l-.4.29-.75.55a.26.26,0,0,0-.09.34,3.88,3.88,0,0,0,1.26,1.35l1.77,1.41a.26.26,0,0,0,.35,0,.25.25,0,0,0,0-.36L25,10.61a4,4,0,0,1-1.24-1.3l-.09.34.66-.48.32-.23a1.09,1.09,0,0,1,.17-.13s.15-.08.07-.08,0,0,0,.06l.12.12a2.75,2.75,0,0,1,.22.26,2.85,2.85,0,0,1,.33.52,9.82,9.82,0,0,1,.82,2.47.25.25,0,0,0,.48-.14Z" fill="#231f20"/><path d="M23.69,9.9a2.4,2.4,0,0,0-2,2,1.69,1.69,0,0,1,1.11,0,4.36,4.36,0,0,1,1,.53.48.48,0,0,0,.19.09.4.4,0,0,0,.26-.05L25.7,12a.44.44,0,0,1,.27-.05" fill="#009444"/><path d="M23.62,9.66A2.65,2.65,0,0,0,21.41,12a.25.25,0,0,0,.31.25,1.5,1.5,0,0,1,1.12.06c.34.14.62.4.95.54s.74-.1,1-.22l.55-.21a1.56,1.56,0,0,1,.59-.18c.32,0,.32-.46,0-.5a1.26,1.26,0,0,0-.57.14l-.54.21-.62.23c-.11,0-.18.09-.29.05a1.35,1.35,0,0,1-.22-.14,2.51,2.51,0,0,0-2.14-.47l.32.24a2.16,2.16,0,0,1,1.84-1.81c.32-.05.18-.53-.13-.48Z" fill="#231f20"/><path d="M29.83,18.47a1.34,1.34,0,0,0-.09,1.32c.18.43.46.81.65,1.23a5.16,5.16,0,0,1,.32,1L31,23.16a4.3,4.3,0,0,0,1.69-1.95,1.92,1.92,0,0,0,.33-1A1.89,1.89,0,0,0,32.25,19" fill="#009444"/><path d="M29.61,18.34a2,2,0,0,0,.24,2.19,5.28,5.28,0,0,1,.54,1.27c.13.47.24.95.36,1.43a.26.26,0,0,0,.37.15,4.56,4.56,0,0,0,1.76-2A1.93,1.93,0,0,0,33.23,20a2.48,2.48,0,0,0-.81-1.14c-.23-.22-.59.13-.35.35a1.86,1.86,0,0,1,.68,1,1.87,1.87,0,0,1-.41,1.16A3.79,3.79,0,0,1,30.87,23l.36.14a9.93,9.93,0,0,0-.75-2.45c-.32-.59-.94-1.38-.44-2.05.2-.25-.24-.5-.43-.25Z" fill="#231f20"/><path d="M32.31,18.86a2.06,2.06,0,0,0,.89,0,3.85,3.85,0,0,0,.49-3.1.77.77,0,0,0-.34-.52A.69.69,0,0,0,33,15.2l-2-.14a.41.41,0,0,0-.22,0,.14.14,0,0,0-.08.18" fill="#009444"/><path d="M32.24,19.1a2.43,2.43,0,0,0,.93,0c.28,0,.4-.35.51-.59a4.19,4.19,0,0,0,.39-1.63,3,3,0,0,0-.28-1.57.81.81,0,0,0-.66-.4l-1-.06c-.37,0-.75-.07-1.12-.08s-.59.19-.52.52.55.18.49-.13c-.07.08-.08.11,0,.11h.08l.22,0,.42,0,.83.05.41,0a.5.5,0,0,1,.34.09,1.09,1.09,0,0,1,.21.56A3.69,3.69,0,0,1,33,18.76l.15-.12a1.77,1.77,0,0,1-.76,0,.25.25,0,0,0-.14.48Z" fill="#231f20"/><path d="M28.64,16.78a10.24,10.24,0,0,1,2.66,4.4l1.08-2.51a5.44,5.44,0,0,0,.29-.8,5,5,0,0,0,0-1.6,8.19,8.19,0,0,0-2.1-.68.61.61,0,0,0-.19,0,.5.5,0,0,0-.21.12c-.27.26-.52.62-.9.65a1.23,1.23,0,0,0-.27,0c-.08,0-.16.12-.13.2" fill="#009444"/><path d="M28.46,17a10,10,0,0,1,2.6,4.29c.06.18.37.27.46.06.39-.92.8-1.84,1.18-2.77a3.63,3.63,0,0,0,.3-1.3q0-.37,0-.75c0-.25,0-.36-.24-.48a7.61,7.61,0,0,0-1.23-.47,2.29,2.29,0,0,0-1.23-.18c-.36.15-.51.59-.88.72-.18.05-.38,0-.55.1a.43.43,0,0,0-.19.39c0,.32.51.32.5,0,0,.16.65-.15.7-.19.22-.16.45-.55.73-.54a4.13,4.13,0,0,1,1,.24,9.71,9.71,0,0,1,1,.41l-.12-.22a6.55,6.55,0,0,1,0,1.25,4.43,4.43,0,0,1-.4,1.23l-1,2.3.45.06a10.46,10.46,0,0,0-2.73-4.5.25.25,0,0,0-.35.35Z" fill="#231f20"/><path d="M12.13,13.47A2.17,2.17,0,0,0,11,12.06a3.31,3.31,0,0,0-2.15-.24,3.51,3.51,0,0,0-2,.89,1.57,1.57,0,0,0-.42.91c0,.37.21.7.17,1.06s.29.32.43.18a2.68,2.68,0,0,1,2.16-.78,2.8,2.8,0,0,0,1.22.05,4.3,4.3,0,0,1,1.37-.29.25.25,0,0,0,0-.5,4.2,4.2,0,0,0-1.41.27c-.47.17-.93,0-1.41,0a3.24,3.24,0,0,0-2.28.94l.42.18a2.7,2.7,0,0,0-.15-.8.93.93,0,0,1,.25-.82,3,3,0,0,1,1.71-.74c1.06-.21,2.49,0,2.75,1.29.07.31.55.18.49-.14Z" fill="#231f20"/><path d="M6.86,13.19a1.55,1.55,0,0,0,.33.55.94.94,0,0,0,.18-.56.36.36,0,0,0,.35-.1A.93.93,0,0,1,8,12.84c.15-.06.33,0,.48-.09s.16-.11.25-.1a.81.81,0,0,1,.21.1c.26.11.58-.3.8-.12a.48.48,0,0,1,.12.32c0,.11.09.24.2.24s.2-.17.22-.31.1-.32.24-.28.17.12.23.05a.16.16,0,0,0,0-.24.44.44,0,0,0-.27-.07l-.75,0a1.39,1.39,0,0,0-.41,0c-.13,0-.26.11-.39.15a1.61,1.61,0,0,1-.69,0l1-.22a1.27,1.27,0,0,1,1.07.09c-.45-.13-.91.17-1.38.16-.14,0-.29,0-.43,0a1.62,1.62,0,0,0-1.55.84" fill="#fff"/><path d="M7.25,9.75a.75.75,0,0,0-.41.76c.16,0,.22-.26.38-.26a.36.36,0,0,1,.18.12,1.27,1.27,0,0,0,.63.35.29.29,0,0,0,.13,0c.15-.05.11-.26.16-.4a.3.3,0,0,1,.45-.15c.06,0,.1.09.16.11s.33-.06.44-.19a.34.34,0,0,0,.11-.24.24.24,0,0,0-.12-.14,1.59,1.59,0,0,0-1-.3,4.64,4.64,0,0,0-1,.13" fill="#231f20"/><path d="M7.2,8.1a.53.53,0,0,0-.72-.24c-.08,0-.13.13-.21.17s-.19,0-.22,0l-.46.55c-.09.1-.2.22-.34.22l.16.16-.34.27a.08.08,0,0,0,0,.06s0,0,.06,0a.17.17,0,0,1,.08.2A.59.59,0,0,1,5,9.67a.23.23,0,0,1,.25,0,.64.64,0,0,0,.22.14c.23,0,.38-.27.61-.31h.16a.7.7,0,0,0,.53-.28A2.22,2.22,0,0,0,7.1,8.7l.11.24A1.16,1.16,0,0,0,7.2,8.1Zm-.3.76L6.73,9a.66.66,0,0,1-.3.2.22.22,0,0,1-.27-.17.28.28,0,0,1,.17-.24,1,1,0,0,0,.28-.14s.1-.11.17-.11S6.93,8.74,6.9,8.86Z" fill="#231f20"/><path d="M12.35,8.1c0-.1-.21-.11-.19-.21s0,0,.06-.08,0-.16-.05-.22S12,7.49,12,7.41s0-.13-.08-.17a.21.21,0,0,0-.14,0,2.74,2.74,0,0,0-.63.09.39.39,0,0,1-.3,0,1,1,0,0,1-.13-.09.46.46,0,0,0-.5.12,1.79,1.79,0,0,1-.43.35.14.14,0,0,1-.11,0c-.08,0-.08-.16-.16-.2s-.18.06-.23.14L9.06,8a1.24,1.24,0,0,0-.15.33A.38.38,0,0,0,9,8.7a.22.22,0,0,0,.32,0l0,0A1.48,1.48,0,0,0,10,9a1.54,1.54,0,0,0,.37,0,2.59,2.59,0,0,0,.66-.18.7.7,0,0,1,.19-.06.91.91,0,0,1,.23,0c.34.05.61-.26.82-.54C12.33,8.18,12.36,8.14,12.35,8.1Zm-1.51.05a.3.3,0,0,1-.15.39.8.8,0,0,1-.46,0,.29.29,0,0,1-.16,0A.25.25,0,0,1,10,8.22.63.63,0,0,1,10.3,8a.72.72,0,0,1,.8.06Z" fill="#231f20"/></svg>