<svg id="Layer_2" data-name="Layer 2" xmlns="http://www.w3.org/2000/svg" width="256" height="256" viewBox="0 0 256 256"><title>logo</title><rect width="256" height="256" fill="#231f20"/><path d="M201.38,105.14c-8.06,1.24-14.21,9.78-12.84,17.82a35.17,35.17,0,0,0,2.33,7c1.73,4.31,3.25,8.83,3.1,13.48-.23,7.43-4.67,14-6.68,21.17a45.71,45.71,0,0,1-2,6.76,27.68,27.68,0,0,1-3.55,5.38l-6,7.65a96.26,96.26,0,0,0-1-32.65c-.93-4.57-2.28-9.24-5.32-12.78-3.56-4.15-9.09-6.31-12.46-10.63-2.36-3-3.45-6.84-4.48-10.54A53.31,53.31,0,0,1,150.31,107c-.11-1.76-.05-3.53-.18-5.29-.75-10.19-7.66-18.84-10.41-28.69-1-3.45-1.72-7.49-4.82-9.28L44.74,155.38a134.24,134.24,0,0,0-12.68,22.15,4.41,4.41,0,0,0-.53,3.29c.59,1.56,2.6,1.94,3.82,3.08,2.29,2.14,1.24,6.36,3.45,8.6,3.55,3.6,11.86-1.11,13.89,3.53.65,1.48.12,3.17-.08,4.78-.76,6,3.21,11.54,7,16.33,1.71,2.17,3.52,4.44,6.06,5.55,2.19,1,4.67.94,7.07.9l26.4-.39c5.61-.08,11.37-.19,16.58-2.28,7.71-3.1,13.16-10.09,20.36-14.23a3.19,3.19,0,0,1,1.91-.57,3.14,3.14,0,0,1,1.92,1.56c3.31,4.75,5.49,10.22,8.87,14.92s8.51,8.75,14.3,8.59c4.4-.12,9.73-2.33,12.6,1a21.89,21.89,0,0,0,1.64,2.16c2.56,2.38,6.63-.39,8.53-3.32,4.67-7.19,6.22-15.91,9.72-23.73,3.95-8.84,10.36-16.46,13.93-25.47a88.85,88.85,0,0,0,4.1-15.64q1.26-6.34,2.51-12.68c.6-3,1-6.59-1.23-8.68-.87-.82-2.08-1.29-2.75-2.29s-.63-2.51-.65-3.82A17,17,0,0,0,198.79,123a20.29,20.29,0,0,0,4.15-17.73" fill="#8b5e3c"/><path d="M201.12,104.17a16.75,16.75,0,0,0-11.49,8.26,17.2,17.2,0,0,0-2.21,6.78,18.39,18.39,0,0,0,1.45,8.44c2.39,6.28,5.1,12.46,3.67,19.32-1.25,6.06-4.55,11.45-6.21,17.39-.48,1.7-.82,3.43-1.37,5.11a17.74,17.74,0,0,1-2.52,4.72c-2.33,3.25-4.9,6.35-7.36,9.51l1.67,1a98.76,98.76,0,0,0-.3-29.38,46.93,46.93,0,0,0-3.39-12.51,22.93,22.93,0,0,0-7.82-8.8c-3.3-2.39-6.73-4.61-8.77-8.26-2.22-4-3.3-8.86-4.31-13.29a37.23,37.23,0,0,1-.92-7.58,38.93,38.93,0,0,0-.59-6.64,52,52,0,0,0-4.2-11.65c-2-4.39-4.29-8.72-5.65-13.38-1.1-3.75-1.8-8.07-5.4-10.29a1,1,0,0,0-1.21.16L123.77,73.64,99.45,98.35,71.33,126.93,49.8,148.82,44.66,154a11.4,11.4,0,0,0-1.31,1.6,132.61,132.61,0,0,0-9.59,16.05c-.69,1.36-1.35,2.72-2,4.1a11.41,11.41,0,0,0-1.38,3.81c-.2,2.77,2.16,3.4,4,4.78s1.65,4.16,2.26,6.17a5.77,5.77,0,0,0,3.64,4,15,15,0,0,0,5.78.37c1.52-.08,3.65-.4,5,.57a3.2,3.2,0,0,1,.94,3.13,25.6,25.6,0,0,0-.41,4.46,18.5,18.5,0,0,0,2.38,7.64,50.4,50.4,0,0,0,4.69,6.83c1.66,2.13,3.39,4.36,5.81,5.68s5.46,1.43,8.28,1.39l10.21-.15c6.61-.1,13.24-.09,19.84-.31,5.93-.2,11.76-1,17-4.09,4.69-2.75,8.56-6.63,12.9-9.85a38.44,38.44,0,0,1,3.27-2.23c.57-.35,1.21-.87,1.9-.77.84.12,1.3,1.06,1.74,1.73,1.73,2.6,3.15,5.38,4.65,8.12,2.61,4.74,5.57,9.38,10.16,12.44a15.88,15.88,0,0,0,7.19,2.66c2.47.24,4.9-.36,7.33-.64s5-.26,6.51,2c1.32,1.9,2.89,3.16,5.33,2.65,5.07-1.06,7.65-7,9.43-11.26,2.26-5.4,3.7-11.1,6-16.48s5.59-10.29,8.61-15.3a66,66,0,0,0,7.44-16.25c1.77-6.28,2.82-12.77,4.08-19.16.88-4.41,3-10.77-1.33-14.06-1.07-.82-2.17-1.32-2.41-2.78s-.06-2.78-.26-4.16a17.42,17.42,0,0,0-2.37-6.53A18,18,0,0,0,199.06,122l.44,1.67a21.5,21.5,0,0,0,4.4-18.7c-.3-1.25-2.22-.72-1.93.53a19.39,19.39,0,0,1-3.88,16.75,1,1,0,0,0,.44,1.67,16.22,16.22,0,0,1,10.63,9.13c1.06,2.4,1.14,4.72,1.31,7.28a5.25,5.25,0,0,0,1.05,3.11c.8,1,2,1.43,2.86,2.35,1.68,1.88,1.22,4.87.79,7.12-.6,3.21-1.26,6.41-1.9,9.61-1.2,6-2.23,12.18-4.36,18-2,5.45-5.14,10.38-8.16,15.3A86.68,86.68,0,0,0,193,211c-2,5.4-3.49,11-6.1,16.18-1.19,2.35-2.53,4.78-4.82,6.21a4.4,4.4,0,0,1-2.87.83c-1.45-.24-2-1.76-2.82-2.74-3.22-3.67-8.69-1.58-12.78-1.33-5.36.32-10-3-13.18-7-3.73-4.63-5.88-10.29-9.15-15.22a6.34,6.34,0,0,0-2.44-2.56,3.59,3.59,0,0,0-3.26.48,46.08,46.08,0,0,0-6.35,4.49c-4.12,3.32-8.06,7-12.93,9.27-5.58,2.55-11.89,2.54-17.91,2.62l-19.67.29a85.23,85.23,0,0,1-9.59,0c-3.11-.3-5.33-1.92-7.31-4.22-3.49-4.06-7.59-9.13-8.19-14.64-.29-2.66,1.13-5.61,0-8.13A4.69,4.69,0,0,0,49.83,193a28.55,28.55,0,0,0-5.39,0c-1.7.05-3.82.09-5-1.3-1.44-1.63-1.2-4.23-1.92-6.18a5.74,5.74,0,0,0-1.66-2.5c-.81-.68-1.81-1-2.64-1.67-1.44-1.11-.49-2.78.12-4.11s1.3-2.76,2-4.12c1.37-2.71,2.82-5.39,4.37-8s3.19-5.18,4.91-7.69a14.67,14.67,0,0,1,1-1.43c1.18-1.33,2.51-2.54,3.75-3.81l19.29-19.6,27-27.43,25.26-25.67,14.09-14.31.66-.68-1.21.16c3.17,1.95,3.61,6.23,4.6,9.49a82.64,82.64,0,0,0,4.76,11.38A65.79,65.79,0,0,1,148.31,97c1.15,4.42.66,9,1.41,13.43a69.2,69.2,0,0,0,3.51,13,20.82,20.82,0,0,0,6.91,9.33c3,2.35,6.45,4.27,8.89,7.27,2.63,3.24,3.82,7.41,4.67,11.42a94.93,94.93,0,0,1,1.12,32.72c-.11.84,1,1.87,1.68,1l6.35-8.16a23.46,23.46,0,0,0,4.29-7.8c.86-2.94,1.53-5.88,2.65-8.75s2.37-5.57,3.39-8.42a25,25,0,0,0,.11-18.35c-1.84-5.55-5.13-10.82-3.38-16.83a15.12,15.12,0,0,1,11.74-10.71c1.26-.21.73-2.14-.53-1.93Z" fill="#231f20"/><path d="M59,94.85a5.45,5.45,0,0,0-3.34,3.9c-.33,1.2-.38,2.45-.63,3.66A18,18,0,0,1,54,105.69a19.77,19.77,0,0,0-1.83,6.23,12.93,12.93,0,0,0,1.25,6.33c.54,1.16,2.26.15,1.72-1a10.7,10.7,0,0,1-1-5.32,17.14,17.14,0,0,1,1.61-5.35,20.39,20.39,0,0,0,1.48-5.26c.22-1.62.5-3.89,2.31-4.53,1.21-.42.69-2.35-.53-1.93Z" fill="#231f20"/><path d="M91.42,88.62c1.75.46,3.5.93,5.25,1.43a18.27,18.27,0,0,1,5,1.77,16.52,16.52,0,0,1,3.35,3.67l3.52,4.38c.81,1,2.22-.42,1.42-1.42l-3.64-4.51a16.86,16.86,0,0,0-3.64-3.85,18.34,18.34,0,0,0-5-1.83c-1.91-.54-3.82-1.07-5.74-1.57a1,1,0,0,0-.53,1.93Z" fill="#231f20"/><path d="M59.29,23.87C65,21.85,70.9,19.8,77,20.06a47.92,47.92,0,0,1,9.33,1.66l12.81,3.17c3.7.91,7.47,1.86,10.74,3.83a8.08,8.08,0,0,1,2.83,2.55,12.57,12.57,0,0,1,1.29,4,27.6,27.6,0,0,0,8.46,14.37c1.7,1.51,3.57,2.8,5.24,4.33,6.35,5.82,9.23,14.48,10.92,22.92a116.29,116.29,0,0,1,2.16,27.17,14,14,0,0,1-.57,4,17.7,17.7,0,0,1-1.85,3.49,46.59,46.59,0,0,0-5.6,13.8l-1.11-1.76-2,11.11a28,28,0,0,0-1.16-11.86,16.7,16.7,0,0,0-2.5,6.33,27.76,27.76,0,0,1,.49-10,130.43,130.43,0,0,0-9.62,20.22c-1.24,3.32-2.36,7-1.34,10.37a12.59,12.59,0,0,1,.8,2.91,7.3,7.3,0,0,1-.66,2.89l-5.65,15c-1.17,1.07-2.81-1.41-4.35-1a2.44,2.44,0,0,0-1.23,1,47.4,47.4,0,0,0-4.57,6.9c-2-1.18-4,1.51-6.11,2.27a4,4,0,0,1-5-4.1l-4.48,3.87c.37-.75-.41-1.65-1.24-1.73a4,4,0,0,0-2.32.83L73,183.41c-1-1.54-.18-3.54-.18-5.36s-2.22-3.86-3.39-2.46l0-4.36c0-.7-.08-1.53-.69-1.89s-1.46,0-2.09.48a59.07,59.07,0,0,0-6.24,5l-.76-2a17.3,17.3,0,0,0-4,3.46l-1.1-3.59-2.76,1.8a40.66,40.66,0,0,1-4.88-25.72" fill="#8b5e3c"/><path d="M59.56,24.84C64.72,23,70,21.12,75.56,21s10.89,1.75,16.15,3.05,10.8,2.18,15.68,4.46c2.3,1.08,4.39,2.37,5.12,4.94a56.23,56.23,0,0,0,2,6.69,28.85,28.85,0,0,0,8.27,11.09,58.84,58.84,0,0,1,5.61,4.84,28.36,28.36,0,0,1,4,5.51,49.15,49.15,0,0,1,4.78,13.24,108.85,108.85,0,0,1,2.39,16.08q.34,4.74.32,9.5c0,3.13.16,6.37-1.45,9.17a72.2,72.2,0,0,0-3.93,7.37,48.8,48.8,0,0,0-2.68,8.17l1.83-.23-1.12-1.77c-.42-.67-1.67-.66-1.83.24l-2,11.11,2,.27a29.66,29.66,0,0,0-1.19-12.13,1,1,0,0,0-1.83-.24A18.29,18.29,0,0,0,125,129l2,.26a28.1,28.1,0,0,1,.45-9.76,1,1,0,0,0-1.83-.77,131.58,131.58,0,0,0-6.41,12.44c-1.8,4-3.78,8.21-4.69,12.51a13.27,13.27,0,0,0-.07,6c.29,1.15,1,2.28.88,3.5a11.6,11.6,0,0,1-1,3.13l-5.3,14,.46-.6c-.53.38-2-.84-2.55-1a2.66,2.66,0,0,0-2.69.54,18.82,18.82,0,0,0-2.62,3.39A49,49,0,0,0,99,176.9l1.36-.36c-2.19-1.12-4,.44-5.75,1.57a2.93,2.93,0,0,1-4.81-2.54c.1-.94-1.12-1.22-1.7-.71l-4.49,3.87,1.67,1a2.23,2.23,0,0,0-1-2.56,3.22,3.22,0,0,0-3.32.11c-2.93,1.5-5.68,3.54-8.47,5.29l1.36.36c-.68-1.24-.19-2.73-.08-4.06a4.49,4.49,0,0,0-.66-3c-1-1.5-3-2.43-4.4-1l1.71.71a36.62,36.62,0,0,0-.09-5.24,2.27,2.27,0,0,0-2.45-2.13c-1.52.15-2.95,1.56-4.1,2.45q-2.14,1.65-4.12,3.46l1.67.44-.76-2A1,1,0,0,0,59.1,172a19.47,19.47,0,0,0-4.18,3.61l1.68.44-1.11-3.59a1,1,0,0,0-1.47-.59l-2.75,1.79,1.37.36a39.84,39.84,0,0,1-4.78-24.94c.17-1.26-1.76-1.8-1.93-.53a42.11,42.11,0,0,0,5,26.48,1,1,0,0,0,1.37.36l2.75-1.8L53.56,173l1.11,3.59a1,1,0,0,0,1.67.44,17.48,17.48,0,0,1,3.77-3.31l-1.47-.6.76,2a1,1,0,0,0,1.68.44,54.59,54.59,0,0,1,5.67-4.61c.28-.19,1.13-1,1.49-.69s.15,1.2.16,1.47c0,1.29,0,2.58,0,3.87a1,1,0,0,0,1.71.7c.46-.45,1.1.34,1.33.71a3.21,3.21,0,0,1,.27,2.24c-.19,1.65-.44,3.15.4,4.67a1,1,0,0,0,1.37.36l4.89-3.07,2.44-1.54c.26-.16,2.85-1.63,2.49-.49a1,1,0,0,0,1.68,1l4.48-3.87-1.71-.7A5,5,0,0,0,92,180.79a5.19,5.19,0,0,0,3.55-.95c1-.6,2.53-2.19,3.73-1.58a1,1,0,0,0,1.37-.36,49.74,49.74,0,0,1,3.87-6c.61-.79,1-1.71,2.12-1.19a12.05,12.05,0,0,0,2,1c2.09.58,2.53-1.49,3.1-3l2.74-7.25a68.76,68.76,0,0,0,2.59-7c.6-2.33-.66-4.12-.92-6.37a15.74,15.74,0,0,1,1.12-6.91c.79-2.33,1.72-4.61,2.68-6.87a131.79,131.79,0,0,1,7.36-14.58l-1.83-.77a29.92,29.92,0,0,0-.52,10.29c.13,1,1.74,1.49,2,.27a17,17,0,0,1,2.4-6.1l-1.82-.24a28.3,28.3,0,0,1,1.12,11.6c-.12,1.11,1.77,1.37,2,.26l2-11.11-1.83.24,1.12,1.76a1,1,0,0,0,1.83-.23A51,51,0,0,1,139.87,111a14.55,14.55,0,0,0,1.88-7.39c.1-2.93.09-5.85,0-8.78a117.81,117.81,0,0,0-2-17.45,62.29,62.29,0,0,0-4.11-13.76,31.12,31.12,0,0,0-8.4-11.35,56.57,56.57,0,0,1-5.9-5.14,26.44,26.44,0,0,1-4.19-6.08,29.3,29.3,0,0,1-2.38-7,8.65,8.65,0,0,0-3.7-5.73c-4.37-3-9.92-3.92-15-5.17l-9.48-2.34a51.53,51.53,0,0,0-9.12-1.67c-6.36-.39-12.5,1.73-18.4,3.82-1.21.43-.69,2.36.53,1.93Z" fill="#231f20"/><path d="M60,24.06c-9,9.27-14.15,21.53-19.08,33.47-1.11,2.69-2.24,5.56-1.73,8.43.27,1.49,1,2.94.8,4.45a8.85,8.85,0,0,1-1.08,2.81,32,32,0,0,0-3.18,18.59,64,64,0,0,0,3.07,11.64c1.09,3.27,2.23,6.63,4.51,9.21a29.58,29.58,0,0,1,2.9,3.24,11.91,11.91,0,0,1,1.46,3.88A49,49,0,0,1,48,140.44c-1,5-2.71,10.48-.29,15a24.67,24.67,0,0,1,4.92-10.85,17.68,17.68,0,0,0,.82,8.29,65.89,65.89,0,0,0,7.32-11.74,50.82,50.82,0,0,0,3.78,10.2l3.57-7.76,3.67,3.75a2.2,2.2,0,0,0,1.31.82,2.17,2.17,0,0,0,1.51-.74l4.6-4A63.63,63.63,0,0,0,89.68,160a80.23,80.23,0,0,0,4.47-31.14A67.52,67.52,0,0,0,102,139.93l2.73-1.8a7.67,7.67,0,0,0,3.22,4.33,26.77,26.77,0,0,0,2.37-8.86,8,8,0,0,0,6.89,3.16,56.77,56.77,0,0,0-5.42-15.92l8.32.66a24.1,24.1,0,0,1-4.62-8.31l3.37-2.4a29.94,29.94,0,0,0-7.43-10.41" fill="#8b5e3c"/><path d="M59.3,23.36c-6.22,6.45-10.67,14.28-14.39,22.38-1.91,4.15-3.7,8.36-5.38,12.6a15.43,15.43,0,0,0-1.41,6.94,21.46,21.46,0,0,0,.69,3.16,5.43,5.43,0,0,1-.66,4.08,33.91,33.91,0,0,0-3.61,13,39,39,0,0,0,2,14c1.28,4.2,2.49,8.89,5.07,12.52,1.24,1.73,3.11,3,4.12,4.9,1.11,2.09,1.45,4.74,1.8,7a48.92,48.92,0,0,1-.62,17.23c-1,4.86-2.36,10,0,14.69a1,1,0,0,0,1.83-.23,24.37,24.37,0,0,1,4.65-10.41l-1.7-.71a19,19,0,0,0,.86,8.56c.21.63,1.17,1.08,1.67.44a68.65,68.65,0,0,0,7.47-11.94l-1.83-.24a54.86,54.86,0,0,0,3.89,10.44,1,1,0,0,0,1.73,0L69,144.05l-1.57.21c1.11,1.13,2.22,2.28,3.34,3.41.78.8,1.61,1.61,2.82,1.41s2-1.21,2.81-1.92L80,144.07l-1.57-.21A66,66,0,0,0,89,160.7a1,1,0,0,0,1.68-.44,82,82,0,0,0,4.5-31.41l-1.87.5a70.32,70.32,0,0,0,8,11.28,1,1,0,0,0,1.21.16l2.73-1.79-1.47-.6a9,9,0,0,0,3.68,4.92,1,1,0,0,0,1.36-.36,29.34,29.34,0,0,0,2.51-9.36l-1.71.7a9,9,0,0,0,7.6,3.46,1,1,0,0,0,1-1.27,59.29,59.29,0,0,0-5.51-16.16l-.87,1.51,8.32.66c1,.08,1.21-1.1.71-1.7a23.88,23.88,0,0,1-4.37-7.87l-.45,1.13,3.36-2.4a1.05,1.05,0,0,0,.36-1.37,31.28,31.28,0,0,0-7.58-10.62c-1-.87-2.37.54-1.42,1.41A29.91,29.91,0,0,1,118,111.3l.36-1.37-3.36,2.4a1,1,0,0,0-.46,1.13,26,26,0,0,0,4.88,8.75l.7-1.71-8.32-.66a1,1,0,0,0-.86,1.5A57.23,57.23,0,0,1,116.24,137l1-1.27a7.17,7.17,0,0,1-6.18-2.87c-.6-.77-1.64,0-1.71.71a26.3,26.3,0,0,1-2.23,8.35l1.37-.36a6.79,6.79,0,0,1-2.76-3.72,1,1,0,0,0-1.47-.6l-2.73,1.79,1.21.16A67.91,67.91,0,0,1,95,128.34a1,1,0,0,0-1.86.51,80.47,80.47,0,0,1-4.43,30.88l1.67-.45a64.11,64.11,0,0,1-10.28-16.43c-.27-.63-1.14-.57-1.57-.2l-2.47,2.17a13.46,13.46,0,0,1-2.3,2c-1,.51-1.91-.9-2.57-1.58l-2.33-2.39a1,1,0,0,0-1.57.2l-3.57,7.77h1.73a51.38,51.38,0,0,1-3.69-10,1,1,0,0,0-1.83-.24,66.08,66.08,0,0,1-7.16,11.54l1.68.44a17.65,17.65,0,0,1-.79-8,1,1,0,0,0-1.71-.71,26.53,26.53,0,0,0-5.17,11.29l1.83-.24c-2.14-4.18-.69-9,.22-13.36a51.15,51.15,0,0,0,1-14.29A49.61,49.61,0,0,0,48.75,120a12.69,12.69,0,0,0-2.41-5.58c-1.39-1.67-3-3-4-4.93a35,35,0,0,1-2.47-6.09c-1.51-4.54-3.06-9.14-3.32-13.95a31.32,31.32,0,0,1,2.2-13.37C39.5,74.1,41,72.14,41,70a11.4,11.4,0,0,0-.6-3.16,9.09,9.09,0,0,1-.16-4.18,34.36,34.36,0,0,1,2.27-6.38c.89-2.14,1.78-4.27,2.71-6.39,4-9,8.57-17.93,15.47-25.08.89-.93-.52-2.34-1.42-1.41Z" fill="#231f20"/><path d="M204.7,101.73c.14-1.36,2-1.9,3.24-1.25a6.32,6.32,0,0,1,2.41,3.21,31.48,31.48,0,0,1,3.49-4.94c.28-.31.63-.65,1-.58s.66.54.82,1l1.73,4.64c.63-1.27,2.63-.78,3.58.27s1.58,2.51,2.9,3a3.55,3.55,0,0,1,3.69.13,5.93,5.93,0,0,1,2.34,5.72,17.63,17.63,0,0,1-2.28,6.07L226,122.09c-.48.9-1.27,1.94-2.24,1.67a2,2,0,0,1-1-.8,10,10,0,0,1-1.91-4.33,24.5,24.5,0,0,0-3.83,6,5.11,5.11,0,0,1-2.83-3.84,15,15,0,0,1,.11-4.95l-2.68,5c-.52,1-1.32,2.12-2.43,2-1.48-.19-1.63-2.26-1.37-3.73l.91-5.17-1.19.9a7.27,7.27,0,0,1-1.14-5.81,9.83,9.83,0,0,0,.57-2.8c-.09-1.47-1.25-2.61-2.33-3.61" fill="#8b5e3c"/><path d="M205.66,102c.2-1,1.41-.93,2.09-.47a6.21,6.21,0,0,1,1.74,2.67,1,1,0,0,0,1.73,0,29,29,0,0,1,3.19-4.57c.42-.48.17-.39.41,0a7.49,7.49,0,0,1,.52,1.39l1.13,3a1,1,0,0,0,1.83.24c.67-1.09,2.26.78,2.62,1.26a6.16,6.16,0,0,0,2.49,2.39c.63.24.87,0,1.47-.22a2.8,2.8,0,0,1,2.39.47,4.66,4.66,0,0,1,1.69,3.35c.28,3-1.56,5.8-2.88,8.32-.36.68-.69,1.4-1.1,2.06s-.7,1.15-1.28.62a8.05,8.05,0,0,1-1.85-4.15,1,1,0,0,0-1.67-.44,26.92,26.92,0,0,0-4,6.15l1.37-.36c-3.05-1.39-2.59-5.18-2.23-7.92.13-1-1.43-1.33-1.87-.5l-2.11,4c-.28.52-1.39,3.18-2.29,2.37-.61-.55-.28-2.11-.16-2.77.26-1.57.55-3.14.82-4.7.14-.75-.69-1.71-1.46-1.13l-1.19.89,1.36.36a6.6,6.6,0,0,1-1.18-3.49,19.15,19.15,0,0,1,.69-3.67c.34-2.21-1-3.84-2.56-5.25-.94-.88-2.36.53-1.41,1.41a6.28,6.28,0,0,1,1.94,2.46c.35,1.16-.37,2.42-.55,3.57a8.37,8.37,0,0,0,1.35,6,1,1,0,0,0,1.37.36l1.19-.89-1.47-1.13a48.11,48.11,0,0,0-1,6.3c-.06,1.29.23,2.88,1.46,3.57,1.43.8,2.9-.11,3.75-1.29a52.75,52.75,0,0,0,3.22-5.91l-1.86-.51c-.46,3.47-.52,7.93,3.22,9.65a1,1,0,0,0,1.36-.36,25.4,25.4,0,0,1,3.68-5.74l-1.67-.45c.39,2,1.94,6.59,4.74,5.84,1.35-.36,2-1.79,2.63-2.92.82-1.55,1.68-3.08,2.41-4.68,1.2-2.67,1.87-5.7.51-8.45a5,5,0,0,0-6.8-2.5h1c-1.73-.8-2.23-2.94-4-3.77a2.88,2.88,0,0,0-3.87.84l1.83.24c-.58-1.54-1.13-3.1-1.74-4.63-.38-1-1-1.87-2.21-1.66s-1.86,1.47-2.49,2.29a31.75,31.75,0,0,0-2.47,3.7h1.73c-.78-1.69-1.85-3.61-3.86-3.93a3.1,3.1,0,0,0-3.63,2.2c-.26,1.26,1.67,1.8,1.93.54Z" fill="#231f20"/><path d="M200.89,101.2c-2.06-8.72-4.41-18-10.92-24.13a1.7,1.7,0,0,0-1.07-.59,1.81,1.81,0,0,0-1.05.46L179.58,83c1.61,3.52,4.76,6,7.79,8.46l12.72,10.06" fill="#009444"/><path d="M201.86,100.94c-1.55-6.55-3.19-13.28-6.76-19.07a28.85,28.85,0,0,0-2.79-3.81c-.83-1-2-2.57-3.41-2.58a3.39,3.39,0,0,0-2,.88l-2.75,2-5.12,3.76a1,1,0,0,0-.36,1.36c1.84,3.87,5.24,6.53,8.52,9.12l12.14,9.61c1,.79,2.42-.62,1.41-1.41L189,91.52c-3.27-2.58-6.75-5.16-8.59-9l-.36,1.37,4.53-3.32L186.78,79c.47-.34,1.45-1.4,2.05-1.4s1.21,1,1.54,1.33a23.87,23.87,0,0,1,1.59,1.9,30.13,30.13,0,0,1,2.29,3.61c2.88,5.3,4.3,11.25,5.68,17.07.29,1.25,2.22.72,1.93-.53Z" fill="#231f20"/><path d="M180.69,86.16a16.53,16.53,0,0,0-13.92,14.11,11.27,11.27,0,0,1,7.62.1,29.89,29.89,0,0,1,6.85,3.65,3.46,3.46,0,0,0,1.31.63,3.56,3.56,0,0,0,1.83-.34l10.09-3.83a3.21,3.21,0,0,1,1.91-.29" fill="#009444"/><path d="M180.42,85.2a17.57,17.57,0,0,0-14.65,15.07,1,1,0,0,0,1.26,1,10.88,10.88,0,0,1,7.5.24c2.44.89,4.43,2.46,6.67,3.71s4.79-.42,6.89-1.21l3.9-1.48,1.83-.69a5.28,5.28,0,0,1,2.3-.65c1.26.19,1.8-1.74.53-1.93a6.34,6.34,0,0,0-3.36.65l-4.13,1.56L185,103c-.79.3-1.8.87-2.66.54a8.46,8.46,0,0,1-1.53-1c-4.22-2.72-9.28-5.07-14.34-3.26l1.27,1A15.6,15.6,0,0,1,181,87.13c1.27-.18.73-2.11-.53-1.93Z" fill="#231f20"/><path d="M214.64,133.36a69.54,69.54,0,0,1,18.25,30.15l7.39-17.19a33.89,33.89,0,0,0,2-5.48c.85-3.58.53-7.31.19-11a55.9,55.9,0,0,0-14.37-4.7,3.25,3.25,0,0,0-1.28-.06,3.06,3.06,0,0,0-1.43.86c-1.91,1.77-3.62,4.21-6.21,4.42a8.07,8.07,0,0,0-1.84.14c-.59.19-1.12.8-.92,1.38" fill="#009444"/><path d="M213.93,134.07a69.13,69.13,0,0,1,18,29.71c.22.74,1.47,1.07,1.83.24l6.12-14.26c1.92-4.47,3.87-8.7,3.93-13.66,0-1.28-.05-2.56-.14-3.84-.07-.86.13-2.42-.5-3.1a9.14,9.14,0,0,0-2.83-1.35c-1.1-.46-2.21-.9-3.33-1.3a58,58,0,0,0-7.07-2c-2.05-.44-3.62-.74-5.27.75s-2.93,3.54-5.08,4c-1.07.25-2.2-.07-3.18.58a2.17,2.17,0,0,0-1,2.29c.18,1.27,2.1.73,1.93-.53,0-.15,2.7-.38,3.08-.5a7.31,7.31,0,0,0,2.24-1.23,20.67,20.67,0,0,0,2.11-2c.76-.76,1.57-1.91,2.73-1.85a30,30,0,0,1,7.2,1.76,54.93,54.93,0,0,1,7.23,2.87l-.5-.86a42.83,42.83,0,0,1,.21,8.62,29.21,29.21,0,0,1-2.64,8.23L232,163l1.83.24a71.32,71.32,0,0,0-18.51-30.6c-.93-.9-2.34.52-1.42,1.42Z" fill="#231f20"/><path d="M222.8,144.92c-2,2.46-1.77,6.11-.59,9.06s3.16,5.53,4.46,8.42a40.7,40.7,0,0,1,2.18,6.93l1.94,7.76c5.4-2.6,8.65-8.15,11.57-13.39,1.18-2.12,2.39-4.37,2.27-6.79-.16-3.36-2.79-6-5.26-8.3" fill="#009444"/><path d="M221.94,144.41c-3.46,4.52-.78,10.26,1.7,14.5a34.16,34.16,0,0,1,3.68,8.48c.89,3.31,1.67,6.65,2.5,10a1,1,0,0,0,1.47.6c5.6-2.78,8.9-8.33,11.84-13.59,1.55-2.78,3.07-5.78,2.27-9-.74-3-3.11-5.36-5.32-7.42-.94-.88-2.36.53-1.41,1.41,2,1.86,4.26,4,4.85,6.72.63,3-1.28,5.85-2.68,8.33-2.63,4.65-5.62,9.41-10.56,11.86l1.47.6c-1.43-5.72-2.4-11.85-5.29-17.05-2.31-4.14-6.34-9.74-2.8-14.36.79-1-.95-2-1.72-1Z" fill="#231f20"/><path d="M239.82,147.6a13.93,13.93,0,0,0,6.13.17,26.58,26.58,0,0,0,3.33-21.27c-.39-1.42-1-3-2.34-3.59a5.94,5.94,0,0,0-2.13-.42l-13.45-.92a3,3,0,0,0-1.49.16,1,1,0,0,0-.58,1.23" fill="#009444"/><path d="M239.55,148.56a15.48,15.48,0,0,0,5.79.32,2,2,0,0,0,1.8-1.12,26.82,26.82,0,0,0,1.37-2.53,28.06,28.06,0,0,0,2.66-10.8c.13-3.32-.13-7.4-1.76-10.37a4.69,4.69,0,0,0-3.73-2.49c-2.18-.27-4.41-.32-6.6-.47-2.57-.17-5.14-.4-7.72-.53-1.66-.08-3.46.69-3,2.66.27,1.26,2.2.73,1.92-.53,0-.13,5.13.15,5.59.18l5.73.39c1.57.11,4.24-.2,5.47.92s1.38,2.81,1.66,4.17a25.75,25.75,0,0,1-3.62,18.91l.6-.46a13.38,13.38,0,0,1-5.6-.18c-1.25-.3-1.78,1.63-.53,1.93Z" fill="#231f20"/><path d="M100.75,110.87c-1.42-7-8.36-10.91-15-11.31a33.42,33.42,0,0,0-12.14,1.86c-3.46,1.11-6.89,2.74-9,5.82A9,9,0,0,0,63,112.6c.1,2.18,1.46,4.15,1.21,6.35-.09.89,1.15,1.28,1.71.71a19.2,19.2,0,0,1,14.93-5.6c3,.21,5.61,1.41,8.58.41,3.2-1.06,6.1-2,9.52-2a1,1,0,0,0,0-2,27.21,27.21,0,0,0-9.64,1.9,9.16,9.16,0,0,1-5.46.09,22.28,22.28,0,0,0-4.15-.48,21.23,21.23,0,0,0-15.19,6.23l1.7.71c.24-2.13-.93-3.92-1.18-6a7.35,7.35,0,0,1,2-5.6c2.91-3.24,7.82-4.48,11.93-5.3,4.33-.86,9.1-.94,13.14,1.09a12.11,12.11,0,0,1,6.74,8.24c.26,1.26,2.18.72,1.93-.54Z" fill="#231f20"/><path d="M65.33,108.74a10.43,10.43,0,0,0,2.27,3.79,6.39,6.39,0,0,0,1.23-3.89,2.38,2.38,0,0,0,2.39-.69,7.51,7.51,0,0,1,2-1.63c1-.42,2.26-.11,3.27-.57.57-.26,1.09-.77,1.72-.71s.93.51,1.43.7c1.81.72,4-2,5.48-.84a3.34,3.34,0,0,1,.81,2.18c.14.78.6,1.69,1.4,1.69,1,0,1.33-1.23,1.47-2.18s.74-2.15,1.67-1.92c.57.15,1.19.81,1.6.38a1.21,1.21,0,0,0-.36-1.69,3.52,3.52,0,0,0-1.88-.45c-1.7-.07-3.4-.11-5.1-.11a10,10,0,0,0-2.84.26c-.91.25-1.75.75-2.66,1a10.75,10.75,0,0,1-4.75-.15l6.68-1.46c2.49-.55,5.38-1,7.35.62-3.09-.89-6.28,1.17-9.49,1.08-1,0-2-.26-2.93-.35a11.09,11.09,0,0,0-10.66,5.76" fill="#fff"/><path d="M68,85.19a5,5,0,0,0-2.81,5.15c1.08,0,1.51-1.77,2.58-1.74a2,2,0,0,1,1.23.79,9,9,0,0,0,4.34,2.45,1.62,1.62,0,0,0,.9,0c1-.32.75-1.75,1.08-2.73a2.16,2.16,0,0,1,3.11-1.06,8.43,8.43,0,0,0,1.07.82c1.08.5,2.24-.47,3-1.36a2,2,0,0,0,.72-1.61,1.81,1.81,0,0,0-.77-1,11.56,11.56,0,0,0-6.84-2,34.31,34.31,0,0,0-7.18.94" fill="#231f20"/><path d="M67.65,73.86c-.9-1.76-3.35-2.8-5-1.64a14.67,14.67,0,0,1-1.37,1.13c-.53.29-1.33.21-1.53-.35l-3.19,3.77a3.54,3.54,0,0,1-2.27,1.55c.35.37.69.74,1,1.1l-2.32,1.82c-.13.1-.28.25-.23.41s.23.21.38.28a1.18,1.18,0,0,1,.52,1.36,3.38,3.38,0,0,1-.84,1.32,1.51,1.51,0,0,1,1.67.21,4.47,4.47,0,0,0,1.53.92c1.57.33,2.61-1.83,4.2-2.07a6.6,6.6,0,0,1,1.09,0,5,5,0,0,0,3.6-2A14.6,14.6,0,0,0,67,78l.79,1.65C68.29,77.73,68.55,75.61,67.65,73.86Zm-2,5.22-1.17,1.09a4.51,4.51,0,0,1-2,1.33,1.55,1.55,0,0,1-1.89-1.12,1.84,1.84,0,0,1,1.19-1.64,8.69,8.69,0,0,0,1.93-1c.36-.31.69-.77,1.17-.79C65.68,77,65.81,78.23,65.63,79.08Z" fill="#231f20"/><path d="M103,73.84c-.13-.67-1.46-.78-1.27-1.45.06-.22.28-.34.41-.53.33-.45.05-1.1-.34-1.51a5,5,0,0,1-1.12-1.23c-.18-.4-.18-.89-.51-1.18a1.43,1.43,0,0,0-1-.24,17.49,17.49,0,0,0-4.37.59,3,3,0,0,1-2,.08,10.33,10.33,0,0,1-.87-.6c-1.08-.66-2.51,0-3.46.8A11.73,11.73,0,0,1,85.52,71a1.09,1.09,0,0,1-.77.08c-.54-.21-.57-1-1.08-1.31s-1.25.35-1.61.94l-1.61,2.65a7.5,7.5,0,0,0-1,2.28A2.49,2.49,0,0,0,80,78a1.54,1.54,0,0,0,2.22-.09l.31-.25a9.59,9.59,0,0,0,4.63,2.31,9.5,9.5,0,0,0,2.49-.21,19.42,19.42,0,0,0,4.58-1.19,4,4,0,0,1,1.29-.45,7.43,7.43,0,0,1,1.54.22c2.34.32,4.22-1.8,5.62-3.7A1.08,1.08,0,0,0,103,73.84Zm-10.32.34a2,2,0,0,1-1,2.68,5.67,5.67,0,0,1-3.17.3,2.46,2.46,0,0,1-1.08-.27A1.69,1.69,0,0,1,87,74.66a3.88,3.88,0,0,1,2-1.48c1.8-.78,4.16-1,5.49.4Z" fill="#231f20"/></svg>