<svg id="Layer_2" data-name="Layer 2" xmlns="http://www.w3.org/2000/svg" width="16" height="16" viewBox="0 0 16 16"><title>Artboard 5</title><rect x="-0.37" y="-0.61" width="16.74" height="16.74" fill="#231f20"/><path d="M12.8,6.27A1,1,0,0,0,12,7.44a2.64,2.64,0,0,0,.15.45,2.32,2.32,0,0,1,.21.89,6.5,6.5,0,0,1-.44,1.38,3.19,3.19,0,0,1-.13.44,2.12,2.12,0,0,1-.23.35l-.39.5a6.36,6.36,0,0,0-.07-2.13,1.8,1.8,0,0,0-.35-.84c-.23-.27-.59-.41-.81-.69a1.93,1.93,0,0,1-.3-.69,4.25,4.25,0,0,1-.14-.71c0-.11,0-.23,0-.34a10.08,10.08,0,0,0-.68-1.88c-.07-.23-.12-.49-.32-.61l-5.9,6A9,9,0,0,0,1.72,11a.29.29,0,0,0,0,.22c0,.1.17.13.25.2s.08.42.23.56.77-.07.9.23a.58.58,0,0,1,0,.32,1.58,1.58,0,0,0,.45,1.07,1.15,1.15,0,0,0,.4.36,1.19,1.19,0,0,0,.46.06l1.73,0a2.8,2.8,0,0,0,1.08-.15,11.06,11.06,0,0,0,1.34-.93.17.17,0,0,1,.12,0c.06,0,.09,0,.13.1.21.31.36.67.58,1a1.14,1.14,0,0,0,.93.56c.29,0,.64-.15.83.07a.71.71,0,0,0,.1.14c.17.16.44,0,.56-.22A10.52,10.52,0,0,0,12.42,13c.26-.58.67-1.07.91-1.66a6,6,0,0,0,.27-1c.05-.27.11-.55.16-.83s.07-.43-.08-.56-.14-.09-.18-.15a.43.43,0,0,1,0-.25,1.11,1.11,0,0,0-.83-1,1.32,1.32,0,0,0,.27-1.16" fill="#8b5e3c"/><path d="M12.77,6.17A1.17,1.17,0,0,0,12,7.77a2.24,2.24,0,0,1,0,1.76q-.15.38-.27.75a3.35,3.35,0,0,1-.69,1.1l.18.07A6.23,6.23,0,0,0,11.09,9C10.85,8.23,10,8,9.75,7.25s-.14-1.32-.4-1.95C9.2,4.91,9,4.55,8.86,4.14a1.14,1.14,0,0,0-.34-.65.11.11,0,0,0-.14,0l-2.91,3c-1,1-2.08,2-3,3a4.76,4.76,0,0,0-.47.73,2.37,2.37,0,0,0-.43.89c0,.16,0,.17.11.29a4.85,4.85,0,0,1,.29.49.71.71,0,0,0,.12.18c.17.16.35.06.55.11.39.1.27.53.39.86a1.61,1.61,0,0,0,1.1,1.08,8.19,8.19,0,0,0,1.31,0,8.28,8.28,0,0,0,1.32,0,2.13,2.13,0,0,0,.93-.39c.34-.25.73-.8,1.13-.39.21.21.3.58.5.82a1.42,1.42,0,0,0,.69.49c.32.08.6-.06.91.09s.31.24.53.2c.57-.11.74-1.11.91-1.54a22.44,22.44,0,0,0,1.25-2.73c.13-.6.4-1.27.1-1.82s-.31-1.19-1.07-1.44l.06.15A1.53,1.53,0,0,0,13,6.25c0-.13-.22-.07-.19,0a1.35,1.35,0,0,1-.27,1.09c0,.05,0,.12.06.14a1.05,1.05,0,0,1,.65.53c.1.2,0,.44.13.62a1.45,1.45,0,0,1,.24.94,6.62,6.62,0,0,1-1,2.72,6.33,6.33,0,0,0-.48,1c-.15.45-.31,1.38-1,1.17-.15,0-.2-.16-.39-.17s-.25,0-.38,0a1.15,1.15,0,0,1-1-.52c-.21-.29-.43-1.15-.87-1.08-.22,0-.45.28-.62.42a2.64,2.64,0,0,1-1.72.67l-1.3,0a3.19,3.19,0,0,1-.69,0,1.45,1.45,0,0,1-.94-.87c-.12-.28,0-.64-.14-.9S2.9,12,2.72,12a.76.76,0,0,1-.59-.37c0-.06-.09-.19-.12-.25s-.06,0-.07,0a.87.87,0,0,1,0-.43,3.09,3.09,0,0,1,.34-.65,4.21,4.21,0,0,1,.55-.76c.49-.52,1-1,1.52-1.54L8.15,4s.3-.38.37-.37.28.94.35,1.09a4.41,4.41,0,0,1,.48,1.49,2.63,2.63,0,0,0,.75,1.9,2.1,2.1,0,0,1,.7.72,2.48,2.48,0,0,1,.2.72,6.65,6.65,0,0,1,0,1.89.1.1,0,0,0,.17.08,6.32,6.32,0,0,0,1.16-2.37A2,2,0,0,0,12.27,8a2.55,2.55,0,0,1-.22-.76,1,1,0,0,1,.78-.91c.12,0,.07-.23-.06-.2Z" fill="#231f20"/><path d="M3.48,5.56a.38.38,0,0,0-.24.28,2,2,0,0,0,0,.24c0,.08-.05.15-.07.22A1.16,1.16,0,0,0,3,6.71a.9.9,0,0,0,.09.43c.06.12.23,0,.17-.1a.88.88,0,0,1-.06-.33,1,1,0,0,1,.11-.34A1.33,1.33,0,0,0,3.41,6c0-.09,0-.24.12-.27s.07-.24,0-.2Z" fill="#231f20"/><path d="M5.6,5.22l.34.1a1.1,1.1,0,0,1,.32.11,1.2,1.2,0,0,1,.22.23L6.71,6s.1,0,.14,0a.11.11,0,0,0,0-.14l-.24-.3a.85.85,0,0,0-.25-.25A1,1,0,0,0,6,5.13L5.65,5c-.12,0-.18.16-.05.19Z" fill="#231f20"/><path d="M3.51,1A3.08,3.08,0,0,1,4.66.71a2.51,2.51,0,0,1,.61.1L6.11,1a2.44,2.44,0,0,1,.7.25A.61.61,0,0,1,7,1.44a.79.79,0,0,1,.08.26,1.8,1.8,0,0,0,.55.94L8,2.93a2.7,2.7,0,0,1,.71,1.49A7.13,7.13,0,0,1,8.83,6.2a1.24,1.24,0,0,1,0,.27,1,1,0,0,1-.13.22,3,3,0,0,0-.36.91l-.07-.12-.13.73A1.88,1.88,0,0,0,8,7.43a1.08,1.08,0,0,0-.16.42,1.83,1.83,0,0,1,0-.66,8.39,8.39,0,0,0-.63,1.32,1.08,1.08,0,0,0-.09.68.67.67,0,0,1,.05.19.41.41,0,0,1,0,.19l-.37,1c-.08.07-.18-.09-.28-.07a.17.17,0,0,0-.08.06,2.59,2.59,0,0,0-.3.46c-.13-.08-.26.1-.4.14a.26.26,0,0,1-.33-.26l-.29.25c0-.05,0-.11-.08-.11a.21.21,0,0,0-.15.05l-.51.32c-.06-.1,0-.23,0-.35s-.14-.25-.22-.16v-.29s0-.1,0-.12-.09,0-.14,0a3.19,3.19,0,0,0-.4.33l-.05-.13a1,1,0,0,0-.26.23l-.08-.24L3,10.81a2.74,2.74,0,0,1-.32-1.68" fill="#8b5e3c"/><path d="M3.53,1.05A2.87,2.87,0,0,1,5.24.91a9.6,9.6,0,0,1,1.2.31c.47.16.48.44.65.83a2.09,2.09,0,0,0,.59.76,3.33,3.33,0,0,1,1,2.4,2.77,2.77,0,0,1-.12,1.43,5,5,0,0,0-.38.93l.18,0-.07-.12c0-.07-.17-.07-.18,0L8,8.18l.2,0a2.66,2.66,0,0,0-.08-.8.11.11,0,0,0-.19,0,1.82,1.82,0,0,0-.17.44l.2,0a2.22,2.22,0,0,1,0-.63.1.1,0,0,0-.18-.08,6.63,6.63,0,0,0-.69,1.51,1.31,1.31,0,0,0,0,.48,1.89,1.89,0,0,1-.16.9c0,.14-.08.32-.22.39s-.1-.05-.13,0a.7.7,0,0,0-.17.09c-.14.1-.2.32-.33.41s-.49.25-.53,0c0-.08-.12-.09-.17,0l-.29.25.17,0c-.07-.46-.75.12-.89.2l.15.06c-.07-.23,0-.69-.36-.58l.13.1c0-.72-.31-.52-.76-.12l.16,0,0-.13c0-.05-.09-.1-.14-.06a1.35,1.35,0,0,0-.28.25l.16,0-.07-.23a.1.1,0,0,0-.15-.06c-.3.2-.37-1.24-.35-1.48s-.18-.13-.2,0a3,3,0,0,0,.34,1.73.1.1,0,0,0,.13,0l.18-.12-.14-.06.07.23a.11.11,0,0,0,.17.05l.24-.21-.15-.06,0,.13a.11.11,0,0,0,.17,0c.3-.27.42-.49.42,0A.1.1,0,0,0,4.2,11c.06,0,.09.38.11.45a.1.1,0,0,0,.14.06A2.92,2.92,0,0,1,5,11.16c0,.08.12.08.17,0L5.5,11l-.16,0a.38.38,0,0,0,.27.35c.21,0,.33-.19.52-.16a.09.09,0,0,0,.11,0,.65.65,0,0,1,.58-.4.12.12,0,0,0,.1-.08,3.5,3.5,0,0,0,.37-1.36,4,4,0,0,1,.69-2L7.8,7.16a2.66,2.66,0,0,0,0,.69.1.1,0,0,0,.19,0,1.11,1.11,0,0,1,.16-.39l-.19,0A2.37,2.37,0,0,1,8,8.21a.1.1,0,0,0,.19,0l.13-.72-.18,0,.07.12a.1.1,0,0,0,.18,0c.11-.42.4-.78.51-1.19A4.23,4.23,0,0,0,8.88,5a3.32,3.32,0,0,0-1-2.3,1.91,1.91,0,0,1-.51-.55c-.14-.23-.14-.52-.28-.75A1.12,1.12,0,0,0,6.41,1,11.23,11.23,0,0,0,4.89.63,3,3,0,0,0,3.48.86c-.12,0-.07.23,0,.19Z" fill="#231f20"/><path d="M3.55,1A6.49,6.49,0,0,0,2.31,3.16a1,1,0,0,0-.12.55A.71.71,0,0,1,2.24,4a.45.45,0,0,1-.07.18A2,2,0,0,0,2,5.4a3.41,3.41,0,0,0,.2.76,1.67,1.67,0,0,0,.29.6A1.9,1.9,0,0,1,2.65,7a.82.82,0,0,1,.1.26,3.23,3.23,0,0,1,0,1.35,1.5,1.5,0,0,0,0,1,1.64,1.64,0,0,1,.32-.71,1.24,1.24,0,0,0,.06.54,5.52,5.52,0,0,0,.48-.77,3.15,3.15,0,0,0,.24.67l.24-.51L4.33,9s0,.05.08.05A.14.14,0,0,0,4.51,9l.3-.26a4.42,4.42,0,0,0,.68,1.09,5.44,5.44,0,0,0,.3-2,4,4,0,0,0,.51.73l.18-.12a.49.49,0,0,0,.21.28,1.66,1.66,0,0,0,.15-.58.54.54,0,0,0,.45.21,3.45,3.45,0,0,0-.35-1l.54,0a1.78,1.78,0,0,1-.3-.54l.22-.16A2,2,0,0,0,6.92,6" fill="#8b5e3c"/><path d="M3.48.9A6.35,6.35,0,0,0,2.33,2.84a2.07,2.07,0,0,0-.23.89c0,.45-.22.83-.25,1.28a3,3,0,0,0,.2,1.1,2.88,2.88,0,0,0,.44.83,2.24,2.24,0,0,1,.18,1.61,1.81,1.81,0,0,0,0,1c0,.09.17.11.2,0a1.91,1.91,0,0,1,.31-.68L3,8.85A1.59,1.59,0,0,0,3,9.42a.1.1,0,0,0,.18,0,4.33,4.33,0,0,0,.48-.77l-.18,0a3.38,3.38,0,0,0,.26.69.1.1,0,0,0,.17,0l.23-.51L4,8.85c.41.43.44.36.86,0l-.16,0a5.33,5.33,0,0,0,.7,1.11.1.1,0,0,0,.17,0,5.75,5.75,0,0,0,.3-2.06l-.19,0a5.63,5.63,0,0,0,.53.75.11.11,0,0,0,.12,0l.18-.12-.15-.06a.73.73,0,0,0,.24.33.11.11,0,0,0,.17,0,2.18,2.18,0,0,0,.15-.61l-.17.07a.67.67,0,0,0,.52.24.11.11,0,0,0,.1-.13A4.91,4.91,0,0,0,7,7.25l-.09.15.54,0c.1,0,.12-.11.07-.17s-.32-.38-.1-.54a.11.11,0,0,0,0-.14,2.49,2.49,0,0,0-.5-.7c-.1-.09-.24.05-.14.14a2.34,2.34,0,0,1,.47.66l0-.14-.22.16a.09.09,0,0,0,0,.11,2.1,2.1,0,0,0,.32.59l.07-.17-.54,0c-.08,0-.12.08-.09.15a4,4,0,0,1,.35,1l.09-.12-.38-.18c-.06-.07-.16,0-.17.07a1.66,1.66,0,0,1-.15.55l.17,0L6.57,8.4a.1.1,0,0,0-.14-.06C6.2,8.49,6,8,5.87,7.77s-.19,0-.18.05a5.7,5.7,0,0,1-.29,2l.16,0A4.54,4.54,0,0,1,4.9,8.72a.11.11,0,0,0-.16,0c-.21.19-.35.25-.58,0a.11.11,0,0,0-.16,0l-.23.51h.17A3.81,3.81,0,0,1,3.7,8.6a.1.1,0,0,0-.18,0A5.52,5.52,0,0,1,3,9.34l.18,0a1.45,1.45,0,0,1-.05-.51c0-.11-.13-.12-.18,0a2,2,0,0,0-.34.73h.2a2.53,2.53,0,0,1,.06-1.25,2.91,2.91,0,0,0,0-.93c-.06-.37-.2-.45-.4-.75a2.89,2.89,0,0,1-.4-1.22,1.8,1.8,0,0,1,0-.73c0-.19.17-.35.2-.53a6,6,0,0,1,.09-.94A6.5,6.5,0,0,1,3.62,1C3.71.94,3.57.8,3.48.9Z" fill="#231f20"/><path d="M13,6.05A.15.15,0,0,1,13.23,6a.45.45,0,0,1,.16.22,1.9,1.9,0,0,1,.22-.33.13.13,0,0,1,.07,0,.11.11,0,0,1,.06.07l.11.3c0-.08.17,0,.23,0s.11.16.19.19a.25.25,0,0,1,.24,0,.4.4,0,0,1,.16.38,1.32,1.32,0,0,1-.15.39l-.11.21c0,.06-.08.13-.15.11l-.06,0a.67.67,0,0,1-.12-.29,1.66,1.66,0,0,0-.26.39.32.32,0,0,1-.18-.25.86.86,0,0,1,0-.32l-.18.33c0,.06-.09.13-.16.12s-.1-.14-.09-.24l.06-.34-.08.06a.51.51,0,0,1-.07-.38,1.16,1.16,0,0,0,0-.18A.38.38,0,0,0,13,6.1" fill="#8b5e3c"/><path d="M13.11,6.07s.06,0,.09,0a.37.37,0,0,1,.1.17.1.1,0,0,0,.17,0c0-.06.07-.11.1-.16s.09-.1.12-.15h0c-.06,0-.07,0,0,0a.25.25,0,0,0,0,.09l.06.19a.11.11,0,0,0,.19,0,.08.08,0,0,1,.05,0s0,0,.06.07a.52.52,0,0,0,.17.16c.08,0,.15,0,.23,0a.26.26,0,0,1,.12.19,1,1,0,0,1-.18.54l-.08.14s0,0,0,0,0,0,0,0a.8.8,0,0,1-.11-.25.1.1,0,0,0-.17,0,2.19,2.19,0,0,0-.26.41l.13,0c-.18-.08-.15-.32-.12-.48a.1.1,0,0,0-.19,0l-.14.25a.39.39,0,0,1-.06.11s0,0,0,0,0-.13,0-.16,0-.2.05-.3-.07-.17-.15-.11l-.08,0,.14,0a.35.35,0,0,1-.07-.2,1,1,0,0,1,0-.24A.41.41,0,0,0,13.09,6c-.1-.09-.24.06-.15.14s.12.1.13.17,0,.15-.05.22a.59.59,0,0,0,.1.39s.09.07.13,0l.08-.06-.14-.11a1.94,1.94,0,0,0-.07.42.25.25,0,0,0,.12.26.2.2,0,0,0,.27-.09A2.46,2.46,0,0,0,13.73,7l-.18,0c0,.24,0,.54.22.66a.11.11,0,0,0,.14,0,1.47,1.47,0,0,1,.24-.37l-.17,0c0,.15.14.46.35.4s.15-.11.19-.19.12-.22.17-.33a.68.68,0,0,0,0-.59.36.36,0,0,0-.49-.16h.1c-.11,0-.14-.19-.25-.25a.24.24,0,0,0-.31.07l.19,0-.12-.3c0-.07-.08-.14-.17-.13s-.13.08-.18.14a2,2,0,0,0-.18.26h.17a.43.43,0,0,0-.27-.27.24.24,0,0,0-.28.17c0,.13.17.18.19.05Z" fill="#231f20"/><path d="M12.77,6a3.1,3.1,0,0,0-.72-1.58.15.15,0,0,0-.07,0s0,0-.07,0l-.54.39a1.7,1.7,0,0,0,.51.56l.83.65" fill="#009444"/><path d="M12.86,6a4.29,4.29,0,0,0-.44-1.26,2.48,2.48,0,0,0-.19-.26c-.06-.07-.14-.18-.25-.17a.25.25,0,0,0-.14.06l-.18.13-.34.25a.1.1,0,0,0,0,.13,1.81,1.81,0,0,0,.56.61l.79.62c.1.08.25-.06.15-.14L12,5.35a1.73,1.73,0,0,1-.56-.58l0,.14.3-.22.14-.1.08-.06,0,0s0,0,0,0l.06.06.09.11a1.58,1.58,0,0,1,.15.24A4.26,4.26,0,0,1,12.67,6a.1.1,0,0,0,.19,0Z" fill="#231f20"/><path d="M11.45,5a1.07,1.07,0,0,0-.91.92A.69.69,0,0,1,11,6a1.5,1.5,0,0,1,.45.24l.09,0a.25.25,0,0,0,.12,0L12.35,6a.13.13,0,0,1,.12,0" fill="#009444"/><path d="M11.42,4.93a1.18,1.18,0,0,0-1,1,.1.1,0,0,0,.12.1.69.69,0,0,1,.51,0c.15.06.28.18.43.24s.32-.05.46-.1l.24-.09a.65.65,0,0,1,.27-.08c.13,0,.13-.19,0-.2a.54.54,0,0,0-.25.06L12,6l-.27.11s-.09,0-.14,0l-.1-.07a1.13,1.13,0,0,0-1-.21l.13.1a1,1,0,0,1,.83-.82c.13,0,.08-.22-.05-.2Z" fill="#231f20"/><path d="M14.2,8.87a.59.59,0,0,0,0,.59c.08.2.21.37.29.56a2.16,2.16,0,0,1,.15.45l.12.51a1.92,1.92,0,0,0,.76-.88.83.83,0,0,0,.15-.44.85.85,0,0,0-.35-.55" fill="#009444"/><path d="M14.11,8.82a.89.89,0,0,0,.11,1,2.41,2.41,0,0,1,.25.57c0,.21.1.43.16.64a.09.09,0,0,0,.14.06,2,2,0,0,0,.79-.9.89.89,0,0,0,.15-.61A1.07,1.07,0,0,0,15.36,9c-.1-.09-.24.06-.15.14a.85.85,0,0,1,.31.44.81.81,0,0,1-.18.53,1.77,1.77,0,0,1-.67.74l.15.06a4.25,4.25,0,0,0-.34-1.1c-.14-.27-.42-.63-.19-.93.07-.1-.1-.2-.18-.1Z" fill="#231f20"/><path d="M15.31,9.05a1.08,1.08,0,0,0,.4,0,1.71,1.71,0,0,0,.22-1.39.31.31,0,0,0-.15-.24.58.58,0,0,0-.14,0l-.88-.06h-.1a.07.07,0,0,0,0,.09" fill="#009444"/><path d="M15.29,9.14a.94.94,0,0,0,.41,0c.12,0,.17-.15.22-.26a2,2,0,0,0,.17-.72,1.4,1.4,0,0,0-.12-.7.36.36,0,0,0-.29-.17c-.14,0-.29,0-.43,0l-.5,0c-.13,0-.25.08-.22.22s.22.07.19,0t0,0h.33l.37,0h.19c.05,0,.11,0,.16,0a.51.51,0,0,1,.09.26A1.61,1.61,0,0,1,15.63,9l.06,0a.83.83,0,0,1-.35,0,.1.1,0,1,0-.05.19Z" fill="#231f20"/><path d="M13.67,8.12a4.49,4.49,0,0,1,1.19,2L15.34,9a1.91,1.91,0,0,0,.13-.36,2.11,2.11,0,0,0,0-.71,3.58,3.58,0,0,0-.94-.31h-.09s-.06,0-.09,0-.24.28-.41.29h-.12a.08.08,0,0,0-.06.09" fill="#009444"/><path d="M13.6,8.19a4.52,4.52,0,0,1,1.16,1.92c0,.08.15.11.19,0,.17-.41.36-.82.53-1.24a1.63,1.63,0,0,0,.13-.58c0-.11,0-.22,0-.34s0-.15-.1-.2A4.13,4.13,0,0,0,15,7.57a1,1,0,0,0-.55-.08c-.16.07-.23.27-.39.32s-.17,0-.24.05a.18.18,0,0,0-.09.16c0,.13.21.13.2,0,0,0,.17,0,.18,0a.37.37,0,0,0,.15-.08c.1-.07.2-.24.33-.24a2.36,2.36,0,0,1,.44.11,3.66,3.66,0,0,1,.46.18l0-.08a3.47,3.47,0,0,1,0,.56,1.78,1.78,0,0,1-.18.55l-.45,1,.19,0a4.69,4.69,0,0,0-1.22-2c-.09-.09-.24,0-.14.14Z" fill="#231f20"/><path d="M6.25,6.64A.94.94,0,0,0,5.75,6a1.41,1.41,0,0,0-1-.11,1.55,1.55,0,0,0-.9.4.68.68,0,0,0-.19.4c0,.16.09.31.08.47A.1.1,0,0,0,4,7.24a1.23,1.23,0,0,1,1-.35,1.1,1.1,0,0,0,.54,0,2.13,2.13,0,0,1,.62-.12.1.1,0,0,0,0-.2,1.72,1.72,0,0,0-.63.12,1.74,1.74,0,0,1-.64,0,1.47,1.47,0,0,0-1,.42L4,7.17a1.09,1.09,0,0,0-.07-.35A.41.41,0,0,1,4,6.44a1.33,1.33,0,0,1,.77-.34c.48-.09,1.13,0,1.25.59,0,.12.22.07.19-.05Z" fill="#231f20"/><path d="M3.9,6.51a.61.61,0,0,0,.15.24.44.44,0,0,0,.08-.25.17.17,0,0,0,.16,0,.64.64,0,0,1,.13-.1c.07,0,.15,0,.21,0a.26.26,0,0,1,.12,0l.09,0c.12.05.26-.14.36-.06a.27.27,0,0,1,0,.15s0,.11.09.11.09-.08.1-.14,0-.15.11-.13.08,0,.1,0,0-.08,0-.11a.53.53,0,0,0-.12,0H5l-.18.07a.65.65,0,0,1-.31,0l.44-.1a.61.61,0,0,1,.48,0c-.2,0-.41.08-.62.08l-.19,0a.73.73,0,0,0-.7.38" fill="#fff"/><path d="M4.08,5a.34.34,0,0,0-.19.34c.07,0,.1-.11.17-.11s.06,0,.08,0a.64.64,0,0,0,.29.16h.06c.06,0,0-.11.07-.18a.14.14,0,0,1,.2-.07l.07.06c.07,0,.15,0,.2-.09a.22.22,0,0,0,0-.11A.12.12,0,0,0,5,5a.68.68,0,0,0-.44-.14,2.42,2.42,0,0,0-.47.06" fill="#231f20"/><path d="M4.05,4.22a.23.23,0,0,0-.32-.1l-.09.07s-.09,0-.1,0l-.21.24a.27.27,0,0,1-.15.11l.07.07-.15.12a0,0,0,0,0,0,0l0,0a.08.08,0,0,1,0,.09.41.41,0,0,1-.05.09s.07,0,.11,0A.33.33,0,0,0,3.3,5c.1,0,.17-.12.27-.13h.07a.33.33,0,0,0,.24-.12A1,1,0,0,0,4,4.49l0,.11A.55.55,0,0,0,4.05,4.22Zm-.13.35-.08.07a.29.29,0,0,1-.13.08s-.12,0-.12-.07a.11.11,0,0,1,.07-.11.52.52,0,0,0,.13-.06s0-.05.08-.05S3.93,4.51,3.92,4.57Z" fill="#231f20"/><path d="M6.36,4.22s-.09,0-.08-.09,0,0,0,0,0-.07,0-.1a.29.29,0,0,1-.07-.08s0-.05,0-.07a.08.08,0,0,0-.07,0,.9.9,0,0,0-.28,0,.33.33,0,0,1-.14,0l-.05,0a.19.19,0,0,0-.23,0A1,1,0,0,1,5.22,4h0S5.13,4,5.1,4,5,4,5,4l-.11.17a.51.51,0,0,0-.07.15.16.16,0,0,0,0,.15.11.11,0,0,0,.15,0l0,0a.57.57,0,0,0,.3.15.43.43,0,0,0,.16,0,1.47,1.47,0,0,0,.3-.08l.09,0H6c.15,0,.27-.11.36-.24S6.37,4.24,6.36,4.22Zm-.67,0a.14.14,0,0,1-.07.18.37.37,0,0,1-.21,0l-.07,0a.1.1,0,0,1,0-.14.2.2,0,0,1,.12-.1c.12,0,.28-.07.36,0Z" fill="#231f20"/></svg>