<svg xmlns="http://www.w3.org/2000/svg" id="Layer_2" width="64" height="64" viewBox="0 0 64 64"><path fill="#231f20" d="M.82.82h62.36v62.36H.82z"/><path fill="#8b5e3c" d="M49.88 26.43a3.89 3.89 0 0 0-3.13 4.34 8.77 8.77 0 0 0 .56 1.71 8 8 0 0 1 .76 3.28c-.06 1.81-1.14 3.42-1.63 5.16a11.57 11.57 0 0 1-.44 1.65 7.1 7.1 0 0 1-.87 1.31l-1.45 1.86a23.59 23.59 0 0 0-.24-8 6.74 6.74 0 0 0-1.3-3.11c-.87-1-2.21-1.54-3-2.6A7 7 0 0 1 38 29.52a12.67 12.67 0 0 1-.54-2.63V25.6c-.18-2.48-1.86-4.59-2.53-7-.24-.84-.42-1.82-1.18-2.26l-22 22.32a32.48 32.48 0 0 0-3.09 5.4 1 1 0 0 0-.13.8c.14.38.63.47.93.75.56.52.3 1.55.84 2.09.87.88 2.89-.27 3.38.86a2.32 2.32 0 0 1 0 1.17c-.19 1.47.78 2.81 1.69 4a4.18 4.18 0 0 0 1.48 1.36 4.15 4.15 0 0 0 1.72.22l6.43-.1a11.42 11.42 0 0 0 4-.55c1.88-.76 3.2-2.46 5-3.47a.78.78 0 0 1 .46-.14.77.77 0 0 1 .47.38c.81 1.16 1.34 2.49 2.16 3.64a4.45 4.45 0 0 0 3.49 2.09c1.07 0 2.37-.57 3.07.24a5.17 5.17 0 0 0 .39.53c.63.58 1.62-.1 2.08-.81 1.14-1.75 1.52-3.87 2.37-5.78 1-2.15 2.52-4 3.39-6.2a21 21 0 0 0 1-3.81c.21-1 .41-2.06.61-3.09a2.27 2.27 0 0 0-.29-2.12c-.22-.2-.51-.31-.67-.56a1.62 1.62 0 0 1-.16-.93 4.17 4.17 0 0 0-3.08-3.84 5 5 0 0 0 1-4.32"/><path fill="#231f20" d="M49.81 26.19a4.17 4.17 0 0 0-3.05 2.53c-.63 1.52-.07 2.77.47 4.22a6.77 6.77 0 0 1 .51 3.58 14 14 0 0 1-1 2.75c-.37.93-.56 1.9-.9 2.83a13.7 13.7 0 0 1-2.41 3.46l.43.18a22.14 22.14 0 0 0-.52-9.13A5.47 5.47 0 0 0 41.76 34c-1.13-1-2.41-1.58-3-3-1.15-2.67-.73-5.59-1.85-8.24a39.87 39.87 0 0 1-1.76-4.16 4 4 0 0 0-1.29-2.42.27.27 0 0 0-.31 0L12.11 37.92A8.14 8.14 0 0 0 11 39.28a31.94 31.94 0 0 0-2.21 3.85c-.34.7-.9 1.52-.25 2.19.48.5.68.17 1 1.11.08.23.07.49.15.72a1.71 1.71 0 0 0 .48.82c.72.59 1.54.12 2.33.32 1.13.28.77 1.53.88 2.3a4.84 4.84 0 0 0 .62 1.56 8.3 8.3 0 0 0 2.38 2.94c1.06.67 2.49.44 3.68.42 1.8 0 3.61 0 5.41-.08a10.41 10.41 0 0 0 3.71-.58 12.83 12.83 0 0 0 3.16-2.16c.39-.32 1.22-1.22 1.8-1.3.78-.12 1.37 1.44 1.66 2a9.88 9.88 0 0 0 2.23 3 4 4 0 0 0 3.05.94c1.1-.11 1.53-.34 2.55.43.29.22.36.47.74.56 2.27.55 3.29-4 3.77-5.39 1.12-3.19 3.48-5.75 4.41-9 .49-1.7.77-3.48 1.11-5.21a3.26 3.26 0 0 0-.28-2.8c-.06-.1-.21-.13-.28-.22-.56-.69-.41-.81-.51-1.51a4.32 4.32 0 0 0-.6-1.71 4.52 4.52 0 0 0-2.63-2l.11.42a5.39 5.39 0 0 0 1.08-4.56c-.07-.32-.55-.18-.49.13a4.84 4.84 0 0 1-.94 4.08.25.25 0 0 0 .11.41c2 .59 2.63 2.07 2.9 3.93a2 2 0 0 0 .43 1c.48.75.52-.93.81 1.31a4.41 4.41 0 0 1-.19 1.35c-.3 1.6-.59 3.22-1 4.79a18.06 18.06 0 0 1-2.27 4.9 23.52 23.52 0 0 0-2 3.75c-.63 1.62-1 3.51-2 4.94s-2.44-.33-3.66-.27c-.56 0-1.11.19-1.67.19a4.24 4.24 0 0 1-3.27-2c-.83-1.13-1.24-2.68-2.2-3.69-.67-.7-1.14-.37-1.88.13-1.15.79-2.12 1.82-3.31 2.55C28.08 55 26 54.93 24 55c-1.81 0-3.63.11-5.44.08a3.49 3.49 0 0 1-3-1.5A7.24 7.24 0 0 1 14 50.84c-.2-.84.43-2.24-.48-2.84s-2.86.58-3.32-1.12a4.26 4.26 0 0 0-.34-1.17c-.55-.85-1.23-.27-.79-1.92a9.73 9.73 0 0 1 1-2 25.9 25.9 0 0 1 1.64-2.65A12.19 12.19 0 0 1 12.76 38l5.68-5.76L32.45 18c.18-.19 1.11-1.42 1.39-1.42s1.34 3.71 1.54 4.14A15.29 15.29 0 0 1 37.16 26a15.14 15.14 0 0 0 1.07 5.09 7 7 0 0 0 2.66 2.81c1.87 1.41 2.29 3.5 2.56 5.71a24 24 0 0 1-.06 6.1.26.26 0 0 0 .43.18 13.21 13.21 0 0 0 2.76-4.52c.48-1.73 1.49-3.36 1.7-5.16s-.53-3.11-1.05-4.67a3.67 3.67 0 0 1 2.71-4.9c.32-.06.18-.55-.13-.48zM15.2 23.92a1.31 1.31 0 0 0-.82.95c-.08.3-.09.6-.15.9a4.61 4.61 0 0 1-.27.79 4.82 4.82 0 0 0-.44 1.52 3.19 3.19 0 0 0 .3 1.55c.14.29.57 0 .44-.26a2.59 2.59 0 0 1-.26-1.29 4.24 4.24 0 0 1 .39-1.3 4.79 4.79 0 0 0 .36-1.28c.05-.39.12-.94.56-1.1s.17-.59-.13-.48z"/><path fill="#231f20" d="M23.09 22.41l1.28.35a4.66 4.66 0 0 1 1.22.43 3.91 3.91 0 0 1 .82.9l.86 1.06c.2.25.55-.1.35-.35l-.88-1.1a4.41 4.41 0 0 0-.89-.94 4.55 4.55 0 0 0-1.23-.45l-1.4-.38a.25.25 0 0 0-.13.48z"/><path fill="#8b5e3c" d="M15.26 6.63a11.57 11.57 0 0 1 4.3-.92 11.84 11.84 0 0 1 2.28.4l3.16.77a9.13 9.13 0 0 1 2.61.93 2 2 0 0 1 .69.63 3 3 0 0 1 .32 1 6.69 6.69 0 0 0 2.06 3.5c.41.37.87.68 1.27 1.06a10 10 0 0 1 2.66 5.58 27.72 27.72 0 0 1 .53 6.62 3.23 3.23 0 0 1-.14 1 4.34 4.34 0 0 1-.45.85 11.41 11.41 0 0 0-1.36 3.36l-.27-.43-.48 2.71a6.9 6.9 0 0 0-.29-2.89 4.29 4.29 0 0 0-.61 1.54 6.68 6.68 0 0 1 .12-2.44 32.11 32.11 0 0 0-2.34 4.92 4.06 4.06 0 0 0-.32 2.49 3 3 0 0 1 .2.71 1.88 1.88 0 0 1-.16.7l-1.38 3.65c-.29.25-.68-.35-1.06-.26a.59.59 0 0 0-.3.24A11.62 11.62 0 0 0 25.14 44c-.48-.28-1 .37-1.49.56a1 1 0 0 1-1.21-1l-1.09.94c.09-.18-.1-.4-.3-.42a.91.91 0 0 0-.56.2L18.6 45.5c-.24-.38 0-.86 0-1.31s-.55-.94-.83-.6v-1.06a.53.53 0 0 0-.16-.46c-.16-.09-.36 0-.51.12a13.87 13.87 0 0 0-1.53 1.22l-.18-.48a4.36 4.36 0 0 0-1 .85l-.27-.88-.67.44a9.9 9.9 0 0 1-1.19-6.26"/><path fill="#231f20" d="M15.33 6.88a10.24 10.24 0 0 1 5.54-.74c1.6.31 3.22.74 4.79 1.18a4.76 4.76 0 0 1 2.23 1c.48.54.53 1.56.8 2.22a7.36 7.36 0 0 0 2.25 2.9c2.74 2.24 3.47 5.51 3.8 8.89.16 1.63.46 3.72-.28 5.23a18.55 18.55 0 0 0-1.55 3.7l.45-.06-.27-.43a.25.25 0 0 0-.45.06l-.49 2.7.5.07a8 8 0 0 0-.3-3 .25.25 0 0 0-.45-.06 5.48 5.48 0 0 0-.64 1.61l.49.06a7.86 7.86 0 0 1 .11-2.37c.06-.27-.31-.45-.45-.2a31.19 31.19 0 0 0-2.37 5 4.81 4.81 0 0 0-.41 2.36c.09.74.32.8.12 1.7a13.34 13.34 0 0 1-.61 1.59c-.12.33-.33 1.41-.6 1.59s-.39 0-.7 0-.41 0-.78.31-.67 1.19-1.16 1.51-2.15 1-2.21-.12a.25.25 0 0 0-.42-.18l-1.09.94.42.18c.07-1.7-2.77.53-3.13.75l.37.15c-.18-.51.11-2.82-1.24-2l.38.21c0-.49.21-1.52-.39-1.76s-1.82 1-2.24 1.4l.42.11-.19-.47a.25.25 0 0 0-.37-.15 6.58 6.58 0 0 0-1 .88l.42.11-.27-.88a.24.24 0 0 0-.36-.14l-.68.43.35.09a10.06 10.06 0 0 1-1.16-6.13c0-.32-.46-.32-.5 0a10.56 10.56 0 0 0 1.22 6.38.25.25 0 0 0 .35.09l.67-.43-.39-.16.27.87a.25.25 0 0 0 .42.11 3.93 3.93 0 0 1 .92-.8L15.1 43l.18.48a.26.26 0 0 0 .42.11c.26-.23 1.21-1.26 1.47-1.19.5.15.31.75.31 1.19a.26.26 0 0 0 .38.22c.24-.14.37 1.12.38 1.22a1.14 1.14 0 0 0 .12.53.25.25 0 0 0 .37.15l1.13-.71c.12-.07 1.25-.76 1.24-.47a.26.26 0 0 0 .43.18l1.09-1-.43-.17A1.27 1.27 0 0 0 23 44.8c.82.3 1.36-.74 2.08-.52a.26.26 0 0 0 .28-.12c.36-.63.82-1.7 1.64-1.64.29 0 .37.24.69.09s.32-.58.43-.86c.32-.84.64-1.67.95-2.5a3.29 3.29 0 0 0 .33-1.3 10.79 10.79 0 0 1-.28-1.48 5.67 5.67 0 0 1 .41-1.62A30.08 30.08 0 0 1 31.84 30l-.46-.2a8.14 8.14 0 0 0-.13 2.51c0 .26.43.37.49.07a4.88 4.88 0 0 1 .59-1.48l-.46-.06a7.67 7.67 0 0 1 .28 2.82c0 .28.44.34.49.07l.48-2.73-.46.06.27.43a.26.26 0 0 0 .46-.06 11.68 11.68 0 0 1 1.13-3 5.43 5.43 0 0 0 .76-1.57 17.1 17.1 0 0 0-.15-5.48c-.42-3.23-1.24-6.17-3.84-8.29A7.23 7.23 0 0 1 29.46 11a16.86 16.86 0 0 1-.81-2.36c-.43-1.13-1.79-1.54-2.85-1.84a37.56 37.56 0 0 0-5.71-1.3 11 11 0 0 0-4.89.89c-.3.11-.18.59.13.49z"/><path fill="#8b5e3c" d="M15.44 6.68c-2.2 2.26-3.45 5.24-4.65 8.15a3.76 3.76 0 0 0-.42 2.06 3.66 3.66 0 0 1 .19 1.11 2.08 2.08 0 0 1-.26.68 7.73 7.73 0 0 0-.77 4.53 14.84 14.84 0 0 0 .74 2.79 6.51 6.51 0 0 0 1.1 2.24 7.45 7.45 0 0 1 .71.79 2.94 2.94 0 0 1 .35.95 11.85 11.85 0 0 1 .09 5c-.24 1.22-.66 2.55-.07 3.65a6.09 6.09 0 0 1 1.2-2.63 4.2 4.2 0 0 0 .2 2 15.56 15.56 0 0 0 1.78-2.86 12.82 12.82 0 0 0 .92 2.49l.87-1.89.9.91a.55.55 0 0 0 .32.2.52.52 0 0 0 .36-.18l1.12-1a15.82 15.82 0 0 0 2.55 4 19.54 19.54 0 0 0 1.08-7.58 17 17 0 0 0 1.92 2.7l.66-.44a1.85 1.85 0 0 0 .79 1.05 6.46 6.46 0 0 0 .57-2.16 1.93 1.93 0 0 0 1.68.77 13.7 13.7 0 0 0-1.32-3.88l2 .17a5.88 5.88 0 0 1-1.13-2l.82-.58A7.26 7.26 0 0 0 28 25.27"/><path fill="#231f20" d="M15.26 6.5A23.41 23.41 0 0 0 11 13.63a14 14 0 0 0-.82 2.15 5.22 5.22 0 0 0 0 1.53c0 1.57-1 3-1 4.6a12 12 0 0 0 .82 4.18 10.23 10.23 0 0 0 .65 1.61c.42.74 1.13 1.22 1.43 2a10.52 10.52 0 0 1 .13 5.43 5.78 5.78 0 0 0 0 3.63c.08.2.41.14.45-.06a6.65 6.65 0 0 1 1.17-2.58L13.4 36a5.28 5.28 0 0 0 .21 2.09.26.26 0 0 0 .46.06 18.72 18.72 0 0 0 1.78-2.86l-.46-.06a14.48 14.48 0 0 0 .95 2.55.25.25 0 0 0 .43 0l.87-1.9-.39.05c.33.34.83 1.17 1.39 1.19s1.28-.9 1.66-1.23l-.39-.05A17.17 17.17 0 0 0 22.49 40a.26.26 0 0 0 .42-.11A20.7 20.7 0 0 0 24 32.21l-.46.12a19 19 0 0 0 1.95 2.75.24.24 0 0 0 .3 0l.67-.44-.37-.14a2.38 2.38 0 0 0 .85 1.16.26.26 0 0 0 .42-.11 8.24 8.24 0 0 0 .58-2.23l-.42.18a2.34 2.34 0 0 0 1.85.84.25.25 0 0 0 .24-.31 15.67 15.67 0 0 0-1.34-3.94l-.22.37 2 .17c.24 0 .3-.28.18-.43a5 5 0 0 1-.78-1.2c-.2-.57 0-.65.45-1a.26.26 0 0 0 .09-.34 8.47 8.47 0 0 0-1.85-2.59c-.23-.22-.59.14-.35.36a8 8 0 0 1 1.77 2.48l.09-.34-.82.59a.25.25 0 0 0-.12.28 7.2 7.2 0 0 0 1.19 2.13l.18-.42-2-.17a.26.26 0 0 0-.21.38 15.64 15.64 0 0 1 1.29 3.82l.24-.32a2 2 0 0 1-1.5-.69c-.16-.19-.4 0-.43.17a7.36 7.36 0 0 1-.57 2.1l.42-.11a1.78 1.78 0 0 1-.72-1 .25.25 0 0 0-.36-.15c-.93.61-1.82-1.45-2.24-2.17a.25.25 0 0 0-.47.13 20 20 0 0 1-1.08 7.52l.42-.11a17 17 0 0 1-2.5-4 .25.25 0 0 0-.39-.06c-.31.27-1 1-1.46 1-.24-.05-.73-.76-.89-.92a.25.25 0 0 0-.39 0l-.87 1.89h.43a14.09 14.09 0 0 1-.9-2.42.25.25 0 0 0-.45-.06 18 18 0 0 1-1.79 2.86l.46.06a5 5 0 0 1-.19-2c0-.27-.34-.3-.47-.12a6.89 6.89 0 0 0-1.22 2.7l.46-.06c-.67-1.55.17-3.3.29-4.89a11.33 11.33 0 0 0-.33-3.89c-.33-1.19-1.38-1.88-1.84-3a13.27 13.27 0 0 1-1.08-4.41A7.7 7.7 0 0 1 10 20.1c.19-.65.6-1.24.75-1.89a3.87 3.87 0 0 0-.11-1.39 4.79 4.79 0 0 1 .55-2.3 24.22 24.22 0 0 1 4.42-7.66c.23-.24-.13-.59-.35-.36z"/><path fill="#8b5e3c" d="M50.68 25.6c0-.33.5-.46.79-.31a1.57 1.57 0 0 1 .59.79 7.23 7.23 0 0 1 .85-1.2c.07-.08.15-.16.25-.15s.17.14.2.24l.43 1.12c.15-.3.64-.18.87.07s.38.61.7.74a.86.86 0 0 1 .9 0 1.43 1.43 0 0 1 .57 1.39 4.21 4.21 0 0 1-.55 1.48l-.4.76c-.12.22-.31.47-.55.41a.47.47 0 0 1-.24-.2 2.42 2.42 0 0 1-.46-1.05 5.82 5.82 0 0 0-.94 1.45 1.28 1.28 0 0 1-.69-.94 3.73 3.73 0 0 1 0-1.2l-.65 1.22c-.13.24-.32.52-.59.48s-.4-.55-.34-.91l.22-1.26-.29.22a1.76 1.76 0 0 1-.27-1.41 2.73 2.73 0 0 0 .14-.69 1.47 1.47 0 0 0-.57-.87"/><path fill="#231f20" d="M50.92 25.67c0-.24.34-.22.5-.11a1.58 1.58 0 0 1 .43.64.24.24 0 0 0 .43 0q.16-.28.36-.57a2.15 2.15 0 0 1 .45-.58c.08-.05 0-.08.07.1s.09.22.13.33l.26.68a.25.25 0 0 0 .45.06c.17-.27.57.22.66.34a1.4 1.4 0 0 0 .58.55c.12.05.18 0 .31 0a.63.63 0 0 1 .55 0 1.07 1.07 0 0 1 .48.79 3.63 3.63 0 0 1-.69 2.1c-.09.17-.17.35-.27.51s-.15.26-.3.15a1.8 1.8 0 0 1-.45-1 .25.25 0 0 0-.42-.11 6.42 6.42 0 0 0-1 1.5l.34-.09c-.74-.34-.63-1.26-.54-1.92 0-.26-.36-.34-.47-.13s-.78 1.74-1.05 1.55-.07-.53 0-.69c.06-.38.13-.75.19-1.13 0-.19-.17-.43-.36-.28l-.29.22.34.09a1.65 1.65 0 0 1-.29-.8 4.32 4.32 0 0 1 .17-.94 1.48 1.48 0 0 0-.63-1.29c-.23-.22-.59.13-.35.35s.47.41.5.7a5.12 5.12 0 0 1-.17.85 2 2 0 0 0 .34 1.38.26.26 0 0 0 .34.09l.29-.22-.37-.28a11.38 11.38 0 0 0-.25 1.55.91.91 0 0 0 .38.87.71.71 0 0 0 .88-.3 11.66 11.66 0 0 0 .81-1.47l-.48-.16c-.11.85-.12 1.93.79 2.35a.26.26 0 0 0 .34-.09 6.63 6.63 0 0 1 .89-1.4l-.41-.11c.09.49.47 1.61 1.16 1.43.32-.09.49-.42.63-.69s.43-.79.62-1.21a2.33 2.33 0 0 0 .08-2.06 1.21 1.21 0 0 0-1.64-.57h.25c-.42-.19-.54-.71-1-.91a.72.72 0 0 0-1 .2L54 26c-.14-.38-.28-.76-.43-1.13-.08-.22-.24-.45-.51-.41s-.45.32-.61.52a8.56 8.56 0 0 0-.63.94h.43c-.19-.41-.45-.88-1-1a.77.77 0 0 0-.89.54c-.06.32.42.45.48.14z"/><path fill="#009444" d="M49.76 25.47c-.5-2.12-1.08-4.38-2.66-5.88a.42.42 0 0 0-.26-.14.5.5 0 0 0-.26.11l-2 1.48a5.91 5.91 0 0 0 1.89 2.06l3.1 2.45"/><path fill="#231f20" d="M50 25.41a15.55 15.55 0 0 0-1.65-4.65 6.93 6.93 0 0 0-.68-.93c-.2-.23-.49-.63-.83-.63a.79.79 0 0 0-.48.22l-.67.49-1.25.91a.27.27 0 0 0-.09.35 6.69 6.69 0 0 0 2.08 2.22l3 2.34c.25.2.61-.15.36-.35l-2.87-2.27a6.76 6.76 0 0 1-2.09-2.2l-.09.35 1.11-.81.52-.39c.11-.08.36-.34.5-.34s.29.24.37.32a5.58 5.58 0 0 1 .39.46 8.07 8.07 0 0 1 .55.88 16.43 16.43 0 0 1 1.39 4.16c.07.31.55.18.48-.13z"/><path fill="#009444" d="M44.83 21.81a4 4 0 0 0-3.39 3.43 2.83 2.83 0 0 1 1.86 0 7.25 7.25 0 0 1 1.67.89.94.94 0 0 0 .32.15.84.84 0 0 0 .44-.08l2.46-.93a.77.77 0 0 1 .47-.08"/><path fill="#231f20" d="M44.77 21.57a4.3 4.3 0 0 0-3.58 3.67.26.26 0 0 0 .32.25 2.66 2.66 0 0 1 2 .11 6.65 6.65 0 0 1 .84.43 6.17 6.17 0 0 0 .77.48c.5.2 1.16-.21 1.63-.38l.9-.35a2.54 2.54 0 0 1 1-.31c.32 0 .31-.46 0-.5a2.12 2.12 0 0 0-.92.23l-.91.35-1 .39c-.22.08-.37.17-.6.07s-.25-.17-.37-.24a4 4 0 0 0-3.47-.77l.31.24a3.81 3.81 0 0 1 3.21-3.19c.32-.05.18-.53-.13-.48z"/><path fill="#009444" d="M55.09 36.12a2.23 2.23 0 0 0-.09 2.21c.29.72.77 1.34 1.09 2.05a11 11 0 0 1 .53 1.69L57 44a7.2 7.2 0 0 0 2.82-3.26 3.28 3.28 0 0 0 .59-1.74 3.23 3.23 0 0 0-1.28-2"/><path fill="#231f20" d="M54.88 36c-.82 1.1-.21 2.47.39 3.5a8.84 8.84 0 0 1 .93 2.14c.21.8.4 1.6.6 2.4a.26.26 0 0 0 .37.15 7.55 7.55 0 0 0 2.88-3.31 3.13 3.13 0 0 0 .56-2.19 3.85 3.85 0 0 0-1.3-1.83c-.24-.22-.59.13-.36.35a3.3 3.3 0 0 1 1.19 1.67 3.21 3.21 0 0 1-.7 2.06 6.39 6.39 0 0 1-2.53 2.81l.37.15A17.2 17.2 0 0 0 56 39.83c-.57-1-1.61-2.41-.73-3.58.19-.26-.24-.51-.43-.26z"/><path fill="#009444" d="M59.24 36.77a3.41 3.41 0 0 0 1.49 0 6.46 6.46 0 0 0 .81-5.19 1.26 1.26 0 0 0-.57-.87 1.3 1.3 0 0 0-.52-.1l-3.27-.23a.87.87 0 0 0-.36 0c-.11.06-.2.19-.15.3"/><path fill="#231f20" d="M59.17 37a4 4 0 0 0 1.46.07c.24 0 .3-.11.43-.32s.22-.39.32-.6a6.81 6.81 0 0 0 .62-2.61 4.9 4.9 0 0 0-.44-2.54 1.17 1.17 0 0 0-1-.58c-.53-.06-1.07-.07-1.6-.11s-1.25-.11-1.88-.13c-.4 0-.8.21-.7.66s.55.18.49-.13c0 0 1.22 0 1.33.05l1.39.09c.39 0 1.06-.05 1.37.24a2.06 2.06 0 0 1 .39 1 6.27 6.27 0 0 1-.88 4.58l.15-.11a3.28 3.28 0 0 1-1.36 0c-.32-.07-.45.41-.14.49z"/><path fill="#009444" d="M53.11 33.31a17 17 0 0 1 4.44 7.34l1.8-4.19a7.85 7.85 0 0 0 .49-1.33 8.53 8.53 0 0 0 0-2.67 13.43 13.43 0 0 0-3.5-1.15.65.65 0 0 0-.31 0 .68.68 0 0 0-.35.21c-.46.43-.88 1-1.51 1.07a1.71 1.71 0 0 0-.45 0c-.14 0-.27.19-.22.33"/><path fill="#231f20" d="M52.93 33.48a16.9 16.9 0 0 1 4.38 7.24c.06.18.37.27.46.06.65-1.53 1.33-3 2-4.58a5.81 5.81 0 0 0 .49-2.13v-1.26c0-.42 0-.48-.31-.64a11.5 11.5 0 0 0-2-.77c-.35-.1-.7-.19-1.06-.27a1.54 1.54 0 0 0-.9 0c-.59.25-.85 1-1.48 1.19-.43.14-1.15 0-1.11.66 0 .32.51.33.5 0 0-.1.65-.15.74-.18a1.75 1.75 0 0 0 .52-.28c.42-.32.76-1 1.35-.92A7.22 7.22 0 0 1 58 32a13.55 13.55 0 0 1 1.73.69l-.13-.21a9.93 9.93 0 0 1 0 2.11 7.5 7.5 0 0 1-.69 2.1l-1.65 3.86h.45a17.46 17.46 0 0 0-4.51-7.45c-.23-.23-.58.13-.35.35zm-27.56-5.65a3.4 3.4 0 0 0-1.81-2.27 5.39 5.39 0 0 0-3.45-.39 5.81 5.81 0 0 0-3.31 1.45 2.43 2.43 0 0 0-.65 1.38c0 .62.35 1.16.29 1.77a.25.25 0 0 0 .43.17 4.7 4.7 0 0 1 3.73-1.35 4.47 4.47 0 0 0 2 .09 7.39 7.39 0 0 1 2.32-.48.25.25 0 0 0 0-.5 6.49 6.49 0 0 0-2.3.45c-.81.29-1.58-.08-2.41-.08a5.19 5.19 0 0 0-3.68 1.52l.42.18a4.34 4.34 0 0 0-.25-1.29 1.73 1.73 0 0 1 .45-1.48 5.28 5.28 0 0 1 2.94-1.29c1.85-.37 4.34.1 4.8 2.27.06.31.54.18.48-.13z"/><path fill="#fff" d="M16.49 27.37a3.06 3.06 0 0 0 .62 1 .26.26 0 0 0 .39-.05 2 2 0 0 0 .34-1.08l-.32.25c.44.12.72-.16 1-.43a1.19 1.19 0 0 1 .73-.22c.21 0 .46-.23.66-.18s.29.16.5.16a1.34 1.34 0 0 0 .48-.15c.1 0 .35-.21.47-.16s.13.44.19.59a.55.55 0 0 0 .79.35.72.72 0 0 0 .28-.4c.05-.15 0-.5.24-.49s.26.15.45.06a.46.46 0 0 0 .23-.39c0-.42-.4-.6-.75-.63a8.35 8.35 0 0 0-1.87 0 4.38 4.38 0 0 0-.82.27 2.32 2.32 0 0 1-1.08 0v.48l1.79-.35a1.75 1.75 0 0 1 1.45.15l.19-.45a3.28 3.28 0 0 0-1.64.15 2.73 2.73 0 0 1-.94.08 5.34 5.34 0 0 0-.89-.07 3 3 0 0 0-2.43 1.53c-.16.28.28.54.43.25a2.47 2.47 0 0 1 2.29-1.28c.27 0 .53.08.8.09a2.81 2.81 0 0 0 .71-.08 3.4 3.4 0 0 1 1.54-.19.25.25 0 0 0 .19-.46 2 2 0 0 0-1.51-.27c-.69.11-1.38.29-2.07.44a.25.25 0 0 0 0 .48 4.4 4.4 0 0 0 .88.1 2.69 2.69 0 0 0 .84-.23 4.74 4.74 0 0 1 1.84-.11h.47c.4 0 .12-.05 0-.08a.47.47 0 0 0-.44.11.88.88 0 0 0-.27.53c0 .05 0 .31-.1.32s-.15-.15-.15-.21c-.08-.37-.21-.76-.67-.75s-.71.4-1.05.27-.36-.22-.63-.12c-.08 0-.15.09-.22.12a1.45 1.45 0 0 1-.46.09 1.09 1.09 0 0 0-.63.22c-.19.14-.41.49-.68.41a.25.25 0 0 0-.31.24 1.49 1.49 0 0 1-.27.82l.39-.05a2.48 2.48 0 0 1-.49-.81c-.1-.3-.59-.17-.48.13z"/><path fill="#231f20" d="M17.39 21.57a1.21 1.21 0 0 0-.68 1.26c.26 0 .36-.43.63-.43a.51.51 0 0 1 .29.19 2.13 2.13 0 0 0 1.06.6.41.41 0 0 0 .22 0c.24-.08.18-.43.26-.67a.54.54 0 0 1 .76-.26c.09.06.16.16.26.2.26.12.55-.11.74-.33a.48.48 0 0 0 .18-.39.45.45 0 0 0-.19-.24 2.74 2.74 0 0 0-1.67-.5 8 8 0 0 0-1.75.23m-.2-2.42a.88.88 0 0 0-1.21-.4 2.22 2.22 0 0 1-.33.28c-.13.07-.33 0-.37-.09l-.78.92a.84.84 0 0 1-.55.38l.25.27-.57.44a.1.1 0 0 0-.05.1s.06.05.09.07a.28.28 0 0 1 .13.33.93.93 0 0 1-.21.32.37.37 0 0 1 .41.05 1 1 0 0 0 .37.22c.39.09.64-.44 1-.5h.26a1.23 1.23 0 0 0 .88-.48 3.77 3.77 0 0 0 .48-.91l.19.41a2 2 0 0 0 .01-1.41zm-.49 1.27l-.29.27a1 1 0 0 1-.5.32.38.38 0 0 1-.46-.27c0-.18.14-.32.29-.4a2.28 2.28 0 0 0 .47-.23c.09-.08.17-.19.29-.2s.24.31.2.51zm9.09-1.27c0-.17-.35-.19-.31-.36s.07-.08.1-.13 0-.26-.08-.36a1.32 1.32 0 0 1-.28-.3c0-.1 0-.22-.12-.29a.31.31 0 0 0-.23-.06 4.3 4.3 0 0 0-1.07.14.67.67 0 0 1-.5 0c-.07 0-.13-.1-.21-.14a.76.76 0 0 0-.84.19 2.66 2.66 0 0 1-.71.59.23.23 0 0 1-.18 0c-.14-.05-.15-.25-.27-.32s-.3.09-.39.23l-.39.65a1.64 1.64 0 0 0-.26.55.62.62 0 0 0 .15.57.38.38 0 0 0 .54 0l.07-.06a2.41 2.41 0 0 0 1.13.56 2.51 2.51 0 0 0 .61-.05 5.18 5.18 0 0 0 1.11-.22.94.94 0 0 1 .32-.11 2.35 2.35 0 0 1 .37.05c.57.08 1-.44 1.37-.9a.26.26 0 0 0 .07-.23zm-2.51.08a.5.5 0 0 1-.26.65 1.43 1.43 0 0 1-.77.08.56.56 0 0 1-.26-.07.4.4 0 0 1-.1-.55 1 1 0 0 1 .48-.37 1.22 1.22 0 0 1 1.34.1z"/></svg>