<svg xmlns="http://www.w3.org/2000/svg"><symbol id="sprite-sheet-08" viewBox="0 0 105.3 104"><path d="M105.3 42.79L52.65 0 0 42.79h13.16V104h12.89V71.44h16V104h50.32V42.79h12.93z"/></symbol><symbol id="sprite-sheet-06" viewBox="0 0 87.58 51.86"><path d="M1.11 23h79.21v13.63H1.11z"/><path d="M56.77 0l31.92 29.82-31.92 22.04V0z"/></symbol><symbol id="sprite-sheet-03" viewBox="0 0 84.1 120.01"><path d="M1.11 120c.32-6.11.43-11.52.92-16.9C4 81.42 7.76 60.06 15 39.44c4.08-11.69 8.7-23.29 17.7-32.2 9.7-9.65 11.14-9.46 21.3-.59 8.69 7.63 13.63 17.89 17.75 28.47 8.81 22.68 12.51 46.36 13.51 70.55 0 .52 0 1-.07 1.52-5.26 1.18-5.41 1.06-6.6-3.62a79.59 79.59 0 0 0-11.27-25.9 9.88 9.88 0 0 0-.74-1c-5.07-5.93-4.69-5.77-11.2-3.22-14.75 5.78-26.46 15.86-36.54 27.76-4.28 5-7.6 11-10.88 16.79-1.82 3.08-4.18.93-6.85 2zM43.55 12.94H43c-1.71 8.53-3.51 17.05-5.08 25.6-.42 2.28-1.13 3.37-3.64 3.14s-5.21-.06-7.81-.06l-.17.66 10.85 5.52L32 58.27l.32.17 11-11.27L54 58.68l.56-.39c-1.7-3.46-3.41-6.92-5.17-10.49l10.84-5.63-.23-.69H49.31z"/></symbol><symbol id="sprite-sheet-07" viewBox="0 0 87.58 51.86"><path d="M87.58 28.86H8.37V15.23h79.21z"/><path d="M31.92 51.86L0 22.04 31.92 0v51.86z"/></symbol><symbol id="sprite-sheet-05" viewBox="0 0 83.6 112.8"><path fill="none" stroke="#000" stroke-miterlimit="10" stroke-width="2" d="M31.45 15A39.94 39.94 0 0 0 8.82 39.26M54.37 15A39.94 39.94 0 0 1 77 39.26M32.5 75.62h21.14m-22.71 4.62h24.3m-25.91 5.91h27.22m-29.35 5.96l30.73.01m-31.55 5.77h32.9m-34.26 6.2h35.56"/><path d="M84.71 60.54V47.3A4.71 4.71 0 0 0 80 42.59H49.52L53 4.62A4.24 4.24 0 0 0 48.74 0H37.08a4.24 4.24 0 0 0-4.22 4.62l3.44 38H5.82a4.71 4.71 0 0 0-4.71 4.68v13.24a4.71 4.71 0 0 0 4.71 4.71h9.56L1.11 112.8H20.2l11.25-41.92 11.46-1.63 11.46 1.63 11.25 41.92h19.09L70.44 65.25H80a4.71 4.71 0 0 0 4.71-4.71zm-15.46-3H18.4a3.85 3.85 0 0 1 0-7.69h50.85a3.85 3.85 0 0 1 0 7.69z"/><path fill="none" stroke="#000" stroke-miterlimit="10" stroke-width="2" d="M79.6 66.98v25.14M6.28 66.98v25.14"/><circle cx="30.13" cy="53.97" r="1.97"/></symbol><symbol id="sprite-sheet-04" viewBox="0 0 84.1 120.01"><path d="M1.11 120c.32-6.11.43-11.52.92-16.9C4 81.42 7.76 60.06 15 39.44c4.08-11.69 8.7-23.29 17.7-32.2 9.7-9.65 11.14-9.46 21.3-.59 8.69 7.63 13.63 17.89 17.75 28.47 8.81 22.68 12.51 46.36 13.51 70.55 0 .52 0 1-.07 1.52-5.26 1.18-5.41 1.06-6.6-3.62a79.59 79.59 0 0 0-11.27-25.9 9.88 9.88 0 0 0-.74-1c-5.07-5.93-4.69-5.77-11.2-3.22-14.75 5.78-26.46 15.86-36.54 27.76-4.28 5-7.6 11-10.88 16.79-1.82 3.08-4.18.93-6.85 2zM43.55 12.94H43c-1.71 8.53-3.51 17.05-5.08 25.6-.42 2.28-1.13 3.37-3.64 3.14s-5.21-.06-7.81-.06l-.17.66 10.85 5.52L32 58.27l.32.17 11-11.27L54 58.68l.56-.39c-1.7-3.46-3.41-6.92-5.17-10.49l10.84-5.63-.23-.69H49.31z"/></symbol><symbol id="sprite-sheet-02" viewBox="0 0 107.25 108.11"><path d="M54.9 0c5.26.51 10.68.4 15.75 1.67 13 3.25 21.94 15 22.55 28.5a12.22 12.22 0 0 1 0 1.71c-.89 9 1 17.38 4.67 25.63s6.39 16.77 9.8 25.07c1.13 2.76.87 5-1.12 6.91a54.38 54.38 0 0 1-9.07 7.37c-15.88 9.29-33.14 12.52-51.37 10.82-12-1.11-23.43-4.35-33.82-10.58a59.59 59.59 0 0 1-9.17-7.26c-2.22-2-2.55-4.46-1.32-7.53 4.79-11.88 9.29-23.87 13.83-35.84a12.56 12.56 0 0 0 .53-3.58c.34-6.35-.09-12.85 1.1-19C19.86 10.51 32.65.59 46.27.48h8.58zM41 33c-6 0-10.84 1.52-13.93 5.19a38.47 38.47 0 0 0-6.19 9.87c-4.8 11.69-9.23 23.53-13.83 35.31-.53 1.36-1 2.83.81 3.48s2.39-.85 2.91-2.18c1.33-3.42 2.63-6.85 4-10.27 3.59-9.1 7-18.28 10.83-27.29C30.47 35.55 41.71 35 49.15 39.58c3.91 2.43 7.15 2.47 11.08 0 8-5 17.25-3 21.92 4.47A48.52 48.52 0 0 1 85.92 52c4.32 10.92 8.54 21.88 12.8 32.83.54 1.38 1.25 2.71 3 1.93s1.15-2.1.65-3.37c-1.78-4.56-3.53-9.12-5.33-13.67-3.21-8.12-6.25-16.31-9.7-24.31-5.91-13.68-20-15.18-29.82-8.81a4.52 4.52 0 0 1-5.62 0A21.12 21.12 0 0 0 41 33zm-1.6 25.18h4.66c7 0 7.09-.12 6.89-7.13a7.73 7.73 0 0 0-3.08-6.39c-5.88-4.24-18.71-1.57-19.94 8-.47 3.68.85 5.4 4.6 5.49 2.29.07 4.58.03 6.87.03zM69.76 58v.13c2.62 0 5.24.11 7.85 0 3-.15 4.34-2 4-4.94-.79-6-5.53-10.08-12-10.43s-11.68 2.47-11 10.48a8 8 0 0 1 0 1.47c-.23 2.21.92 3.24 3 3.3 2.59.08 5.39-.01 8.15-.01zm-9.37 15.48c0-2.4.17-4.53 0-6.62A5.61 5.61 0 0 0 54.83 62c-2.65-.06-5.35 1.85-5.67 4.45a57.43 57.43 0 0 0-.06 7.08zm-7.62 19.26V77.5h-5.56v15.24zm4-15.25v15.17h5.5V77.49zM43 81.8c-5 2.46-3.64 6.8-3.62 10.83H43zm26.88 11c.88-6.9.36-8.48-3.45-10.84v10.79zm-41.23-.9c.19 2.61 1.16 3.77 3 3.77a2.61 2.61 0 0 0 2.81-2.77c0-1.86-1.06-3.13-2.82-2.89-1.2.16-2.22 1.37-2.99 1.89zm52.12 0c-.76-.53-1.78-1.74-3-1.9-1.71-.24-2.77 1-2.77 2.9a2.62 2.62 0 0 0 2.81 2.77c1.8 0 2.77-1.15 2.96-3.76z"/></symbol><symbol id="sprite-sheet-01" viewBox="0 0 104.56 85.95"><circle cx="11.44" cy="11.44" r="11.44"/><path d="M14.51 31.54l18.23 26.88H98.6l5.96-32-90.05 5.12z"/><ellipse cx="49.86" cy="80" rx="7.07" ry="5.95"/><ellipse cx="81.49" cy="80" rx="7.07" ry="5.95"/></symbol><symbol id="logo" viewBox="0 0 256 256"><path fill="#231f20" d="M0 0h256v256H0z"/><path fill="#8b5e3c" d="M201.38 105.14c-8.06 1.24-14.21 9.78-12.84 17.82a35.17 35.17 0 0 0 2.33 7c1.73 4.31 3.25 8.83 3.1 13.48-.23 7.43-4.67 14-6.68 21.17a45.71 45.71 0 0 1-2 6.76 27.68 27.68 0 0 1-3.55 5.38l-6 7.65a96.26 96.26 0 0 0-1-32.65c-.93-4.57-2.28-9.24-5.32-12.78-3.56-4.15-9.09-6.31-12.46-10.63-2.36-3-3.45-6.84-4.48-10.54a53.31 53.31 0 0 1-2.17-10.8c-.11-1.76-.05-3.53-.18-5.29-.75-10.19-7.66-18.84-10.41-28.69-1-3.45-1.72-7.49-4.82-9.28l-90.16 91.64a134.24 134.24 0 0 0-12.68 22.15 4.41 4.41 0 0 0-.53 3.29c.59 1.56 2.6 1.94 3.82 3.08 2.29 2.14 1.24 6.36 3.45 8.6 3.55 3.6 11.86-1.11 13.89 3.53.65 1.48.12 3.17-.08 4.78-.76 6 3.21 11.54 7 16.33 1.71 2.17 3.52 4.44 6.06 5.55 2.19 1 4.67.94 7.07.9l26.4-.39c5.61-.08 11.37-.19 16.58-2.28 7.71-3.1 13.16-10.09 20.36-14.23a3.19 3.19 0 0 1 1.91-.57 3.14 3.14 0 0 1 1.92 1.56c3.31 4.75 5.49 10.22 8.87 14.92s8.51 8.75 14.3 8.59c4.4-.12 9.73-2.33 12.6 1a21.89 21.89 0 0 0 1.64 2.16c2.56 2.38 6.63-.39 8.53-3.32 4.67-7.19 6.22-15.91 9.72-23.73 3.95-8.84 10.36-16.46 13.93-25.47a88.85 88.85 0 0 0 4.1-15.64q1.26-6.34 2.51-12.68c.6-3 1-6.59-1.23-8.68-.87-.82-2.08-1.29-2.75-2.29s-.63-2.51-.65-3.82A17 17 0 0 0 198.79 123a20.29 20.29 0 0 0 4.15-17.73"/><path fill="#231f20" d="M201.12 104.17a16.75 16.75 0 0 0-11.49 8.26 17.2 17.2 0 0 0-2.21 6.78 18.39 18.39 0 0 0 1.45 8.44c2.39 6.28 5.1 12.46 3.67 19.32-1.25 6.06-4.55 11.45-6.21 17.39-.48 1.7-.82 3.43-1.37 5.11a17.74 17.74 0 0 1-2.52 4.72c-2.33 3.25-4.9 6.35-7.36 9.51l1.67 1a98.76 98.76 0 0 0-.3-29.38 46.93 46.93 0 0 0-3.39-12.51 22.93 22.93 0 0 0-7.82-8.8c-3.3-2.39-6.73-4.61-8.77-8.26-2.22-4-3.3-8.86-4.31-13.29a37.23 37.23 0 0 1-.92-7.58 38.93 38.93 0 0 0-.59-6.64 52 52 0 0 0-4.2-11.65c-2-4.39-4.29-8.72-5.65-13.38-1.1-3.75-1.8-8.07-5.4-10.29a1 1 0 0 0-1.21.16l-10.42 10.56-24.32 24.71-28.12 28.58-21.53 21.89-5.14 5.18a11.4 11.4 0 0 0-1.31 1.6 132.61 132.61 0 0 0-9.59 16.05c-.69 1.36-1.35 2.72-2 4.1a11.41 11.41 0 0 0-1.38 3.81c-.2 2.77 2.16 3.4 4 4.78s1.65 4.16 2.26 6.17a5.77 5.77 0 0 0 3.64 4 15 15 0 0 0 5.78.37c1.52-.08 3.65-.4 5 .57a3.2 3.2 0 0 1 .94 3.13 25.6 25.6 0 0 0-.41 4.46 18.5 18.5 0 0 0 2.38 7.64 50.4 50.4 0 0 0 4.69 6.83c1.66 2.13 3.39 4.36 5.81 5.68s5.46 1.43 8.28 1.39l10.21-.15c6.61-.1 13.24-.09 19.84-.31 5.93-.2 11.76-1 17-4.09 4.69-2.75 8.56-6.63 12.9-9.85a38.44 38.44 0 0 1 3.27-2.23c.57-.35 1.21-.87 1.9-.77.84.12 1.3 1.06 1.74 1.73 1.73 2.6 3.15 5.38 4.65 8.12 2.61 4.74 5.57 9.38 10.16 12.44a15.88 15.88 0 0 0 7.19 2.66c2.47.24 4.9-.36 7.33-.64s5-.26 6.51 2c1.32 1.9 2.89 3.16 5.33 2.65 5.07-1.06 7.65-7 9.43-11.26 2.26-5.4 3.7-11.1 6-16.48s5.59-10.29 8.61-15.3a66 66 0 0 0 7.44-16.25c1.77-6.28 2.82-12.77 4.08-19.16.88-4.41 3-10.77-1.33-14.06-1.07-.82-2.17-1.32-2.41-2.78s-.06-2.78-.26-4.16a17.42 17.42 0 0 0-2.37-6.53 18 18 0 0 0-10.91-8.16l.44 1.67a21.5 21.5 0 0 0 4.4-18.7c-.3-1.25-2.22-.72-1.93.53a19.39 19.39 0 0 1-3.88 16.75 1 1 0 0 0 .44 1.67 16.22 16.22 0 0 1 10.63 9.13c1.06 2.4 1.14 4.72 1.31 7.28a5.25 5.25 0 0 0 1.05 3.11c.8 1 2 1.43 2.86 2.35 1.68 1.88 1.22 4.87.79 7.12-.6 3.21-1.26 6.41-1.9 9.61-1.2 6-2.23 12.18-4.36 18-2 5.45-5.14 10.38-8.16 15.3A86.68 86.68 0 0 0 193 211c-2 5.4-3.49 11-6.1 16.18-1.19 2.35-2.53 4.78-4.82 6.21a4.4 4.4 0 0 1-2.87.83c-1.45-.24-2-1.76-2.82-2.74-3.22-3.67-8.69-1.58-12.78-1.33-5.36.32-10-3-13.18-7-3.73-4.63-5.88-10.29-9.15-15.22a6.34 6.34 0 0 0-2.44-2.56 3.59 3.59 0 0 0-3.26.48 46.08 46.08 0 0 0-6.35 4.49c-4.12 3.32-8.06 7-12.93 9.27-5.58 2.55-11.89 2.54-17.91 2.62l-19.67.29a85.23 85.23 0 0 1-9.59 0c-3.11-.3-5.33-1.92-7.31-4.22-3.49-4.06-7.59-9.13-8.19-14.64-.29-2.66 1.13-5.61 0-8.13a4.69 4.69 0 0 0-3.8-2.53 28.55 28.55 0 0 0-5.39 0c-1.7.05-3.82.09-5-1.3-1.44-1.63-1.2-4.23-1.92-6.18a5.74 5.74 0 0 0-1.66-2.5c-.81-.68-1.81-1-2.64-1.67-1.44-1.11-.49-2.78.12-4.11s1.3-2.76 2-4.12c1.37-2.71 2.82-5.39 4.37-8s3.19-5.18 4.91-7.69a14.67 14.67 0 0 1 1-1.43c1.18-1.33 2.51-2.54 3.75-3.81l19.29-19.6 27-27.43 25.26-25.67 14.09-14.31.66-.68-1.21.16c3.17 1.95 3.61 6.23 4.6 9.49a82.64 82.64 0 0 0 4.76 11.38A65.79 65.79 0 0 1 148.31 97c1.15 4.42.66 9 1.41 13.43a69.2 69.2 0 0 0 3.51 13 20.82 20.82 0 0 0 6.91 9.33c3 2.35 6.45 4.27 8.89 7.27 2.63 3.24 3.82 7.41 4.67 11.42a94.93 94.93 0 0 1 1.12 32.72c-.11.84 1 1.87 1.68 1l6.35-8.16a23.46 23.46 0 0 0 4.29-7.8c.86-2.94 1.53-5.88 2.65-8.75s2.37-5.57 3.39-8.42a25 25 0 0 0 .11-18.35c-1.84-5.55-5.13-10.82-3.38-16.83a15.12 15.12 0 0 1 11.74-10.71c1.26-.21.73-2.14-.53-1.93zM59 94.85a5.45 5.45 0 0 0-3.34 3.9c-.33 1.2-.38 2.45-.63 3.66a18 18 0 0 1-1.03 3.28 19.77 19.77 0 0 0-1.83 6.23 12.93 12.93 0 0 0 1.25 6.33c.54 1.16 2.26.15 1.72-1a10.7 10.7 0 0 1-1-5.32 17.14 17.14 0 0 1 1.61-5.35 20.39 20.39 0 0 0 1.48-5.26c.22-1.62.5-3.89 2.31-4.53 1.21-.42.69-2.35-.53-1.93z"/><path fill="#231f20" d="M91.42 88.62c1.75.46 3.5.93 5.25 1.43a18.27 18.27 0 0 1 5 1.77 16.52 16.52 0 0 1 3.35 3.67l3.52 4.38c.81 1 2.22-.42 1.42-1.42l-3.64-4.51a16.86 16.86 0 0 0-3.64-3.85 18.34 18.34 0 0 0-5-1.83c-1.91-.54-3.82-1.07-5.74-1.57a1 1 0 0 0-.53 1.93z"/><path fill="#8b5e3c" d="M59.29 23.87C65 21.85 70.9 19.8 77 20.06a47.92 47.92 0 0 1 9.33 1.66l12.81 3.17c3.7.91 7.47 1.86 10.74 3.83a8.08 8.08 0 0 1 2.83 2.55 12.57 12.57 0 0 1 1.29 4 27.6 27.6 0 0 0 8.46 14.37c1.7 1.51 3.57 2.8 5.24 4.33 6.35 5.82 9.23 14.48 10.92 22.92a116.29 116.29 0 0 1 2.16 27.17 14 14 0 0 1-.57 4 17.7 17.7 0 0 1-1.85 3.49 46.59 46.59 0 0 0-5.6 13.8l-1.11-1.76-2 11.11a28 28 0 0 0-1.16-11.86 16.7 16.7 0 0 0-2.5 6.33 27.76 27.76 0 0 1 .49-10 130.43 130.43 0 0 0-9.62 20.22c-1.24 3.32-2.36 7-1.34 10.37a12.59 12.59 0 0 1 .8 2.91 7.3 7.3 0 0 1-.66 2.89l-5.65 15c-1.17 1.07-2.81-1.41-4.35-1a2.44 2.44 0 0 0-1.23 1 47.4 47.4 0 0 0-4.57 6.9c-2-1.18-4 1.51-6.11 2.27a4 4 0 0 1-5-4.1l-4.48 3.87c.37-.75-.41-1.65-1.24-1.73a4 4 0 0 0-2.32.83L73 183.41c-1-1.54-.18-3.54-.18-5.36s-2.22-3.86-3.39-2.46v-4.36c0-.7-.08-1.53-.69-1.89s-1.46 0-2.09.48a59.07 59.07 0 0 0-6.24 5l-.76-2a17.3 17.3 0 0 0-4 3.46l-1.1-3.59-2.76 1.8a40.66 40.66 0 0 1-4.88-25.72"/><path fill="#231f20" d="M59.56 24.84C64.72 23 70 21.12 75.56 21s10.89 1.75 16.15 3.05 10.8 2.18 15.68 4.46c2.3 1.08 4.39 2.37 5.12 4.94a56.23 56.23 0 0 0 2 6.69 28.85 28.85 0 0 0 8.27 11.09 58.84 58.84 0 0 1 5.61 4.84 28.36 28.36 0 0 1 4 5.51 49.15 49.15 0 0 1 4.78 13.24 108.85 108.85 0 0 1 2.39 16.08q.34 4.74.32 9.5c0 3.13.16 6.37-1.45 9.17a72.2 72.2 0 0 0-3.93 7.37 48.8 48.8 0 0 0-2.68 8.17l1.83-.23-1.12-1.77c-.42-.67-1.67-.66-1.83.24l-2 11.11 2 .27a29.66 29.66 0 0 0-1.19-12.13 1 1 0 0 0-1.83-.24A18.29 18.29 0 0 0 125 129l2 .26a28.1 28.1 0 0 1 .45-9.76 1 1 0 0 0-1.83-.77 131.58 131.58 0 0 0-6.41 12.44c-1.8 4-3.78 8.21-4.69 12.51a13.27 13.27 0 0 0-.07 6c.29 1.15 1 2.28.88 3.5a11.6 11.6 0 0 1-1 3.13l-5.3 14 .46-.6c-.53.38-2-.84-2.55-1a2.66 2.66 0 0 0-2.69.54 18.82 18.82 0 0 0-2.62 3.39A49 49 0 0 0 99 176.9l1.36-.36c-2.19-1.12-4 .44-5.75 1.57a2.93 2.93 0 0 1-4.81-2.54c.1-.94-1.12-1.22-1.7-.71l-4.49 3.87 1.67 1a2.23 2.23 0 0 0-1-2.56 3.22 3.22 0 0 0-3.32.11c-2.93 1.5-5.68 3.54-8.47 5.29l1.36.36c-.68-1.24-.19-2.73-.08-4.06a4.49 4.49 0 0 0-.66-3c-1-1.5-3-2.43-4.4-1l1.71.71a36.62 36.62 0 0 0-.09-5.24 2.27 2.27 0 0 0-2.45-2.13c-1.52.15-2.95 1.56-4.1 2.45q-2.14 1.65-4.12 3.46l1.67.44-.76-2a1 1 0 0 0-1.47-.56 19.47 19.47 0 0 0-4.18 3.61l1.68.44-1.11-3.59a1 1 0 0 0-1.47-.59l-2.75 1.79 1.37.36a39.84 39.84 0 0 1-4.78-24.94c.17-1.26-1.76-1.8-1.93-.53a42.11 42.11 0 0 0 5 26.48 1 1 0 0 0 1.37.36l2.75-1.8-1.49-.59 1.11 3.59a1 1 0 0 0 1.67.44 17.48 17.48 0 0 1 3.77-3.31l-1.47-.6.76 2a1 1 0 0 0 1.68.44 54.59 54.59 0 0 1 5.67-4.61c.28-.19 1.13-1 1.49-.69s.15 1.2.16 1.47v3.87a1 1 0 0 0 1.71.7c.46-.45 1.1.34 1.33.71a3.21 3.21 0 0 1 .27 2.24c-.19 1.65-.44 3.15.4 4.67a1 1 0 0 0 1.37.36l4.89-3.07 2.44-1.54c.26-.16 2.85-1.63 2.49-.49a1 1 0 0 0 1.68 1l4.48-3.87-1.71-.7a5 5 0 0 0 4.25 5.18 5.19 5.19 0 0 0 3.55-.95c1-.6 2.53-2.19 3.73-1.58a1 1 0 0 0 1.37-.36 49.74 49.74 0 0 1 3.87-6c.61-.79 1-1.71 2.12-1.19a12.05 12.05 0 0 0 2 1c2.09.58 2.53-1.49 3.1-3l2.74-7.25a68.76 68.76 0 0 0 2.59-7c.6-2.33-.66-4.12-.92-6.37a15.74 15.74 0 0 1 1.12-6.91c.79-2.33 1.72-4.61 2.68-6.87a131.79 131.79 0 0 1 7.36-14.58l-1.83-.77a29.92 29.92 0 0 0-.52 10.29c.13 1 1.74 1.49 2 .27a17 17 0 0 1 2.4-6.1l-1.82-.24a28.3 28.3 0 0 1 1.12 11.6c-.12 1.11 1.77 1.37 2 .26l2-11.11-1.83.24 1.12 1.76a1 1 0 0 0 1.83-.23 51 51 0 0 1 6.09-14.7 14.55 14.55 0 0 0 1.88-7.39c.1-2.93.09-5.85 0-8.78a117.81 117.81 0 0 0-2-17.45 62.29 62.29 0 0 0-4.11-13.76 31.12 31.12 0 0 0-8.4-11.35 56.57 56.57 0 0 1-5.9-5.14 26.44 26.44 0 0 1-4.19-6.08 29.3 29.3 0 0 1-2.38-7 8.65 8.65 0 0 0-3.7-5.73c-4.37-3-9.92-3.92-15-5.17l-9.48-2.34a51.53 51.53 0 0 0-9.12-1.67c-6.36-.39-12.5 1.73-18.4 3.82-1.21.43-.69 2.36.53 1.93z"/><path fill="#8b5e3c" d="M60 24.06c-9 9.27-14.15 21.53-19.08 33.47-1.11 2.69-2.24 5.56-1.73 8.43.27 1.49 1 2.94.8 4.45a8.85 8.85 0 0 1-1.08 2.81 32 32 0 0 0-3.18 18.59 64 64 0 0 0 3.07 11.64c1.09 3.27 2.23 6.63 4.51 9.21a29.58 29.58 0 0 1 2.9 3.24 11.91 11.91 0 0 1 1.46 3.88 49 49 0 0 1 .33 20.66c-1 5-2.71 10.48-.29 15a24.67 24.67 0 0 1 4.92-10.85 17.68 17.68 0 0 0 .82 8.29 65.89 65.89 0 0 0 7.32-11.74 50.82 50.82 0 0 0 3.78 10.2l3.57-7.76 3.67 3.75a2.2 2.2 0 0 0 1.31.82 2.17 2.17 0 0 0 1.51-.74l4.6-4A63.63 63.63 0 0 0 89.68 160a80.23 80.23 0 0 0 4.47-31.14 67.52 67.52 0 0 0 7.85 11.07l2.73-1.8a7.67 7.67 0 0 0 3.22 4.33 26.77 26.77 0 0 0 2.37-8.86 8 8 0 0 0 6.89 3.16 56.77 56.77 0 0 0-5.42-15.92l8.32.66a24.1 24.1 0 0 1-4.62-8.31l3.37-2.4a29.94 29.94 0 0 0-7.43-10.41"/><path fill="#231f20" d="M59.3 23.36c-6.22 6.45-10.67 14.28-14.39 22.38-1.91 4.15-3.7 8.36-5.38 12.6a15.43 15.43 0 0 0-1.41 6.94 21.46 21.46 0 0 0 .69 3.16 5.43 5.43 0 0 1-.66 4.08 33.91 33.91 0 0 0-3.61 13 39 39 0 0 0 2 14c1.28 4.2 2.49 8.89 5.07 12.52 1.24 1.73 3.11 3 4.12 4.9 1.11 2.09 1.45 4.74 1.8 7a48.92 48.92 0 0 1-.62 17.23c-1 4.86-2.36 10 0 14.69a1 1 0 0 0 1.83-.23 24.37 24.37 0 0 1 4.65-10.41l-1.7-.71a19 19 0 0 0 .86 8.56c.21.63 1.17 1.08 1.67.44a68.65 68.65 0 0 0 7.47-11.94l-1.83-.24a54.86 54.86 0 0 0 3.89 10.44 1 1 0 0 0 1.73 0l3.52-7.72-1.57.21c1.11 1.13 2.22 2.28 3.34 3.41.78.8 1.61 1.61 2.82 1.41s2-1.21 2.81-1.92l3.6-3.09-1.57-.21A66 66 0 0 0 89 160.7a1 1 0 0 0 1.68-.44 82 82 0 0 0 4.5-31.41l-1.87.5a70.32 70.32 0 0 0 8 11.28 1 1 0 0 0 1.21.16l2.73-1.79-1.47-.6a9 9 0 0 0 3.68 4.92 1 1 0 0 0 1.36-.36 29.34 29.34 0 0 0 2.51-9.36l-1.71.7a9 9 0 0 0 7.6 3.46 1 1 0 0 0 1-1.27 59.29 59.29 0 0 0-5.51-16.16l-.87 1.51 8.32.66c1 .08 1.21-1.1.71-1.7a23.88 23.88 0 0 1-4.37-7.87l-.45 1.13 3.36-2.4a1.05 1.05 0 0 0 .36-1.37 31.28 31.28 0 0 0-7.58-10.62c-1-.87-2.37.54-1.42 1.41A29.91 29.91 0 0 1 118 111.3l.36-1.37-3.36 2.4a1 1 0 0 0-.46 1.13 26 26 0 0 0 4.88 8.75l.7-1.71-8.32-.66a1 1 0 0 0-.86 1.5 57.23 57.23 0 0 1 5.3 15.66l1-1.27a7.17 7.17 0 0 1-6.18-2.87c-.6-.77-1.64 0-1.71.71a26.3 26.3 0 0 1-2.23 8.35l1.37-.36a6.79 6.79 0 0 1-2.76-3.72 1 1 0 0 0-1.47-.6l-2.73 1.79 1.21.16A67.91 67.91 0 0 1 95 128.34a1 1 0 0 0-1.86.51 80.47 80.47 0 0 1-4.43 30.88l1.67-.45a64.11 64.11 0 0 1-10.28-16.43c-.27-.63-1.14-.57-1.57-.2l-2.47 2.17a13.46 13.46 0 0 1-2.3 2c-1 .51-1.91-.9-2.57-1.58l-2.33-2.39a1 1 0 0 0-1.57.2l-3.57 7.77h1.73a51.38 51.38 0 0 1-3.69-10 1 1 0 0 0-1.83-.24 66.08 66.08 0 0 1-7.16 11.54l1.68.44a17.65 17.65 0 0 1-.79-8 1 1 0 0 0-1.71-.71 26.53 26.53 0 0 0-5.17 11.29l1.83-.24c-2.14-4.18-.69-9 .22-13.36a51.15 51.15 0 0 0 1-14.29 49.61 49.61 0 0 0-1.08-7.25 12.69 12.69 0 0 0-2.41-5.58c-1.39-1.67-3-3-4-4.93a35 35 0 0 1-2.47-6.09c-1.51-4.54-3.06-9.14-3.32-13.95a31.32 31.32 0 0 1 2.2-13.37C39.5 74.1 41 72.14 41 70a11.4 11.4 0 0 0-.6-3.16 9.09 9.09 0 0 1-.16-4.18 34.36 34.36 0 0 1 2.27-6.38c.89-2.14 1.78-4.27 2.71-6.39 4-9 8.57-17.93 15.47-25.08.89-.93-.52-2.34-1.42-1.41z"/><path fill="#8b5e3c" d="M204.7 101.73c.14-1.36 2-1.9 3.24-1.25a6.32 6.32 0 0 1 2.41 3.21 31.48 31.48 0 0 1 3.49-4.94c.28-.31.63-.65 1-.58s.66.54.82 1l1.73 4.64c.63-1.27 2.63-.78 3.58.27s1.58 2.51 2.9 3a3.55 3.55 0 0 1 3.69.13 5.93 5.93 0 0 1 2.34 5.72 17.63 17.63 0 0 1-2.28 6.07l-1.62 3.09c-.48.9-1.27 1.94-2.24 1.67a2 2 0 0 1-1-.8 10 10 0 0 1-1.91-4.33 24.5 24.5 0 0 0-3.83 6 5.11 5.11 0 0 1-2.83-3.84 15 15 0 0 1 .11-4.95l-2.68 5c-.52 1-1.32 2.12-2.43 2-1.48-.19-1.63-2.26-1.37-3.73l.91-5.17-1.19.9a7.27 7.27 0 0 1-1.14-5.81 9.83 9.83 0 0 0 .57-2.8c-.09-1.47-1.25-2.61-2.33-3.61"/><path fill="#231f20" d="M205.66 102c.2-1 1.41-.93 2.09-.47a6.21 6.21 0 0 1 1.74 2.67 1 1 0 0 0 1.73 0 29 29 0 0 1 3.19-4.57c.42-.48.17-.39.41 0a7.49 7.49 0 0 1 .52 1.39l1.13 3a1 1 0 0 0 1.83.24c.67-1.09 2.26.78 2.62 1.26a6.16 6.16 0 0 0 2.49 2.39c.63.24.87 0 1.47-.22a2.8 2.8 0 0 1 2.39.47 4.66 4.66 0 0 1 1.69 3.35c.28 3-1.56 5.8-2.88 8.32-.36.68-.69 1.4-1.1 2.06s-.7 1.15-1.28.62a8.05 8.05 0 0 1-1.85-4.15 1 1 0 0 0-1.67-.44 26.92 26.92 0 0 0-4 6.15l1.37-.36c-3.05-1.39-2.59-5.18-2.23-7.92.13-1-1.43-1.33-1.87-.5l-2.11 4c-.28.52-1.39 3.18-2.29 2.37-.61-.55-.28-2.11-.16-2.77.26-1.57.55-3.14.82-4.7.14-.75-.69-1.71-1.46-1.13l-1.19.89 1.36.36a6.6 6.6 0 0 1-1.18-3.49 19.15 19.15 0 0 1 .69-3.67c.34-2.21-1-3.84-2.56-5.25-.94-.88-2.36.53-1.41 1.41a6.28 6.28 0 0 1 1.94 2.46c.35 1.16-.37 2.42-.55 3.57a8.37 8.37 0 0 0 1.35 6 1 1 0 0 0 1.37.36l1.19-.89-1.47-1.13a48.11 48.11 0 0 0-1 6.3c-.06 1.29.23 2.88 1.46 3.57 1.43.8 2.9-.11 3.75-1.29a52.75 52.75 0 0 0 3.22-5.91l-1.86-.51c-.46 3.47-.52 7.93 3.22 9.65a1 1 0 0 0 1.36-.36 25.4 25.4 0 0 1 3.68-5.74l-1.67-.45c.39 2 1.94 6.59 4.74 5.84 1.35-.36 2-1.79 2.63-2.92.82-1.55 1.68-3.08 2.41-4.68 1.2-2.67 1.87-5.7.51-8.45a5 5 0 0 0-6.8-2.5h1c-1.73-.8-2.23-2.94-4-3.77a2.88 2.88 0 0 0-3.87.84l1.83.24c-.58-1.54-1.13-3.1-1.74-4.63-.38-1-1-1.87-2.21-1.66s-1.86 1.47-2.49 2.29a31.75 31.75 0 0 0-2.47 3.7h1.73c-.78-1.69-1.85-3.61-3.86-3.93a3.1 3.1 0 0 0-3.63 2.2c-.26 1.26 1.67 1.8 1.93.54z"/><path fill="#009444" d="M200.89 101.2c-2.06-8.72-4.41-18-10.92-24.13a1.7 1.7 0 0 0-1.07-.59 1.81 1.81 0 0 0-1.05.46L179.58 83c1.61 3.52 4.76 6 7.79 8.46l12.72 10.06"/><path fill="#231f20" d="M201.86 100.94c-1.55-6.55-3.19-13.28-6.76-19.07a28.85 28.85 0 0 0-2.79-3.81c-.83-1-2-2.57-3.41-2.58a3.39 3.39 0 0 0-2 .88l-2.75 2-5.12 3.76a1 1 0 0 0-.36 1.36c1.84 3.87 5.24 6.53 8.52 9.12l12.14 9.61c1 .79 2.42-.62 1.41-1.41L189 91.52c-3.27-2.58-6.75-5.16-8.59-9l-.36 1.37 4.53-3.32 2.2-1.57c.47-.34 1.45-1.4 2.05-1.4s1.21 1 1.54 1.33a23.87 23.87 0 0 1 1.59 1.9 30.13 30.13 0 0 1 2.29 3.61c2.88 5.3 4.3 11.25 5.68 17.07.29 1.25 2.22.72 1.93-.53z"/><path fill="#009444" d="M180.69 86.16a16.53 16.53 0 0 0-13.92 14.11 11.27 11.27 0 0 1 7.62.1 29.89 29.89 0 0 1 6.85 3.65 3.46 3.46 0 0 0 1.31.63 3.56 3.56 0 0 0 1.83-.34l10.09-3.83a3.21 3.21 0 0 1 1.91-.29"/><path fill="#231f20" d="M180.42 85.2a17.57 17.57 0 0 0-14.65 15.07 1 1 0 0 0 1.26 1 10.88 10.88 0 0 1 7.5.24c2.44.89 4.43 2.46 6.67 3.71s4.79-.42 6.89-1.21l3.9-1.48 1.83-.69a5.28 5.28 0 0 1 2.3-.65c1.26.19 1.8-1.74.53-1.93a6.34 6.34 0 0 0-3.36.65l-4.13 1.56L185 103c-.79.3-1.8.87-2.66.54a8.46 8.46 0 0 1-1.53-1c-4.22-2.72-9.28-5.07-14.34-3.26l1.27 1A15.6 15.6 0 0 1 181 87.13c1.27-.18.73-2.11-.53-1.93z"/><path fill="#009444" d="M214.64 133.36a69.54 69.54 0 0 1 18.25 30.15l7.39-17.19a33.89 33.89 0 0 0 2-5.48c.85-3.58.53-7.31.19-11a55.9 55.9 0 0 0-14.37-4.7 3.25 3.25 0 0 0-1.28-.06 3.06 3.06 0 0 0-1.43.86c-1.91 1.77-3.62 4.21-6.21 4.42a8.07 8.07 0 0 0-1.84.14c-.59.19-1.12.8-.92 1.38"/><path fill="#231f20" d="M213.93 134.07a69.13 69.13 0 0 1 18 29.71c.22.74 1.47 1.07 1.83.24l6.12-14.26c1.92-4.47 3.87-8.7 3.93-13.66 0-1.28-.05-2.56-.14-3.84-.07-.86.13-2.42-.5-3.1a9.14 9.14 0 0 0-2.83-1.35c-1.1-.46-2.21-.9-3.33-1.3a58 58 0 0 0-7.07-2c-2.05-.44-3.62-.74-5.27.75s-2.93 3.54-5.08 4c-1.07.25-2.2-.07-3.18.58a2.17 2.17 0 0 0-1 2.29c.18 1.27 2.1.73 1.93-.53 0-.15 2.7-.38 3.08-.5a7.31 7.31 0 0 0 2.24-1.23 20.67 20.67 0 0 0 2.11-2c.76-.76 1.57-1.91 2.73-1.85a30 30 0 0 1 7.2 1.76 54.93 54.93 0 0 1 7.23 2.87l-.5-.86a42.83 42.83 0 0 1 .21 8.62 29.21 29.21 0 0 1-2.64 8.23L232 163l1.83.24a71.32 71.32 0 0 0-18.51-30.6c-.93-.9-2.34.52-1.42 1.42z"/><path fill="#009444" d="M222.8 144.92c-2 2.46-1.77 6.11-.59 9.06s3.16 5.53 4.46 8.42a40.7 40.7 0 0 1 2.18 6.93l1.94 7.76c5.4-2.6 8.65-8.15 11.57-13.39 1.18-2.12 2.39-4.37 2.27-6.79-.16-3.36-2.79-6-5.26-8.3"/><path fill="#231f20" d="M221.94 144.41c-3.46 4.52-.78 10.26 1.7 14.5a34.16 34.16 0 0 1 3.68 8.48c.89 3.31 1.67 6.65 2.5 10a1 1 0 0 0 1.47.6c5.6-2.78 8.9-8.33 11.84-13.59 1.55-2.78 3.07-5.78 2.27-9-.74-3-3.11-5.36-5.32-7.42-.94-.88-2.36.53-1.41 1.41 2 1.86 4.26 4 4.85 6.72.63 3-1.28 5.85-2.68 8.33-2.63 4.65-5.62 9.41-10.56 11.86l1.47.6c-1.43-5.72-2.4-11.85-5.29-17.05-2.31-4.14-6.34-9.74-2.8-14.36.79-1-.95-2-1.72-1z"/><path fill="#009444" d="M239.82 147.6a13.93 13.93 0 0 0 6.13.17 26.58 26.58 0 0 0 3.33-21.27c-.39-1.42-1-3-2.34-3.59a5.94 5.94 0 0 0-2.13-.42l-13.45-.92a3 3 0 0 0-1.49.16 1 1 0 0 0-.58 1.23"/><path fill="#231f20" d="M239.55 148.56a15.48 15.48 0 0 0 5.79.32 2 2 0 0 0 1.8-1.12 26.82 26.82 0 0 0 1.37-2.53 28.06 28.06 0 0 0 2.66-10.8c.13-3.32-.13-7.4-1.76-10.37a4.69 4.69 0 0 0-3.73-2.49c-2.18-.27-4.41-.32-6.6-.47-2.57-.17-5.14-.4-7.72-.53-1.66-.08-3.46.69-3 2.66.27 1.26 2.2.73 1.92-.53 0-.13 5.13.15 5.59.18l5.73.39c1.57.11 4.24-.2 5.47.92s1.38 2.81 1.66 4.17a25.75 25.75 0 0 1-3.62 18.91l.6-.46a13.38 13.38 0 0 1-5.6-.18c-1.25-.3-1.78 1.63-.53 1.93zm-138.8-37.69c-1.42-7-8.36-10.91-15-11.31a33.42 33.42 0 0 0-12.14 1.86c-3.46 1.11-6.89 2.74-9 5.82A9 9 0 0 0 63 112.6c.1 2.18 1.46 4.15 1.21 6.35-.09.89 1.15 1.28 1.71.71a19.2 19.2 0 0 1 14.93-5.6c3 .21 5.61 1.41 8.58.41 3.2-1.06 6.1-2 9.52-2a1 1 0 0 0 0-2 27.21 27.21 0 0 0-9.64 1.9 9.16 9.16 0 0 1-5.46.09 22.28 22.28 0 0 0-4.15-.48 21.23 21.23 0 0 0-15.19 6.23l1.7.71c.24-2.13-.93-3.92-1.18-6a7.35 7.35 0 0 1 2-5.6c2.91-3.24 7.82-4.48 11.93-5.3 4.33-.86 9.1-.94 13.14 1.09a12.11 12.11 0 0 1 6.74 8.24c.26 1.26 2.18.72 1.93-.54z"/><path fill="#fff" d="M65.33 108.74a10.43 10.43 0 0 0 2.27 3.79 6.39 6.39 0 0 0 1.23-3.89 2.38 2.38 0 0 0 2.39-.69 7.51 7.51 0 0 1 2-1.63c1-.42 2.26-.11 3.27-.57.57-.26 1.09-.77 1.72-.71s.93.51 1.43.7c1.81.72 4-2 5.48-.84a3.34 3.34 0 0 1 .81 2.18c.14.78.6 1.69 1.4 1.69 1 0 1.33-1.23 1.47-2.18s.74-2.15 1.67-1.92c.57.15 1.19.81 1.6.38a1.21 1.21 0 0 0-.36-1.69 3.52 3.52 0 0 0-1.88-.45c-1.7-.07-3.4-.11-5.1-.11a10 10 0 0 0-2.84.26c-.91.25-1.75.75-2.66 1a10.75 10.75 0 0 1-4.75-.15l6.68-1.46c2.49-.55 5.38-1 7.35.62-3.09-.89-6.28 1.17-9.49 1.08-1 0-2-.26-2.93-.35a11.09 11.09 0 0 0-10.66 5.76"/><path fill="#231f20" d="M68 85.19a5 5 0 0 0-2.81 5.15c1.08 0 1.51-1.77 2.58-1.74a2 2 0 0 1 1.23.79 9 9 0 0 0 4.34 2.45 1.62 1.62 0 0 0 .9 0c1-.32.75-1.75 1.08-2.73a2.16 2.16 0 0 1 3.11-1.06 8.43 8.43 0 0 0 1.07.82c1.08.5 2.24-.47 3-1.36a2 2 0 0 0 .72-1.61 1.81 1.81 0 0 0-.77-1 11.56 11.56 0 0 0-6.84-2 34.31 34.31 0 0 0-7.18.94m-.78-9.98c-.9-1.76-3.35-2.8-5-1.64a14.67 14.67 0 0 1-1.37 1.13c-.53.29-1.33.21-1.53-.35l-3.19 3.77a3.54 3.54 0 0 1-2.27 1.55c.35.37.69.74 1 1.1l-2.32 1.82c-.13.1-.28.25-.23.41s.23.21.38.28a1.18 1.18 0 0 1 .52 1.36 3.38 3.38 0 0 1-.84 1.32 1.51 1.51 0 0 1 1.67.21 4.47 4.47 0 0 0 1.53.92c1.57.33 2.61-1.83 4.2-2.07a6.6 6.6 0 0 1 1.09 0 5 5 0 0 0 3.6-2A14.6 14.6 0 0 0 67 78l.79 1.65c.5-1.92.76-4.04-.14-5.79zm-2 5.22l-1.17 1.09a4.51 4.51 0 0 1-2 1.33 1.55 1.55 0 0 1-1.89-1.12 1.84 1.84 0 0 1 1.19-1.64 8.69 8.69 0 0 0 1.93-1c.36-.31.69-.77 1.17-.79.8.05.93 1.28.75 2.13zM103 73.84c-.13-.67-1.46-.78-1.27-1.45.06-.22.28-.34.41-.53.33-.45.05-1.1-.34-1.51a5 5 0 0 1-1.12-1.23c-.18-.4-.18-.89-.51-1.18a1.43 1.43 0 0 0-1-.24 17.49 17.49 0 0 0-4.37.59 3 3 0 0 1-2 .08 10.33 10.33 0 0 1-.87-.6c-1.08-.66-2.51 0-3.46.8A11.73 11.73 0 0 1 85.52 71a1.09 1.09 0 0 1-.77.08c-.54-.21-.57-1-1.08-1.31s-1.25.35-1.61.94l-1.61 2.65a7.5 7.5 0 0 0-1 2.28A2.49 2.49 0 0 0 80 78a1.54 1.54 0 0 0 2.22-.09l.31-.25a9.59 9.59 0 0 0 4.63 2.31 9.5 9.5 0 0 0 2.49-.21 19.42 19.42 0 0 0 4.58-1.19 4 4 0 0 1 1.29-.45 7.43 7.43 0 0 1 1.54.22c2.34.32 4.22-1.8 5.62-3.7a1.08 1.08 0 0 0 .32-.8zm-10.32.34a2 2 0 0 1-1 2.68 5.67 5.67 0 0 1-3.17.3 2.46 2.46 0 0 1-1.08-.27 1.69 1.69 0 0 1-.43-2.23 3.88 3.88 0 0 1 2-1.48c1.8-.78 4.16-1 5.49.4z"/></symbol><symbol id="logo-16" viewBox="0 0 16 16"><path fill="#231f20" d="M-.37-.61h16.74v16.74H-.37z"/><path fill="#8b5e3c" d="M12.8 6.27a1 1 0 0 0-.8 1.17 2.64 2.64 0 0 0 .15.45 2.32 2.32 0 0 1 .21.89 6.5 6.5 0 0 1-.44 1.38 3.19 3.19 0 0 1-.13.44 2.12 2.12 0 0 1-.23.35l-.39.5a6.36 6.36 0 0 0-.07-2.13 1.8 1.8 0 0 0-.35-.84c-.23-.27-.59-.41-.81-.69a1.93 1.93 0 0 1-.3-.69 4.25 4.25 0 0 1-.14-.71v-.34a10.08 10.08 0 0 0-.68-1.88c-.07-.23-.12-.49-.32-.61l-5.9 6A9 9 0 0 0 1.72 11a.29.29 0 0 0 0 .22c0 .1.17.13.25.2s.08.42.23.56.77-.07.9.23a.58.58 0 0 1 0 .32 1.58 1.58 0 0 0 .45 1.07 1.15 1.15 0 0 0 .4.36 1.19 1.19 0 0 0 .46.06h1.73a2.8 2.8 0 0 0 1.08-.15 11.06 11.06 0 0 0 1.34-.93.17.17 0 0 1 .12 0c.06 0 .09 0 .13.1.21.31.36.67.58 1a1.14 1.14 0 0 0 .93.56c.29 0 .64-.15.83.07a.71.71 0 0 0 .1.14c.17.16.44 0 .56-.22a10.52 10.52 0 0 0 .61-1.59c.26-.58.67-1.07.91-1.66a6 6 0 0 0 .27-1c.05-.27.11-.55.16-.83s.07-.43-.08-.56-.14-.09-.18-.15a.43.43 0 0 1 0-.25 1.11 1.11 0 0 0-.83-1 1.32 1.32 0 0 0 .27-1.16"/><path fill="#231f20" d="M12.77 6.17a1.17 1.17 0 0 0-.77 1.6 2.24 2.24 0 0 1 0 1.76q-.15.38-.27.75a3.35 3.35 0 0 1-.69 1.1l.18.07A6.23 6.23 0 0 0 11.09 9c-.24-.77-1.09-1-1.34-1.75s-.14-1.32-.4-1.95c-.15-.39-.35-.75-.49-1.16a1.14 1.14 0 0 0-.34-.65.11.11 0 0 0-.14 0l-2.91 3c-1 1-2.08 2-3 3a4.76 4.76 0 0 0-.47.73 2.37 2.37 0 0 0-.43.89c0 .16 0 .17.11.29a4.85 4.85 0 0 1 .29.49.71.71 0 0 0 .12.18c.17.16.35.06.55.11.39.1.27.53.39.86a1.61 1.61 0 0 0 1.1 1.08 8.19 8.19 0 0 0 1.31 0 8.28 8.28 0 0 0 1.32 0 2.13 2.13 0 0 0 .93-.39c.34-.25.73-.8 1.13-.39.21.21.3.58.5.82a1.42 1.42 0 0 0 .69.49c.32.08.6-.06.91.09s.31.24.53.2c.57-.11.74-1.11.91-1.54a22.44 22.44 0 0 0 1.25-2.73c.13-.6.4-1.27.1-1.82s-.31-1.19-1.07-1.44l.06.15a1.53 1.53 0 0 0 .3-1.31c0-.13-.22-.07-.19 0a1.35 1.35 0 0 1-.27 1.09c0 .05 0 .12.06.14a1.05 1.05 0 0 1 .65.53c.1.2 0 .44.13.62a1.45 1.45 0 0 1 .24.94 6.62 6.62 0 0 1-1 2.72 6.33 6.33 0 0 0-.48 1c-.15.45-.31 1.38-1 1.17-.15 0-.2-.16-.39-.17s-.25 0-.38 0a1.15 1.15 0 0 1-1-.52c-.21-.29-.43-1.15-.87-1.08-.22 0-.45.28-.62.42a2.64 2.64 0 0 1-1.72.67h-1.3a3.19 3.19 0 0 1-.69 0 1.45 1.45 0 0 1-.94-.87c-.12-.28 0-.64-.14-.9S2.9 12 2.72 12a.76.76 0 0 1-.59-.37c0-.06-.09-.19-.12-.25s-.06 0-.07 0a.87.87 0 0 1 0-.43 3.09 3.09 0 0 1 .34-.65 4.21 4.21 0 0 1 .55-.76c.49-.52 1-1 1.52-1.54l3.8-4s.3-.38.37-.37.28.94.35 1.09a4.41 4.41 0 0 1 .48 1.49 2.63 2.63 0 0 0 .75 1.9 2.1 2.1 0 0 1 .7.72 2.48 2.48 0 0 1 .2.72 6.65 6.65 0 0 1 0 1.89.1.1 0 0 0 .17.08 6.32 6.32 0 0 0 1.16-2.37A2 2 0 0 0 12.27 8a2.55 2.55 0 0 1-.22-.76 1 1 0 0 1 .78-.91c.12 0 .07-.23-.06-.2zm-9.29-.61a.38.38 0 0 0-.24.28 2 2 0 0 0 0 .24c0 .08-.05.15-.07.22a1.16 1.16 0 0 0-.17.41.9.9 0 0 0 .09.43c.06.12.23 0 .17-.1a.88.88 0 0 1-.06-.33 1 1 0 0 1 .11-.34 1.33 1.33 0 0 0 .1-.37c0-.09 0-.24.12-.27s.07-.24 0-.2z"/><path fill="#231f20" d="M5.6 5.22l.34.1a1.1 1.1 0 0 1 .32.11 1.2 1.2 0 0 1 .22.23l.23.34h.14a.11.11 0 0 0 0-.14l-.24-.3a.85.85 0 0 0-.25-.25A1 1 0 0 0 6 5.13L5.65 5c-.12 0-.18.16-.05.19z"/><path fill="#8b5e3c" d="M3.51 1A3.08 3.08 0 0 1 4.66.71a2.51 2.51 0 0 1 .61.1l.84.19a2.44 2.44 0 0 1 .7.25.61.61 0 0 1 .19.19.79.79 0 0 1 .08.26 1.8 1.8 0 0 0 .55.94l.37.29a2.7 2.7 0 0 1 .71 1.49 7.13 7.13 0 0 1 .12 1.78 1.24 1.24 0 0 1 0 .27 1 1 0 0 1-.13.22 3 3 0 0 0-.36.91l-.07-.12-.13.73A1.88 1.88 0 0 0 8 7.43a1.08 1.08 0 0 0-.16.42 1.83 1.83 0 0 1 0-.66 8.39 8.39 0 0 0-.63 1.32 1.08 1.08 0 0 0-.09.68.67.67 0 0 1 .05.19.41.41 0 0 1 0 .19l-.37 1c-.08.07-.18-.09-.28-.07a.17.17 0 0 0-.08.06 2.59 2.59 0 0 0-.3.46c-.13-.08-.26.1-.4.14a.26.26 0 0 1-.33-.26l-.29.25c0-.05 0-.11-.08-.11a.21.21 0 0 0-.15.05l-.51.32c-.06-.1 0-.23 0-.35s-.14-.25-.22-.16v-.41c0-.02-.09 0-.14 0a3.19 3.19 0 0 0-.4.33l-.05-.13a1 1 0 0 0-.26.23l-.08-.24-.23.13a2.74 2.74 0 0 1-.32-1.68"/><path fill="#231f20" d="M3.53 1.05A2.87 2.87 0 0 1 5.24.91a9.6 9.6 0 0 1 1.2.31c.47.16.48.44.65.83a2.09 2.09 0 0 0 .59.76 3.33 3.33 0 0 1 1 2.4 2.77 2.77 0 0 1-.12 1.43 5 5 0 0 0-.38.93h.18l-.07-.12c0-.07-.17-.07-.18 0L8 8.18h.2a2.66 2.66 0 0 0-.08-.8.11.11 0 0 0-.19 0 1.82 1.82 0 0 0-.17.44h.2a2.22 2.22 0 0 1 0-.63.1.1 0 0 0-.18-.08 6.63 6.63 0 0 0-.69 1.51 1.31 1.31 0 0 0 0 .48 1.89 1.89 0 0 1-.16.9c0 .14-.08.32-.22.39s-.1-.05-.13 0a.7.7 0 0 0-.17.09c-.14.1-.2.32-.33.41s-.49.25-.53 0c0-.08-.12-.09-.17 0l-.29.25h.17c-.07-.46-.75.12-.89.2l.15.06c-.07-.23 0-.69-.36-.58l.13.1c0-.72-.31-.52-.76-.12h.16v-.13c0-.05-.09-.1-.14-.06a1.35 1.35 0 0 0-.28.25h.16l-.07-.23a.1.1 0 0 0-.15-.06c-.3.2-.37-1.24-.35-1.48s-.18-.13-.2 0A3 3 0 0 0 3 10.82a.1.1 0 0 0 .13 0l.18-.12-.14-.06.07.23a.11.11 0 0 0 .17.05l.24-.21-.15-.06v.13a.11.11 0 0 0 .17 0c.3-.27.42-.49.42 0a.1.1 0 0 0 .11.22c.06 0 .09.38.11.45a.1.1 0 0 0 .14.06 2.92 2.92 0 0 1 .55-.35c0 .08.12.08.17 0L5.5 11h-.16a.38.38 0 0 0 .27.35c.21 0 .33-.19.52-.16a.09.09 0 0 0 .11 0 .65.65 0 0 1 .58-.4.12.12 0 0 0 .1-.08 3.5 3.5 0 0 0 .37-1.36 4 4 0 0 1 .69-2l-.18-.19a2.66 2.66 0 0 0 0 .69.1.1 0 0 0 .19 0 1.11 1.11 0 0 1 .16-.39h-.19a2.37 2.37 0 0 1 .04.75.1.1 0 0 0 .19 0l.13-.72h-.18l.07.12a.1.1 0 0 0 .18 0c.11-.42.4-.78.51-1.19A4.23 4.23 0 0 0 8.88 5a3.32 3.32 0 0 0-1-2.3 1.91 1.91 0 0 1-.51-.55c-.14-.23-.14-.52-.28-.75a1.12 1.12 0 0 0-.68-.4A11.23 11.23 0 0 0 4.89.63a3 3 0 0 0-1.41.23c-.12 0-.07.23 0 .19z"/><path fill="#8b5e3c" d="M3.55 1a6.49 6.49 0 0 0-1.24 2.16 1 1 0 0 0-.12.55.71.71 0 0 1 .05.29.45.45 0 0 1-.07.18A2 2 0 0 0 2 5.4a3.41 3.41 0 0 0 .2.76 1.67 1.67 0 0 0 .29.6 1.9 1.9 0 0 1 .16.24.82.82 0 0 1 .1.26 3.23 3.23 0 0 1 0 1.35 1.5 1.5 0 0 0 0 1 1.64 1.64 0 0 1 .32-.71 1.24 1.24 0 0 0 .06.54 5.52 5.52 0 0 0 .48-.77 3.15 3.15 0 0 0 .24.67l.24-.51.24.17s0 .05.08.05a.14.14 0 0 0 .1-.05l.3-.26a4.42 4.42 0 0 0 .68 1.09 5.44 5.44 0 0 0 .3-2 4 4 0 0 0 .51.73l.18-.12a.49.49 0 0 0 .21.28 1.66 1.66 0 0 0 .15-.58.54.54 0 0 0 .45.21 3.45 3.45 0 0 0-.35-1h.54a1.78 1.78 0 0 1-.3-.54l.22-.16A2 2 0 0 0 6.92 6"/><path fill="#231f20" d="M3.48.9a6.35 6.35 0 0 0-1.15 1.94 2.07 2.07 0 0 0-.23.89c0 .45-.22.83-.25 1.28a3 3 0 0 0 .2 1.1 2.88 2.88 0 0 0 .44.83 2.24 2.24 0 0 1 .18 1.61 1.81 1.81 0 0 0 0 1c0 .09.17.11.2 0a1.91 1.91 0 0 1 .31-.68L3 8.85a1.59 1.59 0 0 0 0 .57.1.1 0 0 0 .18 0 4.33 4.33 0 0 0 .48-.77h-.18a3.38 3.38 0 0 0 .26.69.1.1 0 0 0 .17 0l.23-.51-.14.02c.41.43.44.36.86 0H4.7a5.33 5.33 0 0 0 .7 1.11.1.1 0 0 0 .17 0 5.75 5.75 0 0 0 .3-2.06h-.19a5.63 5.63 0 0 0 .53.75.11.11 0 0 0 .12 0l.18-.12-.15-.06a.73.73 0 0 0 .24.33.11.11 0 0 0 .17 0 2.18 2.18 0 0 0 .15-.61l-.17.07a.67.67 0 0 0 .52.24.11.11 0 0 0 .1-.13A4.91 4.91 0 0 0 7 7.25l-.09.15h.54c.1 0 .12-.11.07-.17s-.32-.38-.1-.54a.11.11 0 0 0 0-.14 2.49 2.49 0 0 0-.5-.7c-.1-.09-.24.05-.14.14a2.34 2.34 0 0 1 .47.66v-.14l-.22.16a.09.09 0 0 0 0 .11 2.1 2.1 0 0 0 .32.59l.07-.17h-.54c-.08 0-.12.08-.09.15a4 4 0 0 1 .35 1l.09-.12-.38-.18c-.06-.07-.16 0-.17.07a1.66 1.66 0 0 1-.15.55h.17l-.13-.27a.1.1 0 0 0-.14-.06C6.2 8.49 6 8 5.87 7.77s-.19 0-.18.05a5.7 5.7 0 0 1-.29 2h.16a4.54 4.54 0 0 1-.66-1.1.11.11 0 0 0-.16 0c-.21.19-.35.25-.58 0a.11.11 0 0 0-.16 0l-.23.51h.17a3.81 3.81 0 0 1-.24-.63.1.1 0 0 0-.18 0 5.52 5.52 0 0 1-.52.74h.18a1.45 1.45 0 0 1-.05-.51c0-.11-.13-.12-.18 0a2 2 0 0 0-.34.73h.2a2.53 2.53 0 0 1 .06-1.25 2.91 2.91 0 0 0 0-.93c-.06-.37-.2-.45-.4-.75a2.89 2.89 0 0 1-.4-1.22 1.8 1.8 0 0 1 0-.73c0-.19.17-.35.2-.53a6 6 0 0 1 .09-.94A6.5 6.5 0 0 1 3.62 1c.09-.06-.05-.2-.14-.1z"/><path fill="#8b5e3c" d="M13 6.05a.15.15 0 0 1 .23-.05.45.45 0 0 1 .16.22 1.9 1.9 0 0 1 .22-.33.13.13 0 0 1 .07 0 .11.11 0 0 1 .06.07l.11.3c0-.08.17 0 .23 0s.11.16.19.19a.25.25 0 0 1 .24 0 .4.4 0 0 1 .16.38 1.32 1.32 0 0 1-.15.39l-.11.21c0 .06-.08.13-.15.11h-.06a.67.67 0 0 1-.12-.29 1.66 1.66 0 0 0-.26.39.32.32 0 0 1-.18-.25.86.86 0 0 1 0-.32l-.18.33c0 .06-.09.13-.16.12s-.1-.14-.09-.24l.06-.34-.08.06a.51.51 0 0 1-.07-.38 1.16 1.16 0 0 0 0-.18.38.38 0 0 0-.12-.34"/><path fill="#231f20" d="M13.11 6.07h.09a.37.37 0 0 1 .1.17.1.1 0 0 0 .17 0c0-.06.07-.11.1-.16s.09-.1.12-.15c-.06 0-.07 0 0 0a.25.25 0 0 0 0 .09l.06.19a.11.11 0 0 0 .19 0 .08.08 0 0 1 .05 0l.06.07a.52.52 0 0 0 .17.16h.23a.26.26 0 0 1 .12.19 1 1 0 0 1-.18.54l-.08.14a.8.8 0 0 1-.11-.25.1.1 0 0 0-.17 0 2.19 2.19 0 0 0-.26.41h.13c-.18-.08-.15-.32-.12-.48a.1.1 0 0 0-.19 0l-.14.25a.39.39 0 0 1-.06.11v-.16c0-.03 0-.2.05-.3s-.07-.17-.15-.11h-.08.14a.35.35 0 0 1-.07-.2 1 1 0 0 1 0-.24.41.41 0 0 0-.19-.34c-.1-.09-.24.06-.15.14s.12.1.13.17 0 .15-.05.22a.59.59 0 0 0 .1.39s.09.07.13 0l.08-.06-.14-.11a1.94 1.94 0 0 0-.07.42.25.25 0 0 0 .12.26.2.2 0 0 0 .27-.09 2.46 2.46 0 0 0 .22-.34h-.18c0 .24 0 .54.22.66a.11.11 0 0 0 .14 0 1.47 1.47 0 0 1 .24-.37h-.17c0 .15.14.46.35.4s.15-.11.19-.19.12-.22.17-.33a.68.68 0 0 0 0-.59.36.36 0 0 0-.49-.16h.1c-.11 0-.14-.19-.25-.25a.24.24 0 0 0-.31.07h.19l-.12-.3c0-.07-.08-.14-.17-.13s-.13.08-.18.14a2 2 0 0 0-.18.26h.17a.43.43 0 0 0-.27-.27.24.24 0 0 0-.28.17c0 .13.17.18.19.05z"/><path fill="#009444" d="M12.77 6a3.1 3.1 0 0 0-.72-1.58.15.15 0 0 0-.07 0h-.07l-.54.39a1.7 1.7 0 0 0 .51.56l.83.65"/><path fill="#231f20" d="M12.86 6a4.29 4.29 0 0 0-.44-1.26 2.48 2.48 0 0 0-.19-.26c-.06-.07-.14-.18-.25-.17a.25.25 0 0 0-.14.06l-.18.13-.34.25a.1.1 0 0 0 0 .13 1.81 1.81 0 0 0 .56.61l.79.62c.1.08.25-.06.15-.14L12 5.35a1.73 1.73 0 0 1-.56-.58v.14l.3-.22.14-.1.08-.06.06.06.09.11a1.58 1.58 0 0 1 .15.24A4.26 4.26 0 0 1 12.67 6a.1.1 0 0 0 .19 0z"/><path fill="#009444" d="M11.45 5a1.07 1.07 0 0 0-.91.92A.69.69 0 0 1 11 6a1.5 1.5 0 0 1 .45.24h.09a.25.25 0 0 0 .12 0l.69-.24a.13.13 0 0 1 .12 0"/><path fill="#231f20" d="M11.42 4.93a1.18 1.18 0 0 0-1 1 .1.1 0 0 0 .12.1.69.69 0 0 1 .51 0c.15.06.28.18.43.24s.32-.05.46-.1l.24-.09a.65.65 0 0 1 .27-.08c.13 0 .13-.19 0-.2a.54.54 0 0 0-.25.06L12 6l-.27.11h-.14l-.1-.07a1.13 1.13 0 0 0-1-.21l.13.1a1 1 0 0 1 .83-.82c.13 0 .08-.22-.05-.2z"/><path fill="#009444" d="M14.2 8.87a.59.59 0 0 0 0 .59c.08.2.21.37.29.56a2.16 2.16 0 0 1 .15.45l.12.51a1.92 1.92 0 0 0 .76-.88.83.83 0 0 0 .15-.44.85.85 0 0 0-.35-.55"/><path fill="#231f20" d="M14.11 8.82a.89.89 0 0 0 .11 1 2.41 2.41 0 0 1 .25.57c0 .21.1.43.16.64a.09.09 0 0 0 .14.06 2 2 0 0 0 .79-.9.89.89 0 0 0 .15-.61 1.07 1.07 0 0 0-.35-.58c-.1-.09-.24.06-.15.14a.85.85 0 0 1 .31.44.81.81 0 0 1-.18.53 1.77 1.77 0 0 1-.67.74l.15.06a4.25 4.25 0 0 0-.34-1.1c-.14-.27-.42-.63-.19-.93.07-.1-.1-.2-.18-.1z"/><path fill="#009444" d="M15.31 9.05a1.08 1.08 0 0 0 .4 0 1.71 1.71 0 0 0 .22-1.39.31.31 0 0 0-.15-.24.58.58 0 0 0-.14 0l-.88-.06h-.1a.07.07 0 0 0 0 .09"/><path fill="#231f20" d="M15.29 9.14a.94.94 0 0 0 .41 0c.12 0 .17-.15.22-.26a2 2 0 0 0 .17-.72 1.4 1.4 0 0 0-.12-.7.36.36 0 0 0-.29-.17h-.93c-.13 0-.25.08-.22.22s.22.07.19 0h1.05a.51.51 0 0 1 .09.26A1.61 1.61 0 0 1 15.63 9h.06a.83.83 0 0 1-.35 0 .1.1 0 1 0-.05.19z"/><path fill="#009444" d="M13.67 8.12a4.49 4.49 0 0 1 1.19 2L15.34 9a1.91 1.91 0 0 0 .13-.36 2.11 2.11 0 0 0 0-.71 3.58 3.58 0 0 0-.94-.31h-.18c-.03 0-.24.28-.41.29h-.12a.08.08 0 0 0-.06.09"/><path fill="#231f20" d="M13.6 8.19a4.52 4.52 0 0 1 1.16 1.92c0 .08.15.11.19 0 .17-.41.36-.82.53-1.24a1.63 1.63 0 0 0 .13-.58v-.34c0-.12 0-.15-.1-.2a4.13 4.13 0 0 0-.51-.18 1 1 0 0 0-.55-.08c-.16.07-.23.27-.39.32s-.17 0-.24.05a.18.18 0 0 0-.09.16c0 .13.21.13.2 0h.18a.37.37 0 0 0 .15-.08c.1-.07.2-.24.33-.24a2.36 2.36 0 0 1 .44.11 3.66 3.66 0 0 1 .46.18v-.08a3.47 3.47 0 0 1 0 .56 1.78 1.78 0 0 1-.18.55l-.45 1h.19a4.69 4.69 0 0 0-1.22-2c-.09-.09-.24 0-.14.14zM6.25 6.64a.94.94 0 0 0-.5-.64 1.41 1.41 0 0 0-1-.11 1.55 1.55 0 0 0-.9.4.68.68 0 0 0-.19.4c0 .16.09.31.08.47a.1.1 0 0 0 .26.08 1.23 1.23 0 0 1 1-.35 1.1 1.1 0 0 0 .54 0 2.13 2.13 0 0 1 .62-.12.1.1 0 0 0 0-.2 1.72 1.72 0 0 0-.63.12 1.74 1.74 0 0 1-.64 0 1.47 1.47 0 0 0-1 .42l.11.06a1.09 1.09 0 0 0-.07-.35.41.41 0 0 1 .07-.38 1.33 1.33 0 0 1 .77-.34c.48-.09 1.13 0 1.25.59 0 .12.22.07.19-.05z"/><path fill="#fff" d="M3.9 6.51a.61.61 0 0 0 .15.24.44.44 0 0 0 .08-.25.17.17 0 0 0 .16 0 .64.64 0 0 1 .13-.1h.21a.26.26 0 0 1 .12 0h.09c.12.05.26-.14.36-.06a.27.27 0 0 1 0 .15s0 .11.09.11.09-.08.1-.14 0-.15.11-.13.08 0 .1 0 0-.08 0-.11a.53.53 0 0 0-.12 0H5l-.18.07a.65.65 0 0 1-.31 0l.44-.1a.61.61 0 0 1 .48 0c-.2 0-.41.08-.62.08h-.19a.73.73 0 0 0-.7.38"/><path fill="#231f20" d="M4.08 5a.34.34 0 0 0-.19.34c.07 0 .1-.11.17-.11h.08a.64.64 0 0 0 .29.16h.06c.06 0 0-.11.07-.18a.14.14 0 0 1 .2-.07l.07.06c.07 0 .15 0 .2-.09a.22.22 0 0 0 0-.11A.12.12 0 0 0 5 5a.68.68 0 0 0-.44-.14 2.42 2.42 0 0 0-.47.06m-.04-.7a.23.23 0 0 0-.32-.1l-.09.07h-.1l-.21.24a.27.27 0 0 1-.15.11l.07.07-.15.12a.08.08 0 0 1 0 .09.41.41 0 0 1-.05.09h.11A.33.33 0 0 0 3.3 5c.1 0 .17-.12.27-.13h.07a.33.33 0 0 0 .24-.12A1 1 0 0 0 4 4.49v.11a.55.55 0 0 0 .05-.38zm-.13.35l-.08.07a.29.29 0 0 1-.13.08s-.12 0-.12-.07a.11.11 0 0 1 .07-.11.52.52 0 0 0 .13-.06s0-.05.08-.05.06.08.05.14zm2.44-.35s-.09 0-.08-.09 0-.07 0-.1a.29.29 0 0 1-.07-.08v-.07a.08.08 0 0 0-.07 0 .9.9 0 0 0-.28 0 .33.33 0 0 1-.14 0h-.05a.19.19 0 0 0-.23 0 1 1 0 0 1-.22.12H5l-.11.17a.51.51 0 0 0-.07.15.16.16 0 0 0 0 .15.11.11 0 0 0 .15 0 .57.57 0 0 0 .3.15.43.43 0 0 0 .16 0 1.47 1.47 0 0 0 .3-.08H6c.15 0 .27-.11.36-.24s.01-.06 0-.08zm-.67 0a.14.14 0 0 1-.07.18.37.37 0 0 1-.21 0h-.07a.1.1 0 0 1 0-.14.2.2 0 0 1 .12-.1c.12 0 .28-.07.36 0z"/></symbol><symbol id="logo-32" viewBox="0 0 64 64"><path fill="#231f20" d="M.82.82h62.36v62.36H.82z"/><path fill="#8b5e3c" d="M49.88 26.43a3.89 3.89 0 0 0-3.13 4.34 8.77 8.77 0 0 0 .56 1.71 8 8 0 0 1 .76 3.28c-.06 1.81-1.14 3.42-1.63 5.16a11.57 11.57 0 0 1-.44 1.65 7.1 7.1 0 0 1-.87 1.31l-1.45 1.86a23.59 23.59 0 0 0-.24-8 6.74 6.74 0 0 0-1.3-3.11c-.87-1-2.21-1.54-3-2.6A7 7 0 0 1 38 29.52a12.67 12.67 0 0 1-.54-2.63V25.6c-.18-2.48-1.86-4.59-2.53-7-.24-.84-.42-1.82-1.18-2.26l-22 22.32a32.48 32.48 0 0 0-3.09 5.4 1 1 0 0 0-.13.8c.14.38.63.47.93.75.56.52.3 1.55.84 2.09.87.88 2.89-.27 3.38.86a2.32 2.32 0 0 1 0 1.17c-.19 1.47.78 2.81 1.69 4a4.18 4.18 0 0 0 1.48 1.36 4.15 4.15 0 0 0 1.72.22l6.43-.1a11.42 11.42 0 0 0 4-.55c1.88-.76 3.2-2.46 5-3.47a.78.78 0 0 1 .46-.14.77.77 0 0 1 .47.38c.81 1.16 1.34 2.49 2.16 3.64a4.45 4.45 0 0 0 3.49 2.09c1.07 0 2.37-.57 3.07.24a5.17 5.17 0 0 0 .39.53c.63.58 1.62-.1 2.08-.81 1.14-1.75 1.52-3.87 2.37-5.78 1-2.15 2.52-4 3.39-6.2a21 21 0 0 0 1-3.81c.21-1 .41-2.06.61-3.09a2.27 2.27 0 0 0-.29-2.12c-.22-.2-.51-.31-.67-.56a1.62 1.62 0 0 1-.16-.93 4.17 4.17 0 0 0-3.08-3.84 5 5 0 0 0 1-4.32"/><path fill="#231f20" d="M49.81 26.19a4.17 4.17 0 0 0-3.05 2.53c-.63 1.52-.07 2.77.47 4.22a6.77 6.77 0 0 1 .51 3.58 14 14 0 0 1-1 2.75c-.37.93-.56 1.9-.9 2.83a13.7 13.7 0 0 1-2.41 3.46l.43.18a22.14 22.14 0 0 0-.52-9.13A5.47 5.47 0 0 0 41.76 34c-1.13-1-2.41-1.58-3-3-1.15-2.67-.73-5.59-1.85-8.24a39.87 39.87 0 0 1-1.76-4.16 4 4 0 0 0-1.29-2.42.27.27 0 0 0-.31 0L12.11 37.92A8.14 8.14 0 0 0 11 39.28a31.94 31.94 0 0 0-2.21 3.85c-.34.7-.9 1.52-.25 2.19.48.5.68.17 1 1.11.08.23.07.49.15.72a1.71 1.71 0 0 0 .48.82c.72.59 1.54.12 2.33.32 1.13.28.77 1.53.88 2.3a4.84 4.84 0 0 0 .62 1.56 8.3 8.3 0 0 0 2.38 2.94c1.06.67 2.49.44 3.68.42 1.8 0 3.61 0 5.41-.08a10.41 10.41 0 0 0 3.71-.58 12.83 12.83 0 0 0 3.16-2.16c.39-.32 1.22-1.22 1.8-1.3.78-.12 1.37 1.44 1.66 2a9.88 9.88 0 0 0 2.23 3 4 4 0 0 0 3.05.94c1.1-.11 1.53-.34 2.55.43.29.22.36.47.74.56 2.27.55 3.29-4 3.77-5.39 1.12-3.19 3.48-5.75 4.41-9 .49-1.7.77-3.48 1.11-5.21a3.26 3.26 0 0 0-.28-2.8c-.06-.1-.21-.13-.28-.22-.56-.69-.41-.81-.51-1.51a4.32 4.32 0 0 0-.6-1.71 4.52 4.52 0 0 0-2.63-2l.11.42a5.39 5.39 0 0 0 1.08-4.56c-.07-.32-.55-.18-.49.13a4.84 4.84 0 0 1-.94 4.08.25.25 0 0 0 .11.41c2 .59 2.63 2.07 2.9 3.93a2 2 0 0 0 .43 1c.48.75.52-.93.81 1.31a4.41 4.41 0 0 1-.19 1.35c-.3 1.6-.59 3.22-1 4.79a18.06 18.06 0 0 1-2.27 4.9 23.52 23.52 0 0 0-2 3.75c-.63 1.62-1 3.51-2 4.94s-2.44-.33-3.66-.27c-.56 0-1.11.19-1.67.19a4.24 4.24 0 0 1-3.27-2c-.83-1.13-1.24-2.68-2.2-3.69-.67-.7-1.14-.37-1.88.13-1.15.79-2.12 1.82-3.31 2.55C28.08 55 26 54.93 24 55c-1.81 0-3.63.11-5.44.08a3.49 3.49 0 0 1-3-1.5A7.24 7.24 0 0 1 14 50.84c-.2-.84.43-2.24-.48-2.84s-2.86.58-3.32-1.12a4.26 4.26 0 0 0-.34-1.17c-.55-.85-1.23-.27-.79-1.92a9.73 9.73 0 0 1 1-2 25.9 25.9 0 0 1 1.64-2.65A12.19 12.19 0 0 1 12.76 38l5.68-5.76L32.45 18c.18-.19 1.11-1.42 1.39-1.42s1.34 3.71 1.54 4.14A15.29 15.29 0 0 1 37.16 26a15.14 15.14 0 0 0 1.07 5.09 7 7 0 0 0 2.66 2.81c1.87 1.41 2.29 3.5 2.56 5.71a24 24 0 0 1-.06 6.1.26.26 0 0 0 .43.18 13.21 13.21 0 0 0 2.76-4.52c.48-1.73 1.49-3.36 1.7-5.16s-.53-3.11-1.05-4.67a3.67 3.67 0 0 1 2.71-4.9c.32-.06.18-.55-.13-.48zM15.2 23.92a1.31 1.31 0 0 0-.82.95c-.08.3-.09.6-.15.9a4.61 4.61 0 0 1-.27.79 4.82 4.82 0 0 0-.44 1.52 3.19 3.19 0 0 0 .3 1.55c.14.29.57 0 .44-.26a2.59 2.59 0 0 1-.26-1.29 4.24 4.24 0 0 1 .39-1.3 4.79 4.79 0 0 0 .36-1.28c.05-.39.12-.94.56-1.1s.17-.59-.13-.48z"/><path fill="#231f20" d="M23.09 22.41l1.28.35a4.66 4.66 0 0 1 1.22.43 3.91 3.91 0 0 1 .82.9l.86 1.06c.2.25.55-.1.35-.35l-.88-1.1a4.41 4.41 0 0 0-.89-.94 4.55 4.55 0 0 0-1.23-.45l-1.4-.38a.25.25 0 0 0-.13.48z"/><path fill="#8b5e3c" d="M15.26 6.63a11.57 11.57 0 0 1 4.3-.92 11.84 11.84 0 0 1 2.28.4l3.16.77a9.13 9.13 0 0 1 2.61.93 2 2 0 0 1 .69.63 3 3 0 0 1 .32 1 6.69 6.69 0 0 0 2.06 3.5c.41.37.87.68 1.27 1.06a10 10 0 0 1 2.66 5.58 27.72 27.72 0 0 1 .53 6.62 3.23 3.23 0 0 1-.14 1 4.34 4.34 0 0 1-.45.85 11.41 11.41 0 0 0-1.36 3.36l-.27-.43-.48 2.71a6.9 6.9 0 0 0-.29-2.89 4.29 4.29 0 0 0-.61 1.54 6.68 6.68 0 0 1 .12-2.44 32.11 32.11 0 0 0-2.34 4.92 4.06 4.06 0 0 0-.32 2.49 3 3 0 0 1 .2.71 1.88 1.88 0 0 1-.16.7l-1.38 3.65c-.29.25-.68-.35-1.06-.26a.59.59 0 0 0-.3.24A11.62 11.62 0 0 0 25.14 44c-.48-.28-1 .37-1.49.56a1 1 0 0 1-1.21-1l-1.09.94c.09-.18-.1-.4-.3-.42a.91.91 0 0 0-.56.2L18.6 45.5c-.24-.38 0-.86 0-1.31s-.55-.94-.83-.6v-1.06a.53.53 0 0 0-.16-.46c-.16-.09-.36 0-.51.12a13.87 13.87 0 0 0-1.53 1.22l-.18-.48a4.36 4.36 0 0 0-1 .85l-.27-.88-.67.44a9.9 9.9 0 0 1-1.19-6.26"/><path fill="#231f20" d="M15.33 6.88a10.24 10.24 0 0 1 5.54-.74c1.6.31 3.22.74 4.79 1.18a4.76 4.76 0 0 1 2.23 1c.48.54.53 1.56.8 2.22a7.36 7.36 0 0 0 2.25 2.9c2.74 2.24 3.47 5.51 3.8 8.89.16 1.63.46 3.72-.28 5.23a18.55 18.55 0 0 0-1.55 3.7l.45-.06-.27-.43a.25.25 0 0 0-.45.06l-.49 2.7.5.07a8 8 0 0 0-.3-3 .25.25 0 0 0-.45-.06 5.48 5.48 0 0 0-.64 1.61l.49.06a7.86 7.86 0 0 1 .11-2.37c.06-.27-.31-.45-.45-.2a31.19 31.19 0 0 0-2.37 5 4.81 4.81 0 0 0-.41 2.36c.09.74.32.8.12 1.7a13.34 13.34 0 0 1-.61 1.59c-.12.33-.33 1.41-.6 1.59s-.39 0-.7 0-.41 0-.78.31-.67 1.19-1.16 1.51-2.15 1-2.21-.12a.25.25 0 0 0-.42-.18l-1.09.94.42.18c.07-1.7-2.77.53-3.13.75l.37.15c-.18-.51.11-2.82-1.24-2l.38.21c0-.49.21-1.52-.39-1.76s-1.82 1-2.24 1.4l.42.11-.19-.47a.25.25 0 0 0-.37-.15 6.58 6.58 0 0 0-1 .88l.42.11-.27-.88a.24.24 0 0 0-.36-.14l-.68.43.35.09a10.06 10.06 0 0 1-1.16-6.13c0-.32-.46-.32-.5 0a10.56 10.56 0 0 0 1.22 6.38.25.25 0 0 0 .35.09l.67-.43-.39-.16.27.87a.25.25 0 0 0 .42.11 3.93 3.93 0 0 1 .92-.8L15.1 43l.18.48a.26.26 0 0 0 .42.11c.26-.23 1.21-1.26 1.47-1.19.5.15.31.75.31 1.19a.26.26 0 0 0 .38.22c.24-.14.37 1.12.38 1.22a1.14 1.14 0 0 0 .12.53.25.25 0 0 0 .37.15l1.13-.71c.12-.07 1.25-.76 1.24-.47a.26.26 0 0 0 .43.18l1.09-1-.43-.17A1.27 1.27 0 0 0 23 44.8c.82.3 1.36-.74 2.08-.52a.26.26 0 0 0 .28-.12c.36-.63.82-1.7 1.64-1.64.29 0 .37.24.69.09s.32-.58.43-.86c.32-.84.64-1.67.95-2.5a3.29 3.29 0 0 0 .33-1.3 10.79 10.79 0 0 1-.28-1.48 5.67 5.67 0 0 1 .41-1.62A30.08 30.08 0 0 1 31.84 30l-.46-.2a8.14 8.14 0 0 0-.13 2.51c0 .26.43.37.49.07a4.88 4.88 0 0 1 .59-1.48l-.46-.06a7.67 7.67 0 0 1 .28 2.82c0 .28.44.34.49.07l.48-2.73-.46.06.27.43a.26.26 0 0 0 .46-.06 11.68 11.68 0 0 1 1.13-3 5.43 5.43 0 0 0 .76-1.57 17.1 17.1 0 0 0-.15-5.48c-.42-3.23-1.24-6.17-3.84-8.29A7.23 7.23 0 0 1 29.46 11a16.86 16.86 0 0 1-.81-2.36c-.43-1.13-1.79-1.54-2.85-1.84a37.56 37.56 0 0 0-5.71-1.3 11 11 0 0 0-4.89.89c-.3.11-.18.59.13.49z"/><path fill="#8b5e3c" d="M15.44 6.68c-2.2 2.26-3.45 5.24-4.65 8.15a3.76 3.76 0 0 0-.42 2.06 3.66 3.66 0 0 1 .19 1.11 2.08 2.08 0 0 1-.26.68 7.73 7.73 0 0 0-.77 4.53 14.84 14.84 0 0 0 .74 2.79 6.51 6.51 0 0 0 1.1 2.24 7.45 7.45 0 0 1 .71.79 2.94 2.94 0 0 1 .35.95 11.85 11.85 0 0 1 .09 5c-.24 1.22-.66 2.55-.07 3.65a6.09 6.09 0 0 1 1.2-2.63 4.2 4.2 0 0 0 .2 2 15.56 15.56 0 0 0 1.78-2.86 12.82 12.82 0 0 0 .92 2.49l.87-1.89.9.91a.55.55 0 0 0 .32.2.52.52 0 0 0 .36-.18l1.12-1a15.82 15.82 0 0 0 2.55 4 19.54 19.54 0 0 0 1.08-7.58 17 17 0 0 0 1.92 2.7l.66-.44a1.85 1.85 0 0 0 .79 1.05 6.46 6.46 0 0 0 .57-2.16 1.93 1.93 0 0 0 1.68.77 13.7 13.7 0 0 0-1.32-3.88l2 .17a5.88 5.88 0 0 1-1.13-2l.82-.58A7.26 7.26 0 0 0 28 25.27"/><path fill="#231f20" d="M15.26 6.5A23.41 23.41 0 0 0 11 13.63a14 14 0 0 0-.82 2.15 5.22 5.22 0 0 0 0 1.53c0 1.57-1 3-1 4.6a12 12 0 0 0 .82 4.18 10.23 10.23 0 0 0 .65 1.61c.42.74 1.13 1.22 1.43 2a10.52 10.52 0 0 1 .13 5.43 5.78 5.78 0 0 0 0 3.63c.08.2.41.14.45-.06a6.65 6.65 0 0 1 1.17-2.58L13.4 36a5.28 5.28 0 0 0 .21 2.09.26.26 0 0 0 .46.06 18.72 18.72 0 0 0 1.78-2.86l-.46-.06a14.48 14.48 0 0 0 .95 2.55.25.25 0 0 0 .43 0l.87-1.9-.39.05c.33.34.83 1.17 1.39 1.19s1.28-.9 1.66-1.23l-.39-.05A17.17 17.17 0 0 0 22.49 40a.26.26 0 0 0 .42-.11A20.7 20.7 0 0 0 24 32.21l-.46.12a19 19 0 0 0 1.95 2.75.24.24 0 0 0 .3 0l.67-.44-.37-.14a2.38 2.38 0 0 0 .85 1.16.26.26 0 0 0 .42-.11 8.24 8.24 0 0 0 .58-2.23l-.42.18a2.34 2.34 0 0 0 1.85.84.25.25 0 0 0 .24-.31 15.67 15.67 0 0 0-1.34-3.94l-.22.37 2 .17c.24 0 .3-.28.18-.43a5 5 0 0 1-.78-1.2c-.2-.57 0-.65.45-1a.26.26 0 0 0 .09-.34 8.47 8.47 0 0 0-1.85-2.59c-.23-.22-.59.14-.35.36a8 8 0 0 1 1.77 2.48l.09-.34-.82.59a.25.25 0 0 0-.12.28 7.2 7.2 0 0 0 1.19 2.13l.18-.42-2-.17a.26.26 0 0 0-.21.38 15.64 15.64 0 0 1 1.29 3.82l.24-.32a2 2 0 0 1-1.5-.69c-.16-.19-.4 0-.43.17a7.36 7.36 0 0 1-.57 2.1l.42-.11a1.78 1.78 0 0 1-.72-1 .25.25 0 0 0-.36-.15c-.93.61-1.82-1.45-2.24-2.17a.25.25 0 0 0-.47.13 20 20 0 0 1-1.08 7.52l.42-.11a17 17 0 0 1-2.5-4 .25.25 0 0 0-.39-.06c-.31.27-1 1-1.46 1-.24-.05-.73-.76-.89-.92a.25.25 0 0 0-.39 0l-.87 1.89h.43a14.09 14.09 0 0 1-.9-2.42.25.25 0 0 0-.45-.06 18 18 0 0 1-1.79 2.86l.46.06a5 5 0 0 1-.19-2c0-.27-.34-.3-.47-.12a6.89 6.89 0 0 0-1.22 2.7l.46-.06c-.67-1.55.17-3.3.29-4.89a11.33 11.33 0 0 0-.33-3.89c-.33-1.19-1.38-1.88-1.84-3a13.27 13.27 0 0 1-1.08-4.41A7.7 7.7 0 0 1 10 20.1c.19-.65.6-1.24.75-1.89a3.87 3.87 0 0 0-.11-1.39 4.79 4.79 0 0 1 .55-2.3 24.22 24.22 0 0 1 4.42-7.66c.23-.24-.13-.59-.35-.36z"/><path fill="#8b5e3c" d="M50.68 25.6c0-.33.5-.46.79-.31a1.57 1.57 0 0 1 .59.79 7.23 7.23 0 0 1 .85-1.2c.07-.08.15-.16.25-.15s.17.14.2.24l.43 1.12c.15-.3.64-.18.87.07s.38.61.7.74a.86.86 0 0 1 .9 0 1.43 1.43 0 0 1 .57 1.39 4.21 4.21 0 0 1-.55 1.48l-.4.76c-.12.22-.31.47-.55.41a.47.47 0 0 1-.24-.2 2.42 2.42 0 0 1-.46-1.05 5.82 5.82 0 0 0-.94 1.45 1.28 1.28 0 0 1-.69-.94 3.73 3.73 0 0 1 0-1.2l-.65 1.22c-.13.24-.32.52-.59.48s-.4-.55-.34-.91l.22-1.26-.29.22a1.76 1.76 0 0 1-.27-1.41 2.73 2.73 0 0 0 .14-.69 1.47 1.47 0 0 0-.57-.87"/><path fill="#231f20" d="M50.92 25.67c0-.24.34-.22.5-.11a1.58 1.58 0 0 1 .43.64.24.24 0 0 0 .43 0q.16-.28.36-.57a2.15 2.15 0 0 1 .45-.58c.08-.05 0-.08.07.1s.09.22.13.33l.26.68a.25.25 0 0 0 .45.06c.17-.27.57.22.66.34a1.4 1.4 0 0 0 .58.55c.12.05.18 0 .31 0a.63.63 0 0 1 .55 0 1.07 1.07 0 0 1 .48.79 3.63 3.63 0 0 1-.69 2.1c-.09.17-.17.35-.27.51s-.15.26-.3.15a1.8 1.8 0 0 1-.45-1 .25.25 0 0 0-.42-.11 6.42 6.42 0 0 0-1 1.5l.34-.09c-.74-.34-.63-1.26-.54-1.92 0-.26-.36-.34-.47-.13s-.78 1.74-1.05 1.55-.07-.53 0-.69c.06-.38.13-.75.19-1.13 0-.19-.17-.43-.36-.28l-.29.22.34.09a1.65 1.65 0 0 1-.29-.8 4.32 4.32 0 0 1 .17-.94 1.48 1.48 0 0 0-.63-1.29c-.23-.22-.59.13-.35.35s.47.41.5.7a5.12 5.12 0 0 1-.17.85 2 2 0 0 0 .34 1.38.26.26 0 0 0 .34.09l.29-.22-.37-.28a11.38 11.38 0 0 0-.25 1.55.91.91 0 0 0 .38.87.71.71 0 0 0 .88-.3 11.66 11.66 0 0 0 .81-1.47l-.48-.16c-.11.85-.12 1.93.79 2.35a.26.26 0 0 0 .34-.09 6.63 6.63 0 0 1 .89-1.4l-.41-.11c.09.49.47 1.61 1.16 1.43.32-.09.49-.42.63-.69s.43-.79.62-1.21a2.33 2.33 0 0 0 .08-2.06 1.21 1.21 0 0 0-1.64-.57h.25c-.42-.19-.54-.71-1-.91a.72.72 0 0 0-1 .2L54 26c-.14-.38-.28-.76-.43-1.13-.08-.22-.24-.45-.51-.41s-.45.32-.61.52a8.56 8.56 0 0 0-.63.94h.43c-.19-.41-.45-.88-1-1a.77.77 0 0 0-.89.54c-.06.32.42.45.48.14z"/><path fill="#009444" d="M49.76 25.47c-.5-2.12-1.08-4.38-2.66-5.88a.42.42 0 0 0-.26-.14.5.5 0 0 0-.26.11l-2 1.48a5.91 5.91 0 0 0 1.89 2.06l3.1 2.45"/><path fill="#231f20" d="M50 25.41a15.55 15.55 0 0 0-1.65-4.65 6.93 6.93 0 0 0-.68-.93c-.2-.23-.49-.63-.83-.63a.79.79 0 0 0-.48.22l-.67.49-1.25.91a.27.27 0 0 0-.09.35 6.69 6.69 0 0 0 2.08 2.22l3 2.34c.25.2.61-.15.36-.35l-2.87-2.27a6.76 6.76 0 0 1-2.09-2.2l-.09.35 1.11-.81.52-.39c.11-.08.36-.34.5-.34s.29.24.37.32a5.58 5.58 0 0 1 .39.46 8.07 8.07 0 0 1 .55.88 16.43 16.43 0 0 1 1.39 4.16c.07.31.55.18.48-.13z"/><path fill="#009444" d="M44.83 21.81a4 4 0 0 0-3.39 3.43 2.83 2.83 0 0 1 1.86 0 7.25 7.25 0 0 1 1.67.89.94.94 0 0 0 .32.15.84.84 0 0 0 .44-.08l2.46-.93a.77.77 0 0 1 .47-.08"/><path fill="#231f20" d="M44.77 21.57a4.3 4.3 0 0 0-3.58 3.67.26.26 0 0 0 .32.25 2.66 2.66 0 0 1 2 .11 6.65 6.65 0 0 1 .84.43 6.17 6.17 0 0 0 .77.48c.5.2 1.16-.21 1.63-.38l.9-.35a2.54 2.54 0 0 1 1-.31c.32 0 .31-.46 0-.5a2.12 2.12 0 0 0-.92.23l-.91.35-1 .39c-.22.08-.37.17-.6.07s-.25-.17-.37-.24a4 4 0 0 0-3.47-.77l.31.24a3.81 3.81 0 0 1 3.21-3.19c.32-.05.18-.53-.13-.48z"/><path fill="#009444" d="M55.09 36.12a2.23 2.23 0 0 0-.09 2.21c.29.72.77 1.34 1.09 2.05a11 11 0 0 1 .53 1.69L57 44a7.2 7.2 0 0 0 2.82-3.26 3.28 3.28 0 0 0 .59-1.74 3.23 3.23 0 0 0-1.28-2"/><path fill="#231f20" d="M54.88 36c-.82 1.1-.21 2.47.39 3.5a8.84 8.84 0 0 1 .93 2.14c.21.8.4 1.6.6 2.4a.26.26 0 0 0 .37.15 7.55 7.55 0 0 0 2.88-3.31 3.13 3.13 0 0 0 .56-2.19 3.85 3.85 0 0 0-1.3-1.83c-.24-.22-.59.13-.36.35a3.3 3.3 0 0 1 1.19 1.67 3.21 3.21 0 0 1-.7 2.06 6.39 6.39 0 0 1-2.53 2.81l.37.15A17.2 17.2 0 0 0 56 39.83c-.57-1-1.61-2.41-.73-3.58.19-.26-.24-.51-.43-.26z"/><path fill="#009444" d="M59.24 36.77a3.41 3.41 0 0 0 1.49 0 6.46 6.46 0 0 0 .81-5.19 1.26 1.26 0 0 0-.57-.87 1.3 1.3 0 0 0-.52-.1l-3.27-.23a.87.87 0 0 0-.36 0c-.11.06-.2.19-.15.3"/><path fill="#231f20" d="M59.17 37a4 4 0 0 0 1.46.07c.24 0 .3-.11.43-.32s.22-.39.32-.6a6.81 6.81 0 0 0 .62-2.61 4.9 4.9 0 0 0-.44-2.54 1.17 1.17 0 0 0-1-.58c-.53-.06-1.07-.07-1.6-.11s-1.25-.11-1.88-.13c-.4 0-.8.21-.7.66s.55.18.49-.13c0 0 1.22 0 1.33.05l1.39.09c.39 0 1.06-.05 1.37.24a2.06 2.06 0 0 1 .39 1 6.27 6.27 0 0 1-.88 4.58l.15-.11a3.28 3.28 0 0 1-1.36 0c-.32-.07-.45.41-.14.49z"/><path fill="#009444" d="M53.11 33.31a17 17 0 0 1 4.44 7.34l1.8-4.19a7.85 7.85 0 0 0 .49-1.33 8.53 8.53 0 0 0 0-2.67 13.43 13.43 0 0 0-3.5-1.15.65.65 0 0 0-.31 0 .68.68 0 0 0-.35.21c-.46.43-.88 1-1.51 1.07a1.71 1.71 0 0 0-.45 0c-.14 0-.27.19-.22.33"/><path fill="#231f20" d="M52.93 33.48a16.9 16.9 0 0 1 4.38 7.24c.06.18.37.27.46.06.65-1.53 1.33-3 2-4.58a5.81 5.81 0 0 0 .49-2.13v-1.26c0-.42 0-.48-.31-.64a11.5 11.5 0 0 0-2-.77c-.35-.1-.7-.19-1.06-.27a1.54 1.54 0 0 0-.9 0c-.59.25-.85 1-1.48 1.19-.43.14-1.15 0-1.11.66 0 .32.51.33.5 0 0-.1.65-.15.74-.18a1.75 1.75 0 0 0 .52-.28c.42-.32.76-1 1.35-.92A7.22 7.22 0 0 1 58 32a13.55 13.55 0 0 1 1.73.69l-.13-.21a9.93 9.93 0 0 1 0 2.11 7.5 7.5 0 0 1-.69 2.1l-1.65 3.86h.45a17.46 17.46 0 0 0-4.51-7.45c-.23-.23-.58.13-.35.35zm-27.56-5.65a3.4 3.4 0 0 0-1.81-2.27 5.39 5.39 0 0 0-3.45-.39 5.81 5.81 0 0 0-3.31 1.45 2.43 2.43 0 0 0-.65 1.38c0 .62.35 1.16.29 1.77a.25.25 0 0 0 .43.17 4.7 4.7 0 0 1 3.73-1.35 4.47 4.47 0 0 0 2 .09 7.39 7.39 0 0 1 2.32-.48.25.25 0 0 0 0-.5 6.49 6.49 0 0 0-2.3.45c-.81.29-1.58-.08-2.41-.08a5.19 5.19 0 0 0-3.68 1.52l.42.18a4.34 4.34 0 0 0-.25-1.29 1.73 1.73 0 0 1 .45-1.48 5.28 5.28 0 0 1 2.94-1.29c1.85-.37 4.34.1 4.8 2.27.06.31.54.18.48-.13z"/><path fill="#fff" d="M16.49 27.37a3.06 3.06 0 0 0 .62 1 .26.26 0 0 0 .39-.05 2 2 0 0 0 .34-1.08l-.32.25c.44.12.72-.16 1-.43a1.19 1.19 0 0 1 .73-.22c.21 0 .46-.23.66-.18s.29.16.5.16a1.34 1.34 0 0 0 .48-.15c.1 0 .35-.21.47-.16s.13.44.19.59a.55.55 0 0 0 .79.35.72.72 0 0 0 .28-.4c.05-.15 0-.5.24-.49s.26.15.45.06a.46.46 0 0 0 .23-.39c0-.42-.4-.6-.75-.63a8.35 8.35 0 0 0-1.87 0 4.38 4.38 0 0 0-.82.27 2.32 2.32 0 0 1-1.08 0v.48l1.79-.35a1.75 1.75 0 0 1 1.45.15l.19-.45a3.28 3.28 0 0 0-1.64.15 2.73 2.73 0 0 1-.94.08 5.34 5.34 0 0 0-.89-.07 3 3 0 0 0-2.43 1.53c-.16.28.28.54.43.25a2.47 2.47 0 0 1 2.29-1.28c.27 0 .53.08.8.09a2.81 2.81 0 0 0 .71-.08 3.4 3.4 0 0 1 1.54-.19.25.25 0 0 0 .19-.46 2 2 0 0 0-1.51-.27c-.69.11-1.38.29-2.07.44a.25.25 0 0 0 0 .48 4.4 4.4 0 0 0 .88.1 2.69 2.69 0 0 0 .84-.23 4.74 4.74 0 0 1 1.84-.11h.47c.4 0 .12-.05 0-.08a.47.47 0 0 0-.44.11.88.88 0 0 0-.27.53c0 .05 0 .31-.1.32s-.15-.15-.15-.21c-.08-.37-.21-.76-.67-.75s-.71.4-1.05.27-.36-.22-.63-.12c-.08 0-.15.09-.22.12a1.45 1.45 0 0 1-.46.09 1.09 1.09 0 0 0-.63.22c-.19.14-.41.49-.68.41a.25.25 0 0 0-.31.24 1.49 1.49 0 0 1-.27.82l.39-.05a2.48 2.48 0 0 1-.49-.81c-.1-.3-.59-.17-.48.13z"/><path fill="#231f20" d="M17.39 21.57a1.21 1.21 0 0 0-.68 1.26c.26 0 .36-.43.63-.43a.51.51 0 0 1 .29.19 2.13 2.13 0 0 0 1.06.6.41.41 0 0 0 .22 0c.24-.08.18-.43.26-.67a.54.54 0 0 1 .76-.26c.09.06.16.16.26.2.26.12.55-.11.74-.33a.48.48 0 0 0 .18-.39.45.45 0 0 0-.19-.24 2.74 2.74 0 0 0-1.67-.5 8 8 0 0 0-1.75.23m-.2-2.42a.88.88 0 0 0-1.21-.4 2.22 2.22 0 0 1-.33.28c-.13.07-.33 0-.37-.09l-.78.92a.84.84 0 0 1-.55.38l.25.27-.57.44a.1.1 0 0 0-.05.1s.06.05.09.07a.28.28 0 0 1 .13.33.93.93 0 0 1-.21.32.37.37 0 0 1 .41.05 1 1 0 0 0 .37.22c.39.09.64-.44 1-.5h.26a1.23 1.23 0 0 0 .88-.48 3.77 3.77 0 0 0 .48-.91l.19.41a2 2 0 0 0 .01-1.41zm-.49 1.27l-.29.27a1 1 0 0 1-.5.32.38.38 0 0 1-.46-.27c0-.18.14-.32.29-.4a2.28 2.28 0 0 0 .47-.23c.09-.08.17-.19.29-.2s.24.31.2.51zm9.09-1.27c0-.17-.35-.19-.31-.36s.07-.08.1-.13 0-.26-.08-.36a1.32 1.32 0 0 1-.28-.3c0-.1 0-.22-.12-.29a.31.31 0 0 0-.23-.06 4.3 4.3 0 0 0-1.07.14.67.67 0 0 1-.5 0c-.07 0-.13-.1-.21-.14a.76.76 0 0 0-.84.19 2.66 2.66 0 0 1-.71.59.23.23 0 0 1-.18 0c-.14-.05-.15-.25-.27-.32s-.3.09-.39.23l-.39.65a1.64 1.64 0 0 0-.26.55.62.62 0 0 0 .15.57.38.38 0 0 0 .54 0l.07-.06a2.41 2.41 0 0 0 1.13.56 2.51 2.51 0 0 0 .61-.05 5.18 5.18 0 0 0 1.11-.22.94.94 0 0 1 .32-.11 2.35 2.35 0 0 1 .37.05c.57.08 1-.44 1.37-.9a.26.26 0 0 0 .07-.23zm-2.51.08a.5.5 0 0 1-.26.65 1.43 1.43 0 0 1-.77.08.56.56 0 0 1-.26-.07.4.4 0 0 1-.1-.55 1 1 0 0 1 .48-.37 1.22 1.22 0 0 1 1.34.1z"/></symbol><symbol id="logo-64" viewBox="0 0 32 32"><path fill="#231f20" d="M-2.67-2.67h37.34v37.34H-2.67z"/><path fill="#8b5e3c" d="M26.7 12.66a2.35 2.35 0 0 0-1.87 2.6 5.4 5.4 0 0 0 .34 1 4.84 4.84 0 0 1 .45 2 13.34 13.34 0 0 1-1 3.09 6.63 6.63 0 0 1-.29 1 4.41 4.41 0 0 1-.52.78l-.81 1.1a14.35 14.35 0 0 0-.14-4.76 4.15 4.15 0 0 0-.78-1.87c-.52-.6-1.33-.92-1.82-1.55a4.39 4.39 0 0 1-.65-1.54 7.56 7.56 0 0 1-.33-1.57v-.77c-.11-1.49-1.12-2.75-1.52-4.19-.14-.5-.25-1.09-.7-1.35L3.85 20A20.71 20.71 0 0 0 2 23.23a.68.68 0 0 0-.07.48c.08.22.38.28.55.44.34.32.19.93.51 1.26.52.52 1.73-.16 2 .51a1.28 1.28 0 0 1 0 .7A3.42 3.42 0 0 0 6 29a2.43 2.43 0 0 0 .88.81 2.38 2.38 0 0 0 1 .13l3.85-.05a6.57 6.57 0 0 0 2.42-.34c1.13-.45 1.92-1.47 3-2.07a.42.42 0 0 1 .28-.08c.12 0 .21.12.28.22.48.7.8 1.49 1.3 2.18a2.61 2.61 0 0 0 2.08 1.25c.64 0 1.42-.34 1.84.15a3.81 3.81 0 0 0 .24.32c.37.34 1-.06 1.24-.49a24.39 24.39 0 0 0 1.42-3.46c.58-1.29 1.51-2.4 2-3.72a12.76 12.76 0 0 0 .6-2.28c.12-.61.24-1.23.37-1.85a1.38 1.38 0 0 0-.18-1.26c-.13-.12-.31-.19-.4-.34a1 1 0 0 1-.1-.55 2.5 2.5 0 0 0-1.84-2.31 3 3 0 0 0 .6-2.58"/><path fill="#231f20" d="M26.64 12.42A2.62 2.62 0 0 0 24.8 16a7.2 7.2 0 0 1 .54 1.86 5 5 0 0 1-.5 2.25c-.25.6-.39 1.2-.61 1.81a7.74 7.74 0 0 1-1.44 2.11l.43.18a12.76 12.76 0 0 0-.36-5.63c-.53-1.54-2.15-2-2.78-3.39s-.42-3.19-1-4.72c-.35-.87-.8-1.68-1.09-2.57a2.66 2.66 0 0 0-.77-1.47.26.26 0 0 0-.35 0l-6.27 6.35c-2.27 2.31-4.77 4.52-6.87 7a11.14 11.14 0 0 0-1.94 3.32.92.92 0 0 0-.06.76c.08.16.22.19.32.31a3.9 3.9 0 0 1 .57 1.11 1 1 0 0 0 .73.57c.23 0 .52-.06.73 0 .64.21.55.65.67 1.13a4.41 4.41 0 0 0 2.09 3.06 5.92 5.92 0 0 0 2.3.13c1.08 0 2.17 0 3.26-.06a6 6 0 0 0 3.77-1.6c.58-.46 1-1 1.68-.23a6.23 6.23 0 0 1 .62 1.1 4.33 4.33 0 0 0 1.34 1.51 2.44 2.44 0 0 0 1.66.37 2.16 2.16 0 0 1 1.52.4 1.59 1.59 0 0 0 .41.21c1.3.27 1.9-2 2.18-2.87.73-2.11 2.24-3.84 2.84-6a26 26 0 0 0 .7-3.4 1.84 1.84 0 0 0-.28-1.34c-.72-1.34-.75-2.7-2.45-3.26l.15.37a3.41 3.41 0 0 0 .63-2.78c-.05-.31-.53-.18-.48.14a2.93 2.93 0 0 1-.58 2.39.26.26 0 0 0 .15.37 2.2 2.2 0 0 1 1.55 1.61 6 6 0 0 0 .17.94c.08.16.22.27.3.42a3 3 0 0 1 .14 2.1 18.81 18.81 0 0 1-.77 3.15 25.81 25.81 0 0 1-1.63 3 13.43 13.43 0 0 0-.92 2.18 11.21 11.21 0 0 1-.58 1.49c-.36.72-.67.91-1.42.64a2.33 2.33 0 0 0-1.32-.27c-1.59.13-2.35-.63-3.09-2-.53-1-.81-2-2-1.31-.72.44-1.29 1.12-2 1.55a6.58 6.58 0 0 1-3.42.63 27.08 27.08 0 0 1-3.37.05 2.63 2.63 0 0 1-1.9-1.1 3.79 3.79 0 0 1-.7-2.24c-.11-1.2-.75-.72-1.62-.95-.56-.16-.8-.95-1-1.42 0-.08-.2-.09-.23-.16a1.73 1.73 0 0 1 .17-1.2 8.61 8.61 0 0 1 .7-1.26 7.68 7.68 0 0 1 1.13-1.56l3.24-3.29 8.59-8.73c.13-.13.71-.92.92-.93a17.51 17.51 0 0 0 .6 2.05 11.75 11.75 0 0 1 1.2 3.48c.12 1.55.32 3.33 1.6 4.38a6.23 6.23 0 0 1 1.48 1.32 5.29 5.29 0 0 1 .6 1.94 14.63 14.63 0 0 1 0 4.23.26.26 0 0 0 .43.18 9.55 9.55 0 0 0 1.51-2.18c.37-1 .81-2.09 1.08-3.12a4.23 4.23 0 0 0-.18-2.51 4.15 4.15 0 0 1-.47-1.94 2.14 2.14 0 0 1 1.68-1.75.25.25 0 0 0-.13-.49zM5.91 11.06a.92.92 0 0 0-.56.65c0 .17 0 .35-.09.53a2.08 2.08 0 0 1-.16.48 3.29 3.29 0 0 0-.27.94 2.06 2.06 0 0 0 .2 1 .26.26 0 0 0 .34.09.25.25 0 0 0 .09-.34 1.51 1.51 0 0 1-.13-.72 2.48 2.48 0 0 1 .23-.76 2.84 2.84 0 0 0 .22-.77c0-.18 0-.51.26-.58s.18-.59-.13-.49z"/><path fill="#231f20" d="M10.64 10.36l.76.2a2.72 2.72 0 0 1 .71.25 2.57 2.57 0 0 1 .47.52l.52.64a.25.25 0 0 0 .35 0 .26.26 0 0 0 0-.35l-.53-.62a2.76 2.76 0 0 0-.55-.58 3 3 0 0 0-.76-.28l-.84-.23a.25.25 0 0 0-.13.49z"/><path fill="#8b5e3c" d="M6 .81A7 7 0 0 1 8.55.26 6.92 6.92 0 0 1 9.91.5l1.87.5a5.45 5.45 0 0 1 1.57.56 1.12 1.12 0 0 1 .41.37 2 2 0 0 1 .19.59 4 4 0 0 0 1.24 2.1c.24.22.52.4.76.63a6 6 0 0 1 1.59 3.34 17 17 0 0 1 .32 4 2 2 0 0 1-.09.59 2.49 2.49 0 0 1-.27.51 6.9 6.9 0 0 0-.81 2l-.17-.25-.28 1.56a4 4 0 0 0-.17-1.73 2.38 2.38 0 0 0-.37.92 4.21 4.21 0 0 1 .07-1.46 19 19 0 0 0-1.4 3 2.4 2.4 0 0 0-.19 1.51 1.63 1.63 0 0 1 .11.42 1.07 1.07 0 0 1-.09.43l-.83 2.18c-.17.15-.41-.21-.63-.15s-.13.08-.18.14a6.32 6.32 0 0 0-.67 1c-.29-.18-.58.22-.89.33a.58.58 0 0 1-.72-.6l-.66.56c.06-.11-.06-.24-.18-.25a.58.58 0 0 0-.33.12L8 24.08c-.15-.22 0-.51 0-.78s-.32-.56-.5-.36v-.63c0-.11 0-.23-.1-.28s-.21 0-.3.07a9.21 9.21 0 0 0-.92.73L6 22.55a2.48 2.48 0 0 0-.58.5l-.16-.52-.4.26A5.92 5.92 0 0 1 4.17 19"/><path fill="#231f20" d="M6 1.05A6.3 6.3 0 0 1 9.85.74a24.28 24.28 0 0 1 2.67.68c1 .37 1.05 1 1.43 1.86A4.59 4.59 0 0 0 15.26 5c1.64 1.4 2.09 3.27 2.29 5.34a6 6 0 0 1-.26 3.18 10.41 10.41 0 0 0-.84 2.08l.45-.06-.16-.26a.26.26 0 0 0-.46.06L16 16.92l.49.07a5.46 5.46 0 0 0-.18-1.8.25.25 0 0 0-.46-.06 3.93 3.93 0 0 0-.39 1l.49.07a5.08 5.08 0 0 1 .06-1.4.25.25 0 0 0-.45-.19A15.69 15.69 0 0 0 14 18a3.08 3.08 0 0 0-.09 1.09 4.12 4.12 0 0 1-.37 2c-.1.26-.17.71-.45.84-.06 0-.22-.1-.29-.08a1.27 1.27 0 0 0-.42.21c-.29.23-.43.7-.7.9s-1.08.54-1.16-.05c0-.2-.29-.22-.42-.11l-.65.57.41.11c-.16-1.07-1.69.22-2 .43l.37.15c-.16-.53.08-1.57-.83-1.32l.31.24c0-1.63-.72-1.18-1.74-.28l.42.11-.12-.29c0-.13-.22-.25-.36-.15a3.27 3.27 0 0 0-.63.54l.41.11-.16-.52a.24.24 0 0 0-.36-.15l-.41.26.35.09a6.07 6.07 0 0 1-.69-3.7c0-.32-.47-.32-.5 0a6.62 6.62 0 0 0 .74 3.88A.27.27 0 0 0 5 23l.4-.27-.4-.14.16.53a.26.26 0 0 0 .42.11l.53-.47-.37-.15.11.29a.26.26 0 0 0 .42.11c.67-.59.89-1.09.89-.07a.26.26 0 0 0 .32.24c.1 0 .18.84.21 1a.26.26 0 0 0 .37.15c.08-.05 1.28-.78 1.28-.73s.29.22.42.11l.65-.56L10 23a.84.84 0 0 0 .62.78c.47.11.75-.41 1.16-.34a.28.28 0 0 0 .29-.12 1.36 1.36 0 0 1 1.26-.87.26.26 0 0 0 .24-.19 8.1 8.1 0 0 0 .84-3.05A8.65 8.65 0 0 1 16 14.84l-.46-.19a6 6 0 0 0-.08 1.53c0 .27.42.36.49.07a2.51 2.51 0 0 1 .34-.87l-.45-.06A5.51 5.51 0 0 1 16 17c0 .27.44.34.49.06l.29-1.62-.46.06.16.26a.26.26 0 0 0 .46-.06c.24-.95.89-1.74 1.12-2.67A9.32 9.32 0 0 0 18 9.86c-.23-1.94-.69-3.85-2.26-5.15a5 5 0 0 1-1.12-1.21c-.3-.5-.32-1.17-.62-1.68a2.56 2.56 0 0 0-1.54-.94A24.83 24.83 0 0 0 9.08.06a6.53 6.53 0 0 0-3.17.51c-.3.11-.17.59.13.48z"/><path fill="#8b5e3c" d="M6.08.84A15 15 0 0 0 3.3 5.72 2.22 2.22 0 0 0 3.05 7a2.11 2.11 0 0 1 .11.65A1.19 1.19 0 0 1 3 8a4.63 4.63 0 0 0-.47 2.71A9.27 9.27 0 0 0 3 12.42a3.58 3.58 0 0 0 .66 1.34 3.8 3.8 0 0 1 .42.48 1.58 1.58 0 0 1 .21.56 7.11 7.11 0 0 1 .06 3 3.3 3.3 0 0 0 0 2.19A3.62 3.62 0 0 1 5 18.42a2.63 2.63 0 0 0 .12 1.21 9.88 9.88 0 0 0 1.08-1.72 7 7 0 0 0 .55 1.49l.52-1.13.54.55a.35.35 0 0 0 .19.12.39.39 0 0 0 .22-.11l.67-.59a9.45 9.45 0 0 0 1.52 2.43 11.72 11.72 0 0 0 .65-4.55 9.7 9.7 0 0 0 1.15 1.62l.4-.26a1.07 1.07 0 0 0 .47.63 4.17 4.17 0 0 0 .34-1.29 1.16 1.16 0 0 0 1 .46 8.66 8.66 0 0 0-.78-2.28l1.21.1a3.51 3.51 0 0 1-.67-1.21l.49-.35A4.34 4.34 0 0 0 13.58 12"/><path fill="#231f20" d="M5.91.66A14.2 14.2 0 0 0 3.33 5a4.76 4.76 0 0 0-.52 2c0 1-.49 1.83-.55 2.83a7 7 0 0 0 1.43 4.32 5 5 0 0 1 .41 3.58 3.88 3.88 0 0 0 0 2.31c.09.21.43.27.49 0a4 4 0 0 1 .69-1.52l-.47-.12a3.42 3.42 0 0 0 .13 1.27.25.25 0 0 0 .46.06A10.37 10.37 0 0 0 6.41 18H6a10.66 10.66 0 0 0 .57 1.55.26.26 0 0 0 .44 0l.52-1.14-.4.05c.94 1 1 .82 2 0l-.4-.05a11 11 0 0 0 1.56 2.47.25.25 0 0 0 .42-.11 12.43 12.43 0 0 0 .66-4.61l-.46.13A12.91 12.91 0 0 0 12 17.92a.26.26 0 0 0 .3 0l.4-.27-.36-.15a1.67 1.67 0 0 0 .53.75.26.26 0 0 0 .42-.11 5.45 5.45 0 0 0 .35-1.36l-.43.17a1.59 1.59 0 0 0 1.19.54.26.26 0 0 0 .24-.32 9.58 9.58 0 0 0-.82-2.38l-.21.37 1.21.1c.24 0 .3-.27.18-.42-.3-.38-.72-.83-.24-1.17a.27.27 0 0 0 .09-.35 5.25 5.25 0 0 0-1.12-1.57c-.23-.22-.59.13-.35.36a4.91 4.91 0 0 1 1 1.47l.09-.35-.49.35a.26.26 0 0 0-.12.29 4.76 4.76 0 0 0 .74 1.32l.18-.43-1.21-.1a.26.26 0 0 0-.22.38 9.12 9.12 0 0 1 .76 2.26l.25-.31-.83-.39a.26.26 0 0 0-.43.18 4.26 4.26 0 0 1-.27 1.22l.42-.11-.4-.52a.26.26 0 0 0-.37-.15c-.49.32-1-.88-1.2-1.26a.25.25 0 0 0-.47.12 12.39 12.39 0 0 1-.64 4.48l.42-.11a10.13 10.13 0 0 1-1.49-2.34.26.26 0 0 0-.39-.05c-.47.42-.76.55-1.26 0a.24.24 0 0 0-.39.05l-.53 1.13H7a9 9 0 0 1-.53-1.42.25.25 0 0 0-.47-.03 11.59 11.59 0 0 1-1.08 1.71l.45.06a3.16 3.16 0 0 1-.11-1.14c0-.28-.33-.31-.46-.13a4.16 4.16 0 0 0-.75 1.64h.49c-.37-.91.06-1.85.15-2.78a7.71 7.71 0 0 0-.1-2.09 3.54 3.54 0 0 0-.91-1.66 6.81 6.81 0 0 1-.88-2.71 4.53 4.53 0 0 1 .08-1.64c.1-.4.38-.77.46-1.17a12.32 12.32 0 0 1 .2-2.09A14.4 14.4 0 0 1 6.26 1c.22-.22-.13-.57-.35-.34z"/><path fill="#8b5e3c" d="M27.19 12.17c0-.2.29-.28.47-.19a.92.92 0 0 1 .35.47 5.88 5.88 0 0 1 .51-.72s.09-.09.15-.08.1.08.12.14l.26.67c.09-.18.38-.11.52 0s.23.37.42.44a.52.52 0 0 1 .54 0 .86.86 0 0 1 .34.84 2.42 2.42 0 0 1-.33.88l-.24.46c-.07.13-.19.28-.33.24a.38.38 0 0 1-.14-.11 1.53 1.53 0 0 1-.28-.64 3.49 3.49 0 0 0-.56.87.73.73 0 0 1-.41-.56 2.18 2.18 0 0 1 0-.72l-.38.84c-.07.15-.19.31-.35.29s-.24-.33-.2-.54l.13-.76-.17.13a1 1 0 0 1-.17-.84 1.49 1.49 0 0 0 .08-.41.84.84 0 0 0-.34-.53"/><path fill="#231f20" d="M27.43 12.23a.11.11 0 0 1 .11 0 .8.8 0 0 1 .22.35.25.25 0 0 0 .43 0 4 4 0 0 1 .22-.34 4.08 4.08 0 0 0 .25-.33c-.16-.08-.22-.06-.15 0a.68.68 0 0 0 .07.2l.15.41a.26.26 0 0 0 .46.06h.07a.49.49 0 0 1 .15.17 1.09 1.09 0 0 0 .38.36c.19.08.34-.09.52 0a.55.55 0 0 1 .24.4 2.15 2.15 0 0 1-.4 1.19c0 .1-.1.21-.16.31l-.06.07s.05.06 0 0-.1-.16-.14-.23a1.39 1.39 0 0 1-.1-.33.25.25 0 0 0-.42-.11 4.22 4.22 0 0 0-.6.91l.35-.09c-.41-.18-.32-.7-.28-1.06s-.35-.33-.46-.13l-.3.57-.14.25-.06.07a.84.84 0 0 0 0-.1 1.49 1.49 0 0 1 0-.21L28 14c0-.19-.17-.43-.37-.28l-.17.13.34.09a.92.92 0 0 1-.15-.43 1.9 1.9 0 0 1 .09-.53 1 1 0 0 0-.4-.88c-.23-.21-.59.14-.35.36s.24.2.26.35-.08.34-.1.49a1.4 1.4 0 0 0 .22.89.26.26 0 0 0 .34.09l.18-.13-.37-.28a6.08 6.08 0 0 0-.16.95.66.66 0 0 0 .28.61.52.52 0 0 0 .66-.21 6.83 6.83 0 0 0 .49-.88l-.47-.13c-.07.54-.06 1.23.52 1.5a.27.27 0 0 0 .35-.09 3.08 3.08 0 0 1 .52-.82l-.42-.11c.07.36.34 1.05.82.92a.76.76 0 0 0 .43-.45c.13-.24.27-.48.38-.73a1.54 1.54 0 0 0 0-1.34.85.85 0 0 0-1.13-.37h.26c-.25-.12-.33-.42-.57-.55a.53.53 0 0 0-.72.16l.46.06c-.09-.23-.17-.46-.26-.68s-.19-.34-.4-.32-.32.19-.44.34a6 6 0 0 0-.39.59h.43c-.13-.27-.31-.57-.63-.62a.55.55 0 0 0-.65.39c-.07.32.41.45.48.13z"/><path fill="#009444" d="M26.63 12.09A6.82 6.82 0 0 0 25 8.57a.32.32 0 0 0-.16-.09.34.34 0 0 0-.15.07l-1.21.89a3.72 3.72 0 0 0 1.14 1.23l1.86 1.47"/><path fill="#231f20" d="M26.87 12a9.26 9.26 0 0 0-1-2.8 4.83 4.83 0 0 0-.43-.58c-.14-.16-.33-.41-.57-.41a.53.53 0 0 0-.33.15l-.4.29-.75.55a.26.26 0 0 0-.09.34 3.88 3.88 0 0 0 1.26 1.35l1.77 1.41a.26.26 0 0 0 .35 0 .25.25 0 0 0 0-.36L25 10.61a4 4 0 0 1-1.24-1.3l-.09.34.66-.48.32-.23a1.09 1.09 0 0 1 .17-.13s.15-.08.07-.08 0 0 0 .06l.12.12a2.75 2.75 0 0 1 .22.26 2.85 2.85 0 0 1 .33.52 9.82 9.82 0 0 1 .82 2.47.25.25 0 0 0 .48-.14z"/><path fill="#009444" d="M23.69 9.9a2.4 2.4 0 0 0-2 2 1.69 1.69 0 0 1 1.11 0 4.36 4.36 0 0 1 1 .53.48.48 0 0 0 .19.09.4.4 0 0 0 .26-.05L25.7 12a.44.44 0 0 1 .27-.05"/><path fill="#231f20" d="M23.62 9.66A2.65 2.65 0 0 0 21.41 12a.25.25 0 0 0 .31.25 1.5 1.5 0 0 1 1.12.06c.34.14.62.4.95.54s.74-.1 1-.22l.55-.21a1.56 1.56 0 0 1 .59-.18c.32 0 .32-.46 0-.5a1.26 1.26 0 0 0-.57.14l-.54.21-.62.23c-.11 0-.18.09-.29.05a1.35 1.35 0 0 1-.22-.14 2.51 2.51 0 0 0-2.14-.47l.32.24a2.16 2.16 0 0 1 1.84-1.81c.32-.05.18-.53-.13-.48z"/><path fill="#009444" d="M29.83 18.47a1.34 1.34 0 0 0-.09 1.32c.18.43.46.81.65 1.23a5.16 5.16 0 0 1 .32 1l.29 1.14a4.3 4.3 0 0 0 1.69-1.95 1.92 1.92 0 0 0 .33-1 1.89 1.89 0 0 0-.77-1.21"/><path fill="#231f20" d="M29.61 18.34a2 2 0 0 0 .24 2.19 5.28 5.28 0 0 1 .54 1.27c.13.47.24.95.36 1.43a.26.26 0 0 0 .37.15 4.56 4.56 0 0 0 1.76-2 1.93 1.93 0 0 0 .35-1.38 2.48 2.48 0 0 0-.81-1.14c-.23-.22-.59.13-.35.35a1.86 1.86 0 0 1 .68 1 1.87 1.87 0 0 1-.41 1.16A3.79 3.79 0 0 1 30.87 23l.36.14a9.93 9.93 0 0 0-.75-2.45c-.32-.59-.94-1.38-.44-2.05.2-.25-.24-.5-.43-.25z"/><path fill="#009444" d="M32.31 18.86a2.06 2.06 0 0 0 .89 0 3.85 3.85 0 0 0 .49-3.1.77.77 0 0 0-.34-.52.69.69 0 0 0-.35-.04l-2-.14a.41.41 0 0 0-.22 0 .14.14 0 0 0-.08.18"/><path fill="#231f20" d="M32.24 19.1a2.43 2.43 0 0 0 .93 0c.28 0 .4-.35.51-.59a4.19 4.19 0 0 0 .39-1.63 3 3 0 0 0-.28-1.57.81.81 0 0 0-.66-.4l-1-.06c-.37 0-.75-.07-1.12-.08s-.59.19-.52.52.55.18.49-.13c-.07.08-.08.11 0 .11h.72l.83.05h.41a.5.5 0 0 1 .34.09 1.09 1.09 0 0 1 .21.56 3.69 3.69 0 0 1-.49 2.79l.15-.12a1.77 1.77 0 0 1-.76 0 .25.25 0 0 0-.14.48z"/><path fill="#009444" d="M28.64 16.78a10.24 10.24 0 0 1 2.66 4.4l1.08-2.51a5.44 5.44 0 0 0 .29-.8 5 5 0 0 0 0-1.6 8.19 8.19 0 0 0-2.1-.68.61.61 0 0 0-.19 0 .5.5 0 0 0-.21.12c-.27.26-.52.62-.9.65a1.23 1.23 0 0 0-.27 0c-.08 0-.16.12-.13.2"/><path fill="#231f20" d="M28.46 17a10 10 0 0 1 2.6 4.29c.06.18.37.27.46.06.39-.92.8-1.84 1.18-2.77a3.63 3.63 0 0 0 .3-1.3v-.75c0-.25 0-.36-.24-.48a7.61 7.61 0 0 0-1.23-.47 2.29 2.29 0 0 0-1.23-.18c-.36.15-.51.59-.88.72-.18.05-.38 0-.55.1a.43.43 0 0 0-.19.39c0 .32.51.32.5 0 0 .16.65-.15.7-.19.22-.16.45-.55.73-.54a4.13 4.13 0 0 1 1 .24 9.71 9.71 0 0 1 1 .41l-.12-.22a6.55 6.55 0 0 1 0 1.25 4.43 4.43 0 0 1-.4 1.23l-1 2.3.45.06a10.46 10.46 0 0 0-2.73-4.5.25.25 0 0 0-.35.35zm-16.33-3.53A2.17 2.17 0 0 0 11 12.06a3.31 3.31 0 0 0-2.15-.24 3.51 3.51 0 0 0-2 .89 1.57 1.57 0 0 0-.42.91c0 .37.21.7.17 1.06s.29.32.43.18a2.68 2.68 0 0 1 2.16-.78 2.8 2.8 0 0 0 1.22.05 4.3 4.3 0 0 1 1.37-.29.25.25 0 0 0 0-.5 4.2 4.2 0 0 0-1.41.27c-.47.17-.93 0-1.41 0a3.24 3.24 0 0 0-2.28.94l.42.18a2.7 2.7 0 0 0-.15-.8.93.93 0 0 1 .25-.82 3 3 0 0 1 1.71-.74c1.06-.21 2.49 0 2.75 1.29.07.31.55.18.49-.14z"/><path fill="#fff" d="M6.86 13.19a1.55 1.55 0 0 0 .33.55.94.94 0 0 0 .18-.56.36.36 0 0 0 .35-.1.93.93 0 0 1 .28-.24c.15-.06.33 0 .48-.09s.16-.11.25-.1a.81.81 0 0 1 .21.1c.26.11.58-.3.8-.12a.48.48 0 0 1 .12.32c0 .11.09.24.2.24s.2-.17.22-.31.1-.32.24-.28.17.12.23.05a.16.16 0 0 0 0-.24.44.44 0 0 0-.27-.07h-.75a1.39 1.39 0 0 0-.41 0c-.13 0-.26.11-.39.15a1.61 1.61 0 0 1-.69 0l1-.22a1.27 1.27 0 0 1 1.07.09c-.45-.13-.91.17-1.38.16H8.5a1.62 1.62 0 0 0-1.55.84"/><path fill="#231f20" d="M7.25 9.75a.75.75 0 0 0-.41.76c.16 0 .22-.26.38-.26a.36.36 0 0 1 .18.12 1.27 1.27 0 0 0 .63.35.29.29 0 0 0 .13 0c.15-.05.11-.26.16-.4a.3.3 0 0 1 .45-.15c.06 0 .1.09.16.11s.33-.06.44-.19a.34.34 0 0 0 .11-.24.24.24 0 0 0-.12-.14 1.59 1.59 0 0 0-1-.3 4.64 4.64 0 0 0-1 .13M7.2 8.1a.53.53 0 0 0-.72-.24c-.08 0-.13.13-.21.17s-.19 0-.22 0l-.46.55c-.09.1-.2.22-.34.22l.16.16-.34.27a.08.08 0 0 0 0 .06h.06a.17.17 0 0 1 .08.2.59.59 0 0 1-.21.18.23.23 0 0 1 .25 0 .64.64 0 0 0 .22.14c.23 0 .38-.27.61-.31h.16a.7.7 0 0 0 .53-.28 2.22 2.22 0 0 0 .33-.52l.11.24a1.16 1.16 0 0 0-.01-.84zm-.3.76L6.73 9a.66.66 0 0 1-.3.2.22.22 0 0 1-.27-.17.28.28 0 0 1 .17-.24 1 1 0 0 0 .28-.14s.1-.11.17-.11.15.2.12.32zm5.45-.76c0-.1-.21-.11-.19-.21s0 0 .06-.08 0-.16-.05-.22-.17-.1-.17-.18 0-.13-.08-.17a.21.21 0 0 0-.14 0 2.74 2.74 0 0 0-.63.09.39.39 0 0 1-.3 0 1 1 0 0 1-.13-.09.46.46 0 0 0-.5.12 1.79 1.79 0 0 1-.43.35.14.14 0 0 1-.11 0c-.08 0-.08-.16-.16-.2s-.18.06-.23.14L9.06 8a1.24 1.24 0 0 0-.15.33.38.38 0 0 0 .09.37.22.22 0 0 0 .32 0A1.48 1.48 0 0 0 10 9a1.54 1.54 0 0 0 .37 0 2.59 2.59 0 0 0 .66-.18.7.7 0 0 1 .19-.06.91.91 0 0 1 .23 0c.34.05.61-.26.82-.54.06-.04.09-.08.08-.12zm-1.51.05a.3.3 0 0 1-.15.39.8.8 0 0 1-.46 0 .29.29 0 0 1-.16 0 .25.25 0 0 1-.07-.32.63.63 0 0 1 .3-.22.72.72 0 0 1 .8.06z"/></symbol></svg>