<svg xmlns="http://www.w3.org/2000/svg"><symbol id="icons" viewBox="0 0 719.17 642.23"><path fill="#231f20" d="M0 153.54h256v256H0z"/><path fill="#8b5e3c" d="M201.38 258.68c-8 1.24-14.21 9.78-12.84 17.82a35.17 35.17 0 0 0 2.33 7c1.73 4.31 3.25 8.84 3.11 13.48-.24 7.43-4.68 14-6.69 21.17a45.71 45.71 0 0 1-2 6.76 27.23 27.23 0 0 1-3.55 5.38l-6 7.65a96.26 96.26 0 0 0-1-32.65c-.93-4.57-2.28-9.24-5.31-12.78-3.57-4.15-9.1-6.31-12.47-10.63-2.36-3-3.44-6.84-4.48-10.54a54 54 0 0 1-2.17-10.78c-.11-1.76-.05-3.53-.18-5.29-.75-10.19-7.65-18.84-10.41-28.68-1-3.46-1.72-7.49-4.82-9.29l-90.16 91.62a134.24 134.24 0 0 0-12.68 22.15 4.45 4.45 0 0 0-.53 3.29c.59 1.56 2.6 1.94 3.82 3.08 2.3 2.14 1.24 6.36 3.45 8.6 3.55 3.6 11.86-1.11 13.89 3.53.65 1.48.13 3.17-.08 4.78-.76 6 3.21 11.54 7 16.33 1.71 2.18 3.52 4.44 6.06 5.55 2.19 1 4.68.94 7.07.9l26.4-.39c5.61-.08 11.37-.19 16.58-2.28 7.71-3.1 13.16-10.09 20.37-14.23a3.14 3.14 0 0 1 1.9-.57 3.18 3.18 0 0 1 1.93 1.56c3.3 4.75 5.48 10.22 8.86 14.92s8.51 8.75 14.3 8.59c4.4-.12 9.73-2.33 12.6 1a23.56 23.56 0 0 0 1.63 2.17c2.56 2.38 6.63-.39 8.54-3.32 4.66-7.19 6.22-15.91 9.71-23.73 3.95-8.84 10.36-16.46 13.93-25.47a88.85 88.85 0 0 0 4.1-15.64q1.26-6.33 2.51-12.67c.6-3 1-6.6-1.23-8.69-.87-.82-2.08-1.29-2.75-2.29s-.62-2.51-.65-3.82a17 17 0 0 0-12.65-15.77 20.28 20.28 0 0 0 4.15-17.72"/><path fill="#231f20" d="M201.12 257.71a16.75 16.75 0 0 0-11.49 8.29 17.2 17.2 0 0 0-2.21 6.79 18.5 18.5 0 0 0 1.45 8.43c2.4 6.28 5.1 12.46 3.67 19.32-1.23 6.03-4.54 11.46-6.23 17.36-.48 1.7-.82 3.43-1.37 5.11a17.45 17.45 0 0 1-2.52 4.72c-2.33 3.25-4.9 6.35-7.36 9.51l1.67 1a98.42 98.42 0 0 0-.3-29.38 46.91 46.91 0 0 0-3.38-12.51 23 23 0 0 0-7.83-8.8c-3.3-2.39-6.73-4.61-8.76-8.26-2.23-4-3.31-8.86-4.32-13.29a37.13 37.13 0 0 1-.92-7.57 38 38 0 0 0-.59-6.65 52 52 0 0 0-4.2-11.65c-2-4.39-4.29-8.72-5.65-13.38-1.1-3.75-1.8-8.07-5.4-10.29a1 1 0 0 0-1.21.16l-10.42 10.59-24.32 24.71-28.12 28.55-21.53 21.89-5.13 5.21a10.8 10.8 0 0 0-1.32 1.6 133.92 133.92 0 0 0-9.59 16.05c-.69 1.36-1.35 2.72-2 4.1a11.18 11.18 0 0 0-1.37 3.81c-.2 2.77 2.15 3.4 4 4.78s1.64 4.16 2.26 6.17a5.74 5.74 0 0 0 3.63 4 15 15 0 0 0 5.78.37c1.52-.08 3.66-.39 5 .57a3.21 3.21 0 0 1 .93 3.13 25.6 25.6 0 0 0-.41 4.46 18.5 18.5 0 0 0 2.38 7.64 50.4 50.4 0 0 0 4.69 6.83c1.66 2.13 3.39 4.36 5.81 5.68s5.46 1.43 8.28 1.39c3.41 0 6.81-.1 10.21-.15 6.62-.09 13.24-.09 19.85-.31 5.93-.2 11.75-1.05 16.94-4.09 4.69-2.75 8.56-6.63 12.9-9.85 1.06-.79 2.14-1.54 3.27-2.23.57-.35 1.21-.87 1.9-.77.84.12 1.3 1.06 1.74 1.73 1.73 2.6 3.15 5.38 4.65 8.12 2.61 4.74 5.57 9.38 10.16 12.44a15.87 15.87 0 0 0 7.2 2.66c2.46.24 4.89-.36 7.32-.64s5-.26 6.51 2c1.32 1.9 2.89 3.16 5.33 2.65 5.07-1.06 7.65-7 9.43-11.26 2.26-5.4 3.71-11.1 6-16.48s5.58-10.29 8.61-15.3a66.35 66.35 0 0 0 7.43-16.25c1.77-6.27 2.82-12.77 4.08-19.16.88-4.41 3-10.77-1.33-14.06-1.07-.81-2.17-1.32-2.41-2.78s-.06-2.78-.25-4.16a17.61 17.61 0 0 0-2.38-6.53 18 18 0 0 0-10.83-8.16l.44 1.67a21.5 21.5 0 0 0 4.4-18.7c-.29-1.25-2.22-.72-1.92.53a19.42 19.42 0 0 1-3.89 16.75 1 1 0 0 0 .44 1.67 16.2 16.2 0 0 1 10.63 9.13c1.06 2.4 1.14 4.72 1.31 7.28a5.32 5.32 0 0 0 1 3.11c.8 1 2 1.43 2.86 2.35 1.68 1.88 1.22 4.87.8 7.12-.6 3.21-1.27 6.41-1.91 9.61-1.19 6-2.23 12.18-4.36 18-2 5.45-5.14 10.38-8.16 15.3a86.68 86.68 0 0 0-7.79 15.22c-2 5.4-3.49 11-6.1 16.19-1.19 2.34-2.52 4.77-4.82 6.2a4.34 4.34 0 0 1-2.86.83c-1.46-.24-2-1.76-2.83-2.74-3.21-3.67-8.69-1.58-12.78-1.33-5.35.32-10-3-13.18-7-3.73-4.63-5.88-10.29-9.15-15.22a6.27 6.27 0 0 0-2.44-2.56 3.59 3.59 0 0 0-3.26.48 46.08 46.08 0 0 0-6.35 4.49c-4.12 3.32-8.06 7-12.93 9.27-5.58 2.55-11.89 2.54-17.91 2.63l-19.67.28a85.23 85.23 0 0 1-9.59 0c-3.1-.3-5.33-1.92-7.31-4.22-3.48-4.06-7.58-9.13-8.19-14.64-.29-2.66 1.13-5.61 0-8.12a4.69 4.69 0 0 0-3.72-2.58 28.55 28.55 0 0 0-5.39 0c-1.7.05-3.82.09-5-1.3-1.43-1.63-1.2-4.23-1.92-6.18a5.74 5.74 0 0 0-1.66-2.5c-.8-.68-1.81-1-2.64-1.67-1.44-1.11-.49-2.78.12-4.11s1.3-2.76 2-4.11q2.05-4.08 4.37-8t4.91-7.69a13.22 13.22 0 0 1 1-1.43c1.17-1.32 2.5-2.54 3.74-3.81l19.29-19.6 27-27.43L120.85 233l14.09-14.31.66-.68-1.21.16c3.17 2 3.61 6.23 4.6 9.49a83.9 83.9 0 0 0 4.76 11.34 65.79 65.79 0 0 1 4.56 11.49c1.15 4.42.66 8.95 1.41 13.43a69.2 69.2 0 0 0 3.51 13 20.89 20.89 0 0 0 6.91 9.33c3 2.35 6.45 4.27 8.89 7.28 2.63 3.23 3.82 7.4 4.67 11.41a95.17 95.17 0 0 1 1.13 32.72c-.12.84 1 1.87 1.67 1l6.35-8.16a23.48 23.48 0 0 0 4.3-7.8c.85-2.94 1.52-5.88 2.64-8.75s2.37-5.57 3.39-8.42a28.44 28.44 0 0 0 1.8-8.54 28.79 28.79 0 0 0-1.68-9.81c-1.85-5.55-5.13-10.82-3.39-16.83a15.16 15.16 0 0 1 11.74-10.71c1.27-.21.73-2.14-.53-1.93zM59.03 248.4a5.42 5.42 0 0 0-3.34 3.89c-.33 1.2-.38 2.45-.63 3.66a17.23 17.23 0 0 1-1.07 3.28 19.76 19.76 0 0 0-1.83 6.24 12.91 12.91 0 0 0 1.25 6.32c.54 1.16 2.27.15 1.73-1a10.58 10.58 0 0 1-1-5.31 17.47 17.47 0 0 1 1.61-5.36 20.39 20.39 0 0 0 1.48-5.26c.22-1.62.51-3.89 2.31-4.53 1.21-.42.69-2.35-.53-1.92z"/><path fill="#231f20" d="M91.42 242.16c1.76.46 3.51.93 5.25 1.43a18.16 18.16 0 0 1 5 1.77 16.52 16.52 0 0 1 3.35 3.67l3.53 4.38c.8 1 2.21-.42 1.41-1.42l-3.64-4.51a16.86 16.86 0 0 0-3.64-3.85 18.55 18.55 0 0 0-5-1.83c-1.9-.54-3.82-1.07-5.73-1.57a1.002 1.002 0 0 0-.54 1.93z"/><path fill="#8b5e3c" d="M59.31 177.41c5.71-2 11.6-4.06 17.65-3.81a47.79 47.79 0 0 1 9.33 1.66l12.81 3.17c3.7.91 7.47 1.86 10.74 3.83a8.2 8.2 0 0 1 2.84 2.55 12.8 12.8 0 0 1 1.28 4 27.55 27.55 0 0 0 8.47 14.37c1.69 1.51 3.56 2.8 5.23 4.33 6.35 5.82 9.23 14.48 10.92 22.92a116.84 116.84 0 0 1 2.17 27.17 14.88 14.88 0 0 1-.57 4 19.06 19.06 0 0 1-1.85 3.48 46.35 46.35 0 0 0-5.62 13.92l-1.11-1.76-2 11.11a27.87 27.87 0 0 0-1.16-11.86 16.87 16.87 0 0 0-2.5 6.33 27.76 27.76 0 0 1 .49-10 130.43 130.43 0 0 0-9.6 20.18c-1.24 3.32-2.36 7-1.34 10.37a12.62 12.62 0 0 1 .81 2.91 7.31 7.31 0 0 1-.67 2.89l-5.65 14.95c-1.17 1.07-2.81-1.41-4.35-1a2.44 2.44 0 0 0-1.23 1 47.4 47.4 0 0 0-4.57 6.9c-2-1.18-4 1.51-6.11 2.27a4 4 0 0 1-4.95-4.1L84.31 333c.38-.75-.41-1.65-1.24-1.73a4 4 0 0 0-2.32.83l-7.74 4.87c-1-1.54-.17-3.54-.18-5.36s-2.22-3.86-3.39-2.46v-4.35c0-.71-.07-1.54-.68-1.9s-1.47.05-2.09.49a56.89 56.89 0 0 0-6.25 5l-.76-2a17.3 17.3 0 0 0-4 3.46l-1.1-3.59-2.76 1.8a40.66 40.66 0 0 1-4.88-25.72"/><path fill="#231f20" d="M59.56 178.38c5.16-1.82 10.47-3.72 16-3.8s10.89 1.75 16.15 3 10.8 2.18 15.68 4.46c2.3 1.08 4.39 2.37 5.12 4.94a58.16 58.16 0 0 0 2 6.69 29 29 0 0 0 8.27 11.09 58.84 58.84 0 0 1 5.61 4.84 28.83 28.83 0 0 1 4 5.51 49.47 49.47 0 0 1 4.77 13.24 108.85 108.85 0 0 1 2.39 16.08q.36 4.74.33 9.5c0 3.13.15 6.37-1.45 9.17a70.36 70.36 0 0 0-3.94 7.37 48.8 48.8 0 0 0-2.68 8.17l1.83-.23-1.12-1.77c-.42-.67-1.67-.66-1.82.24l-2 11.11 2 .27a29.66 29.66 0 0 0-1.19-12.13 1 1 0 0 0-1.83-.24 18.29 18.29 0 0 0-2.6 6.58l2 .26a28.34 28.34 0 0 1 .45-9.76 1 1 0 0 0-1.83-.77 131.58 131.58 0 0 0-6.41 12.44c-1.8 4-3.77 8.21-4.69 12.51a13.27 13.27 0 0 0-.07 6c.29 1.15 1 2.28.88 3.5a11.6 11.6 0 0 1-1 3.13l-5.3 14 .46-.6c-.53.38-1.95-.84-2.55-1a2.64 2.64 0 0 0-2.69.55 18.4 18.4 0 0 0-2.62 3.38 49 49 0 0 0-2.65 4.32l1.37-.36c-2.19-1.12-4 .44-5.76 1.57a3 3 0 0 1-3.36.36 2.94 2.94 0 0 1-1.58-2.91c.1-.94-1.11-1.22-1.7-.71l-4.49 3.87 1.67 1a2.22 2.22 0 0 0-1-2.56 3.22 3.22 0 0 0-3.32.11c-2.93 1.51-5.68 3.54-8.47 5.29l1.37.36c-.69-1.24-.2-2.73-.09-4.06a4.49 4.49 0 0 0-.66-3c-1-1.5-2.95-2.43-4.39-1l1.7.71a35.22 35.22 0 0 0-.09-5.24 2.26 2.26 0 0 0-2.45-2.13c-1.52.15-2.95 1.57-4.1 2.45q-2.13 1.65-4.12 3.46l1.67.44-.76-2a1 1 0 0 0-1.46-.59 19 19 0 0 0-4.18 3.61l1.67.44-1.11-3.59a1 1 0 0 0-1.47-.59l-2.75 1.79 1.37.36a39.84 39.84 0 0 1-4.78-24.94c.17-1.26-1.75-1.8-1.93-.53a42.11 42.11 0 0 0 5 26.48 1 1 0 0 0 1.45.48l2.75-1.8-1.47-.59 1.11 3.59a1 1 0 0 0 1.67.44 17.29 17.29 0 0 1 3.78-3.31l-1.47-.59.76 2a1 1 0 0 0 1.67.44 55.78 55.78 0 0 1 5.68-4.61c.27-.19 1.12-1 1.48-.69s.16 1.2.16 1.47v3.87a1 1 0 0 0 1.71.7c.46-.45 1.1.34 1.34.71a3.26 3.26 0 0 1 .26 2.24c-.19 1.65-.44 3.15.4 4.67a1 1 0 0 0 1.37.36l4.89-3.07 2.44-1.54c.26-.16 2.85-1.63 2.5-.49s1 1.59 1.67 1l4.48-3.88-1.71-.7a5 5 0 0 0 4.27 5.22 5.19 5.19 0 0 0 3.55-.95c.95-.6 2.53-2.19 3.74-1.58a1 1 0 0 0 1.36-.35 49.08 49.08 0 0 1 3.87-6c.61-.79 1.06-1.71 2.12-1.19a12.05 12.05 0 0 0 2 1c2.09.58 2.53-1.49 3.1-3l2.74-7.25a71.29 71.29 0 0 0 2.6-7c.6-2.33-.67-4.12-.93-6.37a15.91 15.91 0 0 1 1.12-6.91c.79-2.33 1.72-4.61 2.69-6.87a132.6 132.6 0 0 1 7.3-14.71l-1.83-.77a29.92 29.92 0 0 0-.52 10.29c.13 1 1.74 1.49 2 .27a16.68 16.68 0 0 1 2.35-6.05l-1.83-.23a28.07 28.07 0 0 1 1.12 11.59c-.12 1.11 1.77 1.37 2 .26l2-11.11-1.82.24 1.11 1.77a1 1 0 0 0 1.83-.24 51 51 0 0 1 6.19-14.69 14.55 14.55 0 0 0 1.88-7.39c.1-2.93.09-5.85 0-8.78a119.17 119.17 0 0 0-2-17.45 62.29 62.29 0 0 0-4.11-13.76 31 31 0 0 0-8.4-11.35 57.61 57.61 0 0 1-5.9-5.14 26.44 26.44 0 0 1-4.19-6.08 29.3 29.3 0 0 1-2.38-7.05 8.65 8.65 0 0 0-3.7-5.73c-4.37-3-9.92-3.92-15-5.17l-9.48-2.34a51.53 51.53 0 0 0-9.12-1.67c-6.36-.39-12.5 1.73-18.4 3.82-1.21.43-.69 2.36.53 1.93z"/><path fill="#8b5e3c" d="M60.01 177.6c-9 9.27-14.14 21.53-19.08 33.48-1.11 2.68-2.24 5.56-1.72 8.42.26 1.49 1 2.94.8 4.45a9.11 9.11 0 0 1-1.09 2.81 32 32 0 0 0-3.18 18.59A64 64 0 0 0 38.81 257c1.09 3.27 2.23 6.63 4.51 9.21a30.74 30.74 0 0 1 2.91 3.24 12.38 12.38 0 0 1 1.46 3.88 49.12 49.12 0 0 1 .36 20.66c-1 5-2.72 10.48-.29 15a24.7 24.7 0 0 1 4.91-10.85 17.68 17.68 0 0 0 .82 8.29 65.33 65.33 0 0 0 7.32-11.74 50.82 50.82 0 0 0 3.78 10.2l3.57-7.76 3.67 3.76a2.27 2.27 0 0 0 1.31.81 2.21 2.21 0 0 0 1.52-.74l4.59-4a63.63 63.63 0 0 0 10.43 16.63 80 80 0 0 0 4.47-31.14 67 67 0 0 0 7.86 11.08l2.73-1.8a7.61 7.61 0 0 0 3.21 4.33 26.77 26.77 0 0 0 2.37-8.86 8 8 0 0 0 6.89 3.16 56.46 56.46 0 0 0-5.42-15.92l8.33.66a24 24 0 0 1-4.63-8.31l3.37-2.4a29.94 29.94 0 0 0-7.43-10.41"/><path fill="#231f20" d="M59.31 176.9c-6.23 6.45-10.68 14.28-14.4 22.38-1.9 4.15-3.7 8.36-5.38 12.6a15.43 15.43 0 0 0-1.41 6.94 21.46 21.46 0 0 0 .69 3.16 5.43 5.43 0 0 1-.66 4.08 33.89 33.89 0 0 0-3.6 13 39 39 0 0 0 1.94 14c1.28 4.2 2.49 8.89 5.07 12.52 1.24 1.73 3.11 3 4.12 4.9a22.19 22.19 0 0 1 1.8 7.06 48.87 48.87 0 0 1-.62 17.22c-1 4.86-2.36 10 0 14.69a1 1 0 0 0 1.83-.23 24.26 24.26 0 0 1 4.66-10.41l-1.71-.71a19.13 19.13 0 0 0 .86 8.56c.21.63 1.17 1.08 1.67.44a68.65 68.65 0 0 0 7.47-11.94l-1.83-.24a54.86 54.86 0 0 0 3.89 10.44 1 1 0 0 0 1.73 0l3.57-7.77-1.57.21c1.11 1.13 2.21 2.28 3.33 3.41.78.8 1.61 1.61 2.82 1.41s2-1.21 2.81-1.92l3.54-3.09-1.58-.21a66.08 66.08 0 0 0 10.6 16.84 1 1 0 0 0 1.67-.44 82 82 0 0 0 4.5-31.41l-1.87.5a70.32 70.32 0 0 0 8 11.28 1 1 0 0 0 1.21.16l2.73-1.79-1.47-.6a9 9 0 0 0 3.68 4.92 1 1 0 0 0 1.37-.36 29.58 29.58 0 0 0 2.5-9.36l-1.71.7a9 9 0 0 0 7.6 3.46 1 1 0 0 0 1-1.27 59 59 0 0 0-5.51-16.16l-.87 1.51 8.33.66c.94.08 1.21-1.1.7-1.7a23.68 23.68 0 0 1-4.36-7.87l-.46 1.13 3.36-2.4a1 1 0 0 0 .36-1.37 31.28 31.28 0 0 0-7.58-10.62c-1-.87-2.37.54-1.42 1.42a29.78 29.78 0 0 1 7.27 10.21l.36-1.37-3.36 2.4a1 1 0 0 0-.46 1.13 26.38 26.38 0 0 0 4.88 8.75l.71-1.71-8.33-.66a1 1 0 0 0-.86 1.5 57.23 57.23 0 0 1 5.31 15.69l1-1.27a7.17 7.17 0 0 1-6.18-2.87c-.59-.77-1.64 0-1.71.71a26.3 26.3 0 0 1-2.23 8.35l1.37-.36a6.79 6.79 0 0 1-2.76-3.72 1 1 0 0 0-1.47-.6l-2.73 1.79 1.21.16a67.91 67.91 0 0 1-7.7-10.88 1 1 0 0 0-1.86.51 80.47 80.47 0 0 1-4.43 30.88l1.67-.44a64.34 64.34 0 0 1-10.28-16.44c-.27-.63-1.14-.57-1.57-.2l-2.47 2.17a13.46 13.46 0 0 1-2.3 2c-1 .51-1.91-.9-2.57-1.58l-2.33-2.39a1 1 0 0 0-1.57.2l-3.57 7.77h1.73a52 52 0 0 1-3.69-10 1 1 0 0 0-1.83-.24 66.63 66.63 0 0 1-7.15 11.54l1.67.44a17.65 17.65 0 0 1-.79-8 1 1 0 0 0-1.71-.71 26.53 26.53 0 0 0-5.17 11.29l1.83-.23c-2.14-4.19-.68-9.05.22-13.37a51.09 51.09 0 0 0 1-14.28 52.38 52.38 0 0 0-1.08-7.28 12.82 12.82 0 0 0-2.42-5.58c-1.39-1.67-3-3-4-4.93a35 35 0 0 1-2.47-6.09c-1.51-4.54-3.06-9.14-3.32-14a31.32 31.32 0 0 1 2.2-13.37c.78-2 2.29-3.92 2.31-6.1a11.4 11.4 0 0 0-.6-3.16 9.09 9.09 0 0 1-.16-4.18 34.36 34.36 0 0 1 2.27-6.38c.89-2.14 1.78-4.27 2.71-6.39 3.95-9 8.57-17.93 15.47-25.08.9-.93-.52-2.34-1.41-1.41z"/><path fill="#8b5e3c" d="M204.7 255.27c.15-1.36 2-1.9 3.24-1.25a6.39 6.39 0 0 1 2.42 3.21 30.25 30.25 0 0 1 3.48-4.93c.28-.32.63-.66 1-.59s.67.54.82.95l1.74 4.64c.62-1.27 2.62-.78 3.57.27s1.59 2.51 2.9 3a3.55 3.55 0 0 1 3.69.13 5.93 5.93 0 0 1 2.34 5.72 17.23 17.23 0 0 1-2.28 6.07l-1.64 3.12c-.47.9-1.27 1.94-2.24 1.67a2 2 0 0 1-1-.8 9.88 9.88 0 0 1-1.9-4.33 24.24 24.24 0 0 0-3.84 5.95 5.12 5.12 0 0 1-2.83-3.84 15 15 0 0 1 .11-4.95l-2.68 5c-.52 1-1.32 2.12-2.43 2-1.48-.19-1.63-2.26-1.37-3.73l.91-5.17-1.19.9a7.27 7.27 0 0 1-1.14-5.81 9.19 9.19 0 0 0 .57-2.8c-.09-1.47-1.25-2.61-2.33-3.61"/><path fill="#231f20" d="M205.66 255.54c.2-1 1.41-.92 2.09-.47a6.18 6.18 0 0 1 1.74 2.67 1 1 0 0 0 1.73 0 29 29 0 0 1 3.19-4.57c.42-.48.17-.39.41 0a7.49 7.49 0 0 1 .52 1.39l1.13 3a1 1 0 0 0 1.83.24c.68-1.09 2.27.78 2.62 1.26a6.22 6.22 0 0 0 2.49 2.39c.63.24.87 0 1.47-.22a2.77 2.77 0 0 1 2.39.48 4.59 4.59 0 0 1 1.69 3.35c.29 3-1.55 5.79-2.88 8.31-.36.68-.69 1.4-1.1 2.06s-.7 1.15-1.27.62a8 8 0 0 1-1.86-4.15 1 1 0 0 0-1.67-.44 26.92 26.92 0 0 0-4 6.15l1.37-.36c-3-1.39-2.59-5.18-2.23-7.92.13-1-1.42-1.33-1.86-.5l-2.12 4c-.28.52-1.39 3.18-2.29 2.37-.61-.54-.27-2.11-.16-2.77.27-1.57.55-3.14.83-4.7.13-.75-.7-1.71-1.47-1.13l-1.19.9 1.37.35a6.53 6.53 0 0 1-1.19-3.49 20 20 0 0 1 .69-3.67c.34-2.21-1-3.84-2.56-5.25-.94-.88-2.36.53-1.41 1.41a6.19 6.19 0 0 1 1.94 2.46c.35 1.16-.37 2.42-.55 3.57a8.37 8.37 0 0 0 1.35 6 1 1 0 0 0 1.37.36l1.19-.89-1.47-1.13a48.11 48.11 0 0 0-1 6.3c-.06 1.29.23 2.88 1.46 3.57 1.44.8 2.9-.11 3.75-1.29a51.19 51.19 0 0 0 3.22-5.91l-1.86-.51c-.46 3.47-.52 7.93 3.22 9.65a1 1 0 0 0 1.37-.36 25 25 0 0 1 3.67-5.74l-1.67-.44c.39 2 2 6.58 4.74 5.83 1.35-.36 2-1.79 2.63-2.91.82-1.56 1.69-3.09 2.41-4.69 1.2-2.67 1.87-5.7.52-8.45a5 5 0 0 0-6.81-2.5h1c-1.73-.8-2.23-2.94-4-3.77a2.88 2.88 0 0 0-3.87.84l1.83.24c-.58-1.54-1.13-3.1-1.74-4.63-.38-1-1-1.87-2.21-1.65s-1.86 1.46-2.49 2.28a35.53 35.53 0 0 0-2.47 3.7h1.73c-.78-1.69-1.85-3.61-3.86-3.93a3.1 3.1 0 0 0-3.63 2.2c-.26 1.26 1.67 1.8 1.93.54z"/><path fill="#009444" d="M200.89 254.74c-2.05-8.72-4.4-18-10.92-24.13a1.7 1.7 0 0 0-1.07-.59 1.84 1.84 0 0 0-1.05.46l-8.26 6.07c1.61 3.52 4.75 6.06 7.78 8.46l12.72 10.06"/><path fill="#231f20" d="M201.86 254.48c-1.55-6.55-3.19-13.28-6.76-19.07a28.85 28.85 0 0 0-2.79-3.81c-.83-.95-2-2.57-3.41-2.58a3.36 3.36 0 0 0-1.94.88c-.93.67-1.84 1.35-2.76 2l-5.12 3.76a1 1 0 0 0-.36 1.36c1.84 3.87 5.24 6.53 8.52 9.12l12.14 9.61c1 .79 2.42-.62 1.42-1.41l-11.76-9.31c-3.27-2.58-6.75-5.16-8.59-9l-.36 1.36 4.53-3.32 2.16-1.59c.47-.34 1.45-1.4 2.05-1.4s1.21 1 1.54 1.33a23.87 23.87 0 0 1 1.59 1.9 30.2 30.2 0 0 1 2.3 3.61c2.87 5.3 4.29 11.25 5.67 17.07.3 1.25 2.22.72 1.93-.53z"/><path fill="#009444" d="M180.69 239.7a16.55 16.55 0 0 0-13.92 14.11 11.27 11.27 0 0 1 7.62.1 29.89 29.89 0 0 1 6.85 3.65 3.53 3.53 0 0 0 1.31.63 3.56 3.56 0 0 0 1.83-.34l10.09-3.83a3.21 3.21 0 0 1 1.91-.29"/><path fill="#231f20" d="M180.42 238.74a17.58 17.58 0 0 0-14.65 15.07 1 1 0 0 0 1.27 1 10.94 10.94 0 0 1 7.5.24c2.44.89 4.42 2.46 6.66 3.71s4.79-.42 6.89-1.21l3.9-1.48 1.83-.69a5.28 5.28 0 0 1 2.3-.65c1.26.19 1.8-1.74.53-1.93a6.37 6.37 0 0 0-3.36.65l-4.13 1.56-4.12 1.57c-.8.3-1.8.87-2.67.54a8.83 8.83 0 0 1-1.53-1c-4.22-2.72-9.28-5.07-14.34-3.26l1.27 1a15.6 15.6 0 0 1 13.18-13.14c1.27-.18.73-2.11-.53-1.93z"/><path fill="#009444" d="M214.64 286.9a69.66 69.66 0 0 1 18.26 30.15l7.41-17.19a33.89 33.89 0 0 0 2-5.48c.86-3.58.53-7.31.2-11a56 56 0 0 0-14.38-4.7 3.25 3.25 0 0 0-1.28-.06 3.11 3.11 0 0 0-1.43.86c-1.9 1.77-3.62 4.21-6.2 4.42a8 8 0 0 0-1.84.14c-.59.19-1.12.8-.93 1.38"/><path fill="#231f20" d="M213.93 287.61a69.13 69.13 0 0 1 18 29.71c.22.74 1.47 1.08 1.83.24l6.12-14.25c1.92-4.48 3.87-8.71 3.93-13.67 0-1.28 0-2.56-.14-3.84-.06-.86.13-2.42-.5-3.1a9.14 9.14 0 0 0-2.86-1.35c-1.1-.46-2.21-.9-3.33-1.3a57.48 57.48 0 0 0-7.07-2c-2-.44-3.62-.74-5.27.75s-2.93 3.54-5.07 4c-1.08.25-2.21-.07-3.18.58a2.16 2.16 0 0 0-1 2.29c.17 1.27 2.1.73 1.92-.53 0-.15 2.7-.38 3.08-.5a7.2 7.2 0 0 0 2.24-1.23 21.87 21.87 0 0 0 2.12-2c.75-.77 1.56-1.92 2.72-1.86a30.15 30.15 0 0 1 7.21 1.76 55.35 55.35 0 0 1 7.22 2.87l-.49-.86a43.58 43.58 0 0 1 .2 8.62 29.21 29.21 0 0 1-2.64 8.23l-7 16.29 1.83.24a71.32 71.32 0 0 0-18.49-30.51c-.92-.9-2.34.52-1.42 1.42z"/><path fill="#009444" d="M222.8 298.46c-2 2.46-1.77 6.11-.59 9.06s3.16 5.53 4.47 8.43a41.47 41.47 0 0 1 2.17 6.92l1.94 7.76c5.41-2.6 8.65-8.15 11.57-13.39 1.18-2.12 2.39-4.37 2.28-6.79-.17-3.36-2.8-6-5.27-8.29"/><path fill="#231f20" d="M221.94 298c-3.46 4.52-.77 10.26 1.7 14.5a33.79 33.79 0 0 1 3.68 8.48c.89 3.31 1.67 6.65 2.5 10a1 1 0 0 0 1.47.6c5.6-2.78 8.9-8.33 11.84-13.59 1.55-2.78 3.07-5.78 2.27-9-.74-3-3.11-5.36-5.32-7.42-.94-.88-2.36.53-1.41 1.41 2 1.86 4.27 3.95 4.85 6.72.63 3-1.28 5.85-2.68 8.33-2.63 4.65-5.62 9.41-10.56 11.86l1.47.6c-1.43-5.72-2.4-11.85-5.29-17.05-2.31-4.14-6.34-9.74-2.79-14.36.78-1-1-2-1.73-1z"/><path fill="#009444" d="M239.82 301.14a13.94 13.94 0 0 0 6.13.17 26.58 26.58 0 0 0 3.36-21.31c-.39-1.42-1-3-2.34-3.59a5.9 5.9 0 0 0-2.16-.41l-13.45-.92a3 3 0 0 0-1.48.16 1 1 0 0 0-.59 1.24"/><path fill="#231f20" d="M239.55 302.1a15.48 15.48 0 0 0 5.79.32 2 2 0 0 0 1.8-1.12 24.71 24.71 0 0 0 1.37-2.53 28.06 28.06 0 0 0 2.66-10.77c.13-3.32-.12-7.4-1.76-10.37a4.67 4.67 0 0 0-3.73-2.49c-2.18-.27-4.4-.32-6.6-.47-2.57-.17-5.14-.4-7.72-.53-1.66-.08-3.46.69-3 2.66.27 1.26 2.2.73 1.93-.53 0-.13 5.12.15 5.59.18l5.72.39c1.57.11 4.24-.2 5.48.92 1.08 1 1.37 2.82 1.65 4.17a25.79 25.79 0 0 1-3.61 18.91l.59-.46a13.4 13.4 0 0 1-5.6-.18c-1.25-.3-1.78 1.63-.53 1.93zm-138.8-37.69c-1.42-7-8.36-10.91-15-11.31a33.48 33.48 0 0 0-12.16 1.9c-3.45 1.11-6.89 2.74-9 5.82a9 9 0 0 0-1.65 5.36c.1 2.18 1.46 4.15 1.22 6.35-.1.89 1.14 1.28 1.7.71a19.24 19.24 0 0 1 14.93-5.6c3 .21 5.61 1.41 8.58.41 3.2-1.06 6.1-2 9.53-2a1 1 0 0 0 0-2 27.22 27.22 0 0 0-9.65 1.9 9.16 9.16 0 0 1-5.46.09 22.18 22.18 0 0 0-4.15-.48 21.23 21.23 0 0 0-15.19 6.23l1.71.71c.23-2.13-.94-3.91-1.19-6a7.35 7.35 0 0 1 2-5.6c2.91-3.24 7.82-4.48 11.93-5.29 4.33-.87 9.1-.94 13.14 1.08a12.11 12.11 0 0 1 6.74 8.24c.26 1.26 2.19.72 1.93-.54z"/><path fill="#fff" d="M65.31 262.28a10.71 10.71 0 0 0 2.27 3.79 6.38 6.38 0 0 0 1.23-3.88 2.41 2.41 0 0 0 2.39-.7 7.51 7.51 0 0 1 2-1.63c1-.42 2.26-.11 3.27-.57.58-.26 1.1-.77 1.72-.71s.93.51 1.43.7c1.81.72 4-2 5.48-.84a3.4 3.4 0 0 1 .82 2.18c.13.78.59 1.69 1.39 1.69 1 0 1.33-1.23 1.47-2.18s.74-2.15 1.67-1.92c.57.15 1.19.81 1.6.39a1.22 1.22 0 0 0-.36-1.7 3.5 3.5 0 0 0-1.87-.45c-1.7-.07-3.4-.11-5.11-.11a10 10 0 0 0-2.84.26c-.91.25-1.74.75-2.66 1a10.75 10.75 0 0 1-4.75-.15l6.68-1.46c2.5-.55 5.39-1 7.35.62-3.09-.89-6.28 1.17-9.49 1.08-1 0-1.95-.26-2.93-.35a11.1 11.1 0 0 0-10.66 5.76"/><path fill="#231f20" d="M68.03 238.73a5 5 0 0 0-2.81 5.15c1.08 0 1.51-1.77 2.59-1.74a2 2 0 0 1 1.22.79 8.94 8.94 0 0 0 4.34 2.45 1.62 1.62 0 0 0 .9 0c1-.32.75-1.75 1.08-2.73a2.16 2.16 0 0 1 3.11-1.06 8.43 8.43 0 0 0 1.07.82c1.08.5 2.24-.47 3-1.36a2.06 2.06 0 0 0 .73-1.61 1.82 1.82 0 0 0-.78-1 11.5 11.5 0 0 0-6.83-2.05 34.4 34.4 0 0 0-7.19.94m-.81-9.93c-.9-1.76-3.35-2.8-4.95-1.64a13.47 13.47 0 0 1-1.37 1.13c-.52.29-1.33.21-1.53-.35l-3.19 3.77a3.54 3.54 0 0 1-2.27 1.55l1 1.1-2.32 1.82c-.13.1-.28.25-.23.41s.24.21.39.28a1.18 1.18 0 0 1 .51 1.36 3.38 3.38 0 0 1-.84 1.32 1.51 1.51 0 0 1 1.67.21 4.47 4.47 0 0 0 1.53.92c1.57.33 2.61-1.83 4.2-2.07a6.61 6.61 0 0 1 1.09 0 4.94 4.94 0 0 0 3.6-2 14.6 14.6 0 0 0 2-3.72l.79 1.65c.58-1.87.82-3.99-.08-5.74zm-2 5.22l-1.17 1.09a4.54 4.54 0 0 1-2.07 1.29 1.55 1.55 0 0 1-1.89-1.12 1.84 1.84 0 0 1 1.19-1.64 8.69 8.69 0 0 0 1.93-1c.37-.31.69-.77 1.17-.79.87.06 1.01 1.32.83 2.17zm37.31-5.24c-.12-.67-1.45-.78-1.27-1.45.06-.22.28-.34.41-.53a1.25 1.25 0 0 0-.33-1.51 4.87 4.87 0 0 1-1.13-1.23c-.18-.4-.18-.89-.51-1.18a1.43 1.43 0 0 0-1-.24 17.49 17.49 0 0 0-4.37.59 3 3 0 0 1-2 .08 10.17 10.17 0 0 1-.86-.6c-1.09-.66-2.51 0-3.47.8a11.55 11.55 0 0 1-2.91 2.42 1 1 0 0 1-.76.08c-.55-.21-.58-1-1.09-1.31s-1.25.35-1.61.94l-1.61 2.65a7.5 7.5 0 0 0-1 2.28 2.54 2.54 0 0 0 .6 2.34 1.55 1.55 0 0 0 2.23-.1l.31-.25a9.51 9.51 0 0 0 4.62 2.31 9.61 9.61 0 0 0 2.5-.21 19.47 19.47 0 0 0 4.57-1.19 4 4 0 0 1 1.29-.45 7.33 7.33 0 0 1 1.54.22c2.34.32 4.22-1.8 5.62-3.7a1.08 1.08 0 0 0 .23-.76zm-10.32.34a2 2 0 0 1-1 2.68 5.67 5.67 0 0 1-3.17.3 2.5 2.5 0 0 1-1.08-.27 1.69 1.69 0 0 1-.38-2.23 4 4 0 0 1 2-1.48c1.8-.78 4.16-1 5.49.4z"/><path fill="#009444" d="M423.82 6c5.26.51 10.68.39 15.75 1.66 13 3.26 21.94 15 22.55 28.51a12.22 12.22 0 0 1 0 1.71c-.89 9 1 17.38 4.67 25.63s6.39 16.76 9.8 25.06c1.13 2.77.87 5.06-1.12 6.91a54 54 0 0 1-9.08 7.38c-15.87 9.28-33.13 12.51-51.36 10.82-12-1.11-23.43-4.35-33.82-10.58a59.59 59.59 0 0 1-9.17-7.26c-2.22-2-2.55-4.47-1.32-7.53 4.79-11.88 9.28-23.87 13.82-35.85a12.12 12.12 0 0 0 .54-3.58c.34-6.35-.09-12.84 1.1-19 2.58-13.35 15.37-23.27 29-23.38h8.58zm-13.87 33c-6 0-10.83 1.52-13.92 5.19a38.59 38.59 0 0 0-6.19 9.81c-4.84 11.7-9.27 23.54-13.87 35.31-.53 1.37-1 2.83.81 3.49s2.39-.85 2.9-2.18c1.34-3.43 2.64-6.85 4-10.27 3.59-9.11 7-18.28 10.83-27.29 4.88-11.56 16.12-12.16 23.56-7.53 3.91 2.43 7.15 2.46 11.08 0 8-5 17.25-3 21.92 4.47a48.14 48.14 0 0 1 3.77 8c4.32 10.92 8.54 21.88 12.8 32.83.54 1.37 1.25 2.7 3 1.92s1.15-2.09.65-3.36c-1.78-4.56-3.53-9.13-5.33-13.68-3.21-8.11-6.25-16.3-9.71-24.3-5.89-13.71-19.94-15.21-29.79-8.84a4.54 4.54 0 0 1-5.62 0A21 21 0 0 0 409.95 39zm-1.64 25.13h4.66c7 0 7.08-.13 6.89-7.13a7.73 7.73 0 0 0-3.08-6.39c-5.88-4.24-18.71-1.57-19.94 8-.47 3.68.85 5.4 4.6 5.49 2.3.07 4.59.02 6.87.03zm30.37-.13v.13c2.62 0 5.24.1 7.85 0 3-.15 4.34-2 3.94-4.94-.78-6-5.52-10.08-12-10.43s-11.68 2.47-11 10.48a8 8 0 0 1 0 1.47c-.23 2.21.92 3.24 3 3.3 2.65-.01 5.43-.01 8.21-.01zm-9.37 15.43c0-2.4.16-4.53 0-6.62a5.61 5.61 0 0 0-5.52-4.92c-2.65 0-5.35 1.86-5.67 4.45a57.59 57.59 0 0 0-.06 7.09zm-7.62 19.26V83.45h-5.56v15.24zm4-15.25v15.17h5.5V83.44zm-13.75 4.31c-5.03 2.45-3.63 6.8-3.63 10.82h3.62zm26.88 11c.87-6.9.36-8.48-3.45-10.85v10.8zm-41.25-.85c.19 2.61 1.16 3.77 3 3.77a2.62 2.62 0 0 0 2.74-2.82c.09-1.85-1-3.14-2.78-2.85-1.17.12-2.22 1.32-2.96 1.85zm52.12 0c-.76-.52-1.78-1.73-2.95-1.89-1.76-.25-2.87 1-2.83 2.89a2.62 2.62 0 0 0 2.81 2.77c1.81-.05 2.78-1.21 2.97-3.82zm67.48 22.1c.32-6.11.43-11.52.92-16.9 2-21.69 5.73-43 12.92-63.67 4.08-11.69 8.7-23.29 17.69-32.2 9.75-9.65 11.2-9.46 21.31-.59 8.69 7.63 13.63 17.89 17.74 28.47 8.81 22.69 12.56 46.37 13.56 70.56 0 .52 0 1-.06 1.52-5.27 1.18-5.42 1.06-6.6-3.62a79.81 79.81 0 0 0-11.34-25.9 11.57 11.57 0 0 0-.74-1c-5.07-5.93-4.7-5.77-11.2-3.22-14.76 5.78-26.46 15.86-36.54 27.76-4.28 5-7.61 11-10.88 16.79-1.75 3.08-4.11.93-6.78 2zm42.44-107.06h-.55c-1.72 8.53-3.51 17.05-5.09 25.6-.42 2.28-1.12 3.37-3.63 3.14s-5.21-.06-7.82-.06l-.17.66 10.86 5.52c-1.83 3.72-3.5 7.11-5.16 10.5l.32.17 11-11.27 10.71 11.51.57-.39-5.18-10.52 10.84-5.63-.29-.69h-10.65z"/><path fill="none" stroke="#009444" stroke-miterlimit="10" stroke-width="2" d="M665.91 15a39.94 39.94 0 0 0-22.6 24.26M688.83 15a39.94 39.94 0 0 1 22.63 24.31m-44.51 36.31h21.15m-22.72 4.62h24.31m-25.91 5.91H691m-29.36 5.96l30.74.01m-31.55 5.77h32.9m-34.26 6.2h35.55"/><path fill="#009444" d="M719.17 60.54V47.3a4.71 4.71 0 0 0-4.71-4.71h-30.48l3.44-38A4.24 4.24 0 0 0 683.2 0h-11.66a4.24 4.24 0 0 0-4.23 4.62l3.44 38h-30.44a4.71 4.71 0 0 0-4.71 4.71v13.21a4.71 4.71 0 0 0 4.71 4.71h9.56l-14.3 47.55h19.09l11.25-41.92 11.46-1.63 11.46 1.63 11.25 41.92h19.09L704.9 65.25h9.56a4.71 4.71 0 0 0 4.71-4.71zm-15.46-3h-50.85a3.85 3.85 0 0 1 0-7.69h50.85a3.85 3.85 0 0 1 0 7.69z"/><path fill="none" stroke="#009444" stroke-miterlimit="10" stroke-width="2" d="M714.06 66.98v25.14m-73.32-25.14v25.14"/><circle cx="664.59" cy="53.97" r="1.97" fill="none" stroke="#009444" stroke-miterlimit="10" stroke-width="3"/><path fill="#98d1ab" d="M423.82 172c5.26.51 10.68.39 15.75 1.66 13 3.26 21.94 14.95 22.55 28.51a12.22 12.22 0 0 1 0 1.71c-.89 9 1 17.38 4.67 25.63s6.39 16.77 9.8 25.06c1.13 2.77.87 5.06-1.12 6.91a54 54 0 0 1-9.08 7.38c-15.87 9.28-33.13 12.51-51.36 10.82-12-1.11-23.43-4.35-33.82-10.58a59.59 59.59 0 0 1-9.17-7.26c-2.22-2-2.55-4.47-1.32-7.53 4.79-11.88 9.28-23.87 13.82-35.84a12.24 12.24 0 0 0 .54-3.59c.34-6.34-.09-12.84 1.1-19 2.58-13.35 15.37-23.27 29-23.38h8.58zm-13.87 33c-6 0-10.83 1.52-13.92 5.19a38.59 38.59 0 0 0-6.19 9.86c-4.84 11.68-9.27 23.52-13.87 35.29-.53 1.37-1 2.83.81 3.49s2.39-.85 2.9-2.18c1.34-3.42 2.64-6.85 4-10.27 3.59-9.11 7-18.28 10.83-27.29 4.89-11.56 16.13-12.16 23.57-7.53 3.91 2.43 7.15 2.46 11.08 0 8-5 17.25-3 21.92 4.47a48.14 48.14 0 0 1 3.77 7.94c4.32 10.92 8.54 21.88 12.8 32.83.54 1.38 1.25 2.71 3 1.92s1.15-2.09.65-3.36c-1.78-4.56-3.53-9.13-5.33-13.68-3.21-8.11-6.25-16.3-9.71-24.3-5.91-13.68-19.95-15.18-29.81-8.81a4.54 4.54 0 0 1-5.62 0 21 21 0 0 0-10.88-3.52zm-1.64 25.21h4.66c7 0 7.08-.12 6.89-7.13a7.73 7.73 0 0 0-3.08-6.39c-5.88-4.24-18.71-1.57-19.94 8-.47 3.68.85 5.4 4.6 5.49 2.3.07 4.59.03 6.87.03zm30.36-.15v.13c2.62 0 5.24.1 7.85 0 3-.15 4.34-2 3.94-4.94-.78-6-5.52-10.08-12-10.43s-11.68 2.47-11 10.48a8 8 0 0 1 0 1.47c-.3 2.23.85 3.23 2.85 3.23 2.81.12 5.59.06 8.37.06zm-9.36 15.45c0-2.4.16-4.53 0-6.62a5.59 5.59 0 0 0-5.56-4.89c-2.65-.06-5.35 1.85-5.67 4.44a57.61 57.61 0 0 0-.06 7.09zm-7.62 19.26v-15.24h-5.56v15.24zm4-15.25v15.17h5.5v-15.17zm-13.71 4.31c-5 2.45-3.64 6.8-3.62 10.82h3.62zm26.88 10.95c.87-6.9.36-8.48-3.45-10.85v10.85zm-41.25-.85c.19 2.61 1.16 3.77 3 3.77a2.62 2.62 0 0 0 2.7-2.77c0-1.86-1.06-3.14-2.82-2.89-1.13.16-2.18 1.37-2.92 1.89zm52.12 0c-.76-.52-1.78-1.73-2.95-1.89-1.76-.25-2.87 1-2.83 2.89a2.62 2.62 0 0 0 2.81 2.77c1.77 0 2.74-1.16 2.93-3.77zm67.44 22.16c.32-6.11.43-11.52.92-16.9 2-21.69 5.73-43.05 12.92-63.67 4.08-11.69 8.7-23.29 17.69-32.2 9.75-9.65 11.2-9.46 21.31-.59 8.69 7.63 13.63 17.89 17.74 28.47 8.81 22.68 12.52 46.37 13.51 70.56 0 .51 0 1-.06 1.51-5.27 1.18-5.42 1.06-6.6-3.62a79.81 79.81 0 0 0-11.29-25.9c-.25-.35-.46-.73-.74-1.05-5.07-5.93-4.7-5.77-11.2-3.22-14.76 5.78-26.46 15.86-36.54 27.76-4.28 5.05-7.61 11-10.88 16.79-1.75 3.13-4.11.97-6.78 2.06zM559.61 179h-.55c-1.72 8.53-3.51 17-5.09 25.6-.42 2.28-1.12 3.37-3.63 3.14s-5.21 0-7.82 0l-.17.66 10.86 5.51c-1.83 3.73-3.5 7.11-5.16 10.5l.32.18 11-11.28 10.71 11.51.57-.39-5.17-10.49 10.83-5.69-.29-.69h-10.65z"/><path fill="none" stroke="#98d1ab" stroke-miterlimit="10" stroke-width="2" d="M665.91 181a39.94 39.94 0 0 0-22.6 24.34M688.83 181a39.94 39.94 0 0 1 22.63 24.31m-44.51 36.39h21.15m-22.72 4.62h24.31m-25.91 5.92H691m-29.36 5.95l30.74.01m-31.55 5.77h32.9m-34.26 6.21l35.55-.01"/><path fill="#98d1ab" d="M719.17 226.62v-13.24a4.71 4.71 0 0 0-4.71-4.71h-30.48l3.44-38a4.24 4.24 0 0 0-4.22-4.62h-11.66a4.24 4.24 0 0 0-4.23 4.65l3.44 38h-30.44a4.71 4.71 0 0 0-4.71 4.71v13.24a4.71 4.71 0 0 0 4.71 4.71h9.56l-14.27 47.55h19.09L665.91 237l11.46-1.63 11.46 1.63 11.25 41.92h19.09l-14.27-47.55h9.56a4.71 4.71 0 0 0 4.71-4.75zm-15.46-3h-50.85a3.85 3.85 0 0 1 0-7.69h50.85a3.85 3.85 0 0 1 0 7.69z"/><path fill="none" stroke="#98d1ab" stroke-miterlimit="10" stroke-width="2" d="M714.06 233.06v25.14m-73.32-25.14v25.14"/><circle cx="664.59" cy="220.05" r="1.97" fill="none" stroke="#98d1ab" stroke-miterlimit="10" stroke-width="3"/><path fill="#009444" d="M375.49 359.95h79.21v13.63h-79.21z"/><path fill="#009444" d="M431.15 336.95l31.92 29.81-31.92 22.04v-51.85zm182.62 28.85h-79.21v-13.63h79.21z"/><path fill="#009444" d="M558.11 388.8l-31.93-29.81 31.93-22.04v51.85z"/><path fill="#8b5e3c" d="M375.49 448.69h79.21v13.63h-79.21z"/><path fill="#8b5e3c" d="M431.15 425.69l31.92 29.82-31.92 22.04v-51.86zm182.62 28.86h-79.21v-13.63h79.21z"/><path fill="#8b5e3c" d="M558.11 477.55l-31.93-29.82 31.93-22.04v51.86zm-90.48 101.06l-52.65-42.8-52.65 42.8h13.16v61.2h12.88v-32.55h16v32.55h50.33v-61.2h12.93z"/><circle cx="507.35" cy="567.72" r="11.44" fill="#8b5e3c"/><path fill="#8b5e3c" d="M510.42 587.81l18.23 26.89h65.86l5.96-32-90.05 5.11z"/><ellipse cx="545.77" cy="636.28" fill="#8b5e3c" rx="7.07" ry="5.95"/><ellipse cx="577.4" cy="636.28" fill="#8b5e3c" rx="7.07" ry="5.95"/></symbol></svg>